<?xml version="1.0" encoding="utf-8"?>
<!-- Generator: Adobe Illustrator 18.1.0, SVG Export Plug-In . SVG Version: 6.00 Build 0)  -->
<svg version="1.1" id="Layer_1" xmlns="http://www.w3.org/2000/svg" xmlns:xlink="http://www.w3.org/1999/xlink" x="0px" y="0px"
	 viewBox="0 0 100 100" enable-background="new 0 0 100 100" xml:space="preserve">
<g>
	<path fill-rule="evenodd" clip-rule="evenodd" fill="#091117" d="M88.1,59.7c-4.1,0.9-8-1.4-8.9-4.6c-0.9-3.2,0.9-6.9,4.8-8
		c2.4-0.7,5,0.3,6.2,2.6c1.2,2.3-0.5,5.1-3.2,5.7c-0.4,0.1-0.8,0.1-1.2,0c1.3,0,2.3-1,2.3-2.2c0-1.2-1-2.2-2.3-2.2
		c-1.3,0-2.3,1-2.3,2.2c0,0.4,0.1,0.7,0.3,1c0.5,1.2,1.9,2,3.3,1.7c2.9-0.6,4.6-3.2,3.8-5.8c-0.8-2.6-3.7-3.9-6.7-3.6
		C80,47,76.9,51.9,78.7,56c1.8,4.1,5.6,5.5,9.9,4.6c5.8-1.2,8.8-6.9,7.5-11.7c-1.1-4.1-4.7-7-10.4-7.2c-13-1.1-17.6,15.7-32.5,14.5
		C71,57.6,73.6,40.4,88.1,42.3c3.6,0.9,6.1,2.9,7.2,6.3C96.8,53.6,93.6,58.5,88.1,59.7z"/>
	<path fill-rule="evenodd" clip-rule="evenodd" fill="#091117" d="M12.7,59.7c4.1,0.9,8-1.4,8.9-4.6c0.9-3.2-0.9-6.9-4.8-8
		c-2.4-0.7-5,0.3-6.2,2.6c-1.2,2.3,0.5,5.1,3.2,5.7c0.4,0.1,0.8,0.1,1.2,0c-1.3,0-2.3-1-2.3-2.2c0-1.2,1-2.2,2.3-2.2
		c1.3,0,2.3,1,2.3,2.2c0,0.4-0.1,0.7-0.3,1c-0.5,1.2-1.9,2-3.3,1.7c-2.9-0.6-4.6-3.2-3.8-5.8c0.8-2.6,3.7-3.9,6.7-3.6
		c4.2,0.5,7.3,5.4,5.5,9.5c-1.8,4.1-5.6,5.5-9.9,4.6C6.4,59.4,3.4,53.8,4.7,49c1.1-4.1,4.7-7,10.4-7.2c13-1.1,17.6,15.7,32.5,14.5
		c-17.8,1.4-20.4-15.8-34.9-13.9c-3.6,0.9-6.1,2.9-7.2,6.3C4,53.6,7.2,58.5,12.7,59.7z"/>
</g>
</svg>
