<?xml version="1.0" encoding="utf-8"?>
<!-- Generator: Adobe Illustrator 18.1.0, SVG Export Plug-In . SVG Version: 6.00 Build 0)  -->
<svg version="1.1" id="Layer_1" xmlns="http://www.w3.org/2000/svg" xmlns:xlink="http://www.w3.org/1999/xlink" x="0px" y="0px"
	 viewBox="0 0 100 100" enable-background="new 0 0 100 100" xml:space="preserve">
<g>
	<path fill="#091117" d="M12.8,57.6c-3.1,0.1-5.5,2.1-7.6,4.1L12.8,57.6z"/>
	<path fill="#091117" d="M16.5,59.1c-1.1,0.1-2.3,1-3.2,1.6L16.5,59.1z"/>
	<path fill="#091117" d="M48.9,38.6c0-0.5,0-0.9-0.1-1.2c0-0.3,0-0.4,0-0.4s0,0.2,0,0.4c0,0.3,0,0.7-0.1,1.2c-0.2,1-0.6,2.4-1.5,3.7
		c-0.9,1.3-2.2,2.6-3.7,3.7c-0.7,0.5-1.6,1-2.4,1.5c-0.2,0.1-0.3,0.3-0.5,0.4c-0.5-0.6-1.1-1.1-1.7-1.4c-0.7-0.5-1.4-0.8-2-1
		c-1.1-0.4-1.9-0.6-2.3-0.7c-0.4-0.1-0.6-0.1-0.6-0.1c0,0,0.1,0.1,0.5,0.3c0.4,0.2,1.1,0.5,2.1,1.1c0.5,0.3,1.1,0.6,1.7,1.1
		c0.5,0.4,1,0.8,1.4,1.3c-0.3,0.2-0.6,0.5-0.8,0.8c-0.6,0.7-1.1,1.3-1.4,2c-0.1,0.2-0.2,0.3-0.2,0.5c0,0.2-0.1,0.4-0.1,0.5
		c0,0.4-0.1,0.7,0,1c0,0.2,0.1,0.3,0.1,0.5c0.1,0.1,0.1,0.2,0.2,0.3c-0.3,0.2-0.6,0.3-0.9,0.4c-1.6,0.6-3.3,1.1-5.1,1.4
		c-1.8,0.2-3.7,0.3-5.6,0.2c-3.8-0.1-7.6-0.8-11-1.3c-3.4-0.6-6.4-0.4-8.5,0.1c-1,0.3-1.8,0.6-2.3,0.8c-0.5,0.2-0.8,0.4-0.8,0.4
		s0.3-0.1,0.8-0.3c0.5-0.2,1.3-0.5,2.4-0.7c2.1-0.4,5-0.4,8.4,0.3c3.3,0.7,7.1,1.4,11,1.7c2,0.2,3.9,0.1,5.9-0.1
		c1.9-0.2,3.8-0.7,5.5-1.4c0.4-0.2,0.8-0.4,1.2-0.6c0,0,0.1,0.1,0.1,0.1c0.1,0.1,0.3,0.2,0.4,0.3c0.2,0.2,0.5,0.3,0.6,0.4
		c0.2,0.1,0.3,0.1,0.4,0.2c0.2,0.1,0.3,0.1,0.3,0.1c0,0,0-0.1-0.2-0.3c-0.1-0.1-0.2-0.2-0.3-0.3c-0.1-0.1-0.1-0.1-0.2-0.2
		c-0.1-0.1-0.1-0.2-0.2-0.3c-0.1-0.1-0.2-0.2-0.3-0.3c0.9-0.6,1.6-1.2,2.1-2.1c0.1-0.2,0.2-0.3,0.3-0.5c0.1-0.2,0.1-0.4,0.2-0.6
		c0-0.2,0.1-0.4,0.1-0.6c0-0.2,0-0.4,0-0.5c0-0.6-0.2-1.2-0.4-1.7c0.2-0.1,0.4-0.3,0.6-0.4c0.7-0.5,1.5-1,2.3-1.7
		c1.5-1.2,2.8-2.7,3.6-4.2C48.6,41.1,48.9,39.6,48.9,38.6z M40.6,50.6c0,0.1,0,0.3,0,0.4c0,0.1,0,0.3-0.1,0.4c0,0.1-0.1,0.3-0.1,0.4
		c0,0.1-0.1,0.2-0.2,0.4c-0.4,0.6-0.9,1.1-1.7,1.6c0,0,0-0.1,0-0.1c0-0.1,0-0.2,0-0.3c-0.1-0.8,0.4-2,1.6-3.1
		c0.2-0.2,0.3-0.3,0.5-0.5C40.5,50,40.6,50.3,40.6,50.6z"/>
	<path fill="#091117" d="M42.5,43c0.2-1-0.3-1.3-0.3-1.3c-0.1,0-0.6,0-0.9,1c-0.2,1,0,2.5,0,2.5S42.2,43.9,42.5,43z"/>
	<path fill="#091117" d="M19.2,52.2c0.7-0.2,1.7-0.3,2.9-0.3c1.2,0,2.5,0.2,3.8,0.3c1.3,0.1,2.7,0.2,4,0c0.6-0.1,1.2-0.3,1.7-0.6
		c0.5-0.3,0.9-0.6,1.1-1c0.5-0.7,0.7-1.3,0.8-1.7c0.1-0.4,0-0.7,0-0.9c0-0.2-0.1-0.2-0.1-0.2c-0.1,0-0.2,0.2-0.6,0.9
		c-0.4,0.7-1,1.9-3.2,2.3c-2.2,0.4-5.3,0-7.7,0.3c-1.2,0.1-2.2,0.4-2.9,0.8c-0.3,0.2-0.6,0.3-0.8,0.4c-0.2,0.1-0.3,0.2-0.3,0.2
		s0.1,0,0.3-0.1C18.6,52.4,18.9,52.3,19.2,52.2z"/>
	<path fill="#091117" d="M97.6,55.9c-0.5-0.3-1.3-0.5-2.3-0.8c-2.1-0.5-5.1-0.7-8.5-0.1c-3.4,0.5-7.2,1.1-11,1.3
		c-1.9,0.1-3.8,0-5.6-0.2c-1.8-0.3-3.6-0.7-5.1-1.4c-0.3-0.1-0.6-0.3-0.9-0.4c0.1-0.1,0.1-0.2,0.2-0.3c0-0.1,0.1-0.3,0.1-0.5
		c0.1-0.3,0-0.7,0-1c0-0.2-0.1-0.4-0.1-0.5c0-0.2-0.1-0.4-0.2-0.5c-0.3-0.7-0.8-1.4-1.4-2c-0.3-0.3-0.5-0.5-0.8-0.8
		c0.4-0.6,0.9-1,1.4-1.3c0.6-0.5,1.2-0.8,1.7-1.1c2.1-1.1,2.7-1.3,2.6-1.4c0,0-0.2,0-0.6,0.1c-0.4,0.1-1.2,0.3-2.3,0.7
		c-0.6,0.2-1.2,0.5-1.9,1c-0.5,0.3-1.1,0.8-1.7,1.4c-0.2-0.1-0.3-0.3-0.5-0.4c-0.8-0.6-1.6-1-2.4-1.5c-1.5-1-2.8-2.3-3.7-3.7
		c-0.9-1.3-1.3-2.7-1.5-3.7c-0.1-0.5-0.1-0.9-0.1-1.2c0-0.3,0-0.4,0-0.4s0,0.2,0,0.4c0,0.3-0.1,0.7-0.1,1.2c0,1,0.3,2.5,1.1,4
		c0.8,1.5,2.1,3,3.6,4.2c0.8,0.6,1.6,1.1,2.3,1.7c0.2,0.1,0.4,0.3,0.6,0.4c-0.2,0.5-0.4,1-0.4,1.7c0,0.2,0,0.4,0,0.5
		c0,0.2,0,0.4,0.1,0.6c0.1,0.2,0.1,0.4,0.2,0.6c0.1,0.2,0.2,0.4,0.3,0.5c0.5,0.8,1.3,1.5,2.1,2.1c-0.1,0.1-0.2,0.2-0.3,0.3
		c-0.2,0.2-0.3,0.4-0.5,0.5c-0.1,0.1-0.2,0.2-0.3,0.3c-0.1,0.2-0.2,0.3-0.2,0.3c0,0,0.1,0,0.3-0.1c0.1,0,0.2-0.1,0.4-0.2
		c0.1,0,0.2-0.1,0.3-0.1c0.1-0.1,0.2-0.1,0.3-0.2c0.1-0.1,0.3-0.2,0.4-0.3c0,0,0.1-0.1,0.1-0.1c0.4,0.2,0.8,0.4,1.2,0.6
		c1.7,0.7,3.5,1.2,5.5,1.4c1.9,0.2,3.9,0.2,5.9,0.1c3.9-0.3,7.7-1,11-1.7c3.3-0.7,6.3-0.7,8.4-0.3C96.2,55.5,97,55.7,97.6,55.9
		c0.5,0.3,0.8,0.4,0.8,0.4S98.1,56.2,97.6,55.9z M61.5,52.2c-0.1-0.1-0.2-0.2-0.2-0.4c0-0.1-0.1-0.3-0.1-0.4c0-0.1,0-0.3-0.1-0.4
		c0-0.1,0-0.3,0-0.4c0-0.3,0-0.6,0.1-0.9c0.2,0.2,0.3,0.3,0.5,0.5c1.1,1.1,1.7,2.3,1.6,3.1c0,0.1,0,0.2,0,0.3c0,0,0,0.1,0,0.1
		C62.5,53.3,61.9,52.7,61.5,52.2z"/>
	<path fill="#091117" d="M96.4,61.7c-2.1-2-4.5-4-7.6-4.1L96.4,61.7z"/>
	<path fill="#091117" d="M88.4,60.7c-1-0.6-2.1-1.4-3.2-1.6L88.4,60.7z"/>
	<path fill="#091117" d="M60.3,45.2c0,0,0.3-1.5,0-2.5c-0.2-1-0.8-1-0.9-1c-0.1,0-0.6,0.3-0.3,1.3C59.4,43.9,60.3,45.2,60.3,45.2z"
		/>
	<path fill="#091117" d="M68.8,50.6c0.3,0.3,0.7,0.7,1.1,1c0.5,0.3,1.1,0.5,1.7,0.6c1.3,0.2,2.7,0.1,4,0c1.3-0.1,2.7-0.3,3.8-0.3
		c1.2,0,2.2,0.1,2.9,0.3c0.3,0.1,0.6,0.2,0.8,0.3c0.2,0.1,0.3,0.1,0.3,0.1s-0.1-0.1-0.3-0.2c-0.2-0.1-0.4-0.3-0.8-0.4
		c-0.7-0.3-1.7-0.6-2.9-0.8c-2.4-0.3-5.4,0-7.7-0.3c-2.2-0.4-2.8-1.6-3.2-2.3c-0.4-0.7-0.5-0.9-0.6-0.9c0,0-0.1,0.1-0.1,0.2
		c0,0.2-0.1,0.4,0,0.9C68.1,49.3,68.3,49.9,68.8,50.6z"/>
	<path fill="#091117" d="M54.1,50.7c-0.1-0.3-0.2-0.6-0.2-0.9c-0.2-0.6-0.5-1.1-0.8-1.7c-0.3-0.5-0.6-1-1-1.5
		c-0.4-0.5-0.8-0.9-1.2-1.4L50.6,45l-0.3,0.3c-0.4,0.4-0.8,0.8-1.1,1.3c-0.3,0.4-0.7,0.9-1,1.4c-0.3,0.5-0.5,1-0.8,1.5
		c-0.1,0.3-0.2,0.5-0.3,0.8c-0.1,0.3-0.1,0.6-0.2,0.9l0,0.4l0,0.1c0,0,0,0,0,0.1l0,0.1l0,0.2c0,0.3,0.1,0.6,0.1,0.9
		c0.1,0.3,0.2,0.6,0.3,0.9c0.1,0.3,0.3,0.5,0.4,0.8c0.3,0.5,0.7,1,1.1,1.4c0.2,0.2,0.4,0.4,0.6,0.6c0.2,0.2,0.4,0.4,0.7,0.5h0
		l0.3,0.2l0.3-0.2c0.1-0.1,0.2-0.2,0.4-0.2c0.1-0.1,0.2-0.2,0.3-0.2c0.2-0.2,0.4-0.3,0.6-0.5c0.4-0.4,0.7-0.8,1-1.2
		c0.1-0.2,0.3-0.5,0.4-0.7c0.1-0.1,0.1-0.2,0.2-0.4c0-0.1,0.1-0.3,0.1-0.4c0.1-0.3,0.2-0.5,0.2-0.8c0-0.2,0-0.3,0-0.4l0-0.4l0,0
		l0-0.5C54.1,51,54.1,50.8,54.1,50.7z M53.1,52c0,0.1,0,0.2-0.1,0.3c0,0.2-0.1,0.4-0.2,0.6c0,0.1-0.1,0.2-0.1,0.3
		c0,0.1-0.1,0.2-0.1,0.3c-0.1,0.2-0.2,0.4-0.4,0.6c-0.3,0.4-0.6,0.7-0.9,1c-0.1,0.1-0.3,0.3-0.5,0.4l-0.3-4.8l-0.3,4.8
		c-0.2-0.1-0.4-0.3-0.6-0.5c-0.4-0.3-0.7-0.7-1-1.1c-0.1-0.2-0.3-0.4-0.4-0.6c-0.1-0.2-0.2-0.4-0.3-0.7c0-0.2-0.1-0.5-0.1-0.7l0-0.2
		l0,0c0,0,0,0,0,0l0-0.1l0-0.4c0-0.2,0-0.5,0.1-0.7c0.1-0.2,0.1-0.5,0.2-0.7c0.2-0.5,0.4-1,0.6-1.4c0.2-0.5,0.5-0.9,0.8-1.3
		c0.2-0.3,0.5-0.6,0.7-0.9c0.3,0.3,0.6,0.7,0.8,1.1c0.3,0.5,0.6,1,0.9,1.5c0.3,0.5,0.5,1,0.6,1.5c0.1,0.3,0.1,0.5,0.2,0.8
		c0,0.1,0,0.3,0,0.4l0,0.4L53.1,52z"/>
</g>
</svg>
