<?xml version="1.0" encoding="utf-8"?>
<!-- Generator: Adobe Illustrator 18.1.0, SVG Export Plug-In . SVG Version: 6.00 Build 0)  -->
<svg version="1.1" id="Layer_1" xmlns="http://www.w3.org/2000/svg" xmlns:xlink="http://www.w3.org/1999/xlink" x="0px" y="0px"
	 viewBox="0 0 100 100" enable-background="new 0 0 100 100" xml:space="preserve">
<g>
	<g>
		<path fill="#091117" d="M17.6,44.6c0,0,0,0-0.1,0c-0.1,0-0.2,0-0.3,0.2c-0.1,0.2-0.1,0.4,0,0.6c0.1,0.2,0.3,0.5,0.6,0.6
			c0.1,0,0.2,0,0.2,0c0.1,0,0.2,0,0.2-0.1c0.1-0.1,0.3-0.2,0.3-0.4c0.2-0.4,0.2-0.8,0.1-1.3c0-0.1-0.1-0.2-0.1-0.3
			c-0.1-0.1-0.2-0.2-0.2-0.3c-0.1-0.1-0.2-0.1-0.3-0.2c-0.1,0-0.2-0.1-0.3-0.1c-0.5-0.1-0.9,0.3-1.2,0.7c-0.3,0.5-0.5,1.1-0.6,1.7
			c0,0.6,0.2,1.2,0.6,1.7c0.9,1,2.4,1.4,3.9,1.4c0.7,0,1.5-0.1,2.2-0.5c0.7-0.3,1.3-0.9,1.4-1.7c0.1-0.4,0-0.8-0.1-1.1
			c-0.1-0.4-0.3-0.7-0.7-0.8c-0.4-0.1-0.7,0.2-0.9,0.5c-0.2,0.3-0.4,0.7-0.4,1c0,0.4,0.2,0.7,0.5,0.9c0.3,0.2,0.7,0.4,1,0.5
			c0.7,0.1,1.5,0.1,2.3-0.1c0.8-0.2,1.5-0.5,2.2-0.8c0.7-0.3,1.4-0.6,2.1-0.9c1.4-0.5,2.9-0.9,4.3-1.1c0.7-0.1,1.4-0.2,2-0.2
			c0.3,0,0.7,0,1,0c0.3,0,0.6,0,0.9,0.1c1.2,0.1,2.3,0.4,3.3,0.7c0.9,0.3,1.7,0.7,2.4,1c0.2,0.1,0.3,0.2,0.4,0.2
			c0.1,0.1,0.3,0.2,0.4,0.2c0.2,0.1,0.4,0.3,0.6,0.4c0.3,0.2,0.5,0.4,0.5,0.4l0,0c0,0-0.2-0.1-0.5-0.3c-0.2-0.1-0.4-0.2-0.6-0.4
			c-0.1-0.1-0.2-0.1-0.4-0.2c-0.1-0.1-0.3-0.1-0.4-0.2c-0.6-0.3-1.4-0.6-2.4-0.9c-0.9-0.3-2-0.5-3.2-0.6c-0.3,0-0.6,0-0.9,0
			c-0.3,0-0.6,0-0.9,0c-0.6,0.1-1.3,0.1-2,0.2c-0.7,0.1-1.4,0.3-2.1,0.4c-0.7,0.2-1.4,0.4-2.1,0.7c-0.7,0.2-1.4,0.6-2.1,0.9
			c-0.7,0.3-1.5,0.6-2.3,0.8c-0.8,0.2-1.6,0.3-2.5,0.1c-0.1,0-0.2-0.1-0.3-0.1l-0.3-0.1c-0.2-0.1-0.4-0.2-0.5-0.4
			c-0.3-0.3-0.5-0.7-0.5-1.2c0-0.4,0.2-0.9,0.5-1.2c0.3-0.3,0.7-0.6,1.1-0.5c0.5,0.1,0.7,0.5,0.8,0.9c0.1,0.4,0.2,0.8,0.1,1.2
			c-0.1,0.4-0.2,0.8-0.5,1.1c-0.3,0.3-0.6,0.5-1,0.7c-0.7,0.4-1.5,0.5-2.3,0.6c-0.8,0-1.5,0-2.3-0.2c-0.7-0.2-1.4-0.6-1.9-1.1
			c-0.5-0.5-0.8-1.3-0.7-2c0.1-0.7,0.3-1.3,0.7-1.9c0.2-0.3,0.4-0.5,0.7-0.7c0.3-0.2,0.6-0.3,0.9-0.2c0.2,0,0.3,0.1,0.4,0.2
			c0.1,0.1,0.2,0.2,0.3,0.3c0.1,0.1,0.2,0.2,0.2,0.3c0.1,0.1,0.1,0.3,0.2,0.4c0.1,0.5,0.1,1-0.1,1.4c-0.1,0.2-0.3,0.4-0.5,0.5
			c-0.1,0-0.1,0-0.2,0.1c-0.1,0-0.1,0-0.1,0c-0.1,0-0.2,0-0.3,0c-0.4-0.1-0.6-0.4-0.7-0.7c-0.1-0.3-0.1-0.5,0-0.7
			c0.1-0.2,0.3-0.2,0.4-0.2C17.5,44.5,17.6,44.5,17.6,44.6L17.6,44.6z"/>
		<path fill="#091117" d="M52.4,50.7c0.9-0.3,1.8-0.6,2.8-0.8c1-0.2,2.1-0.2,3.2-0.1c0.5,0.1,1.1,0.2,1.6,0.5
			c0.3,0.1,0.5,0.3,0.7,0.6c0,0.1,0.1,0.1,0.1,0.2c0,0.1,0.1,0.1,0.1,0.2c0,0.1,0,0.2,0.1,0.3c0,0.1,0,0.1,0,0.2l0,0.1l0,0.1l0,0
			c0,0.1,0,0,0,0.1L61,52.2c0,0.2-0.1,0.3-0.2,0.4c-0.2,0.3-0.4,0.5-0.7,0.7c-0.6,0.3-1.2,0.3-1.8,0.2c-0.6-0.1-1.2-0.2-1.8-0.5
			c-0.3-0.1-0.6-0.2-0.8-0.4c-0.3-0.1-0.6-0.3-0.8-0.4c-1.1-0.6-2.1-1.3-3.1-2c-1-0.7-2-1.5-3-2.2c-0.5-0.3-1-0.7-1.6-1
			c-0.5-0.3-1.1-0.6-1.6-0.9c-2.2-1.2-4.5-2.1-6.9-2.6c-0.6-0.1-1.2-0.2-1.8-0.3c-0.6,0-1.2-0.1-1.8-0.1c-0.6,0-1.2,0-1.8,0.1
			c-0.6,0.1-1.1,0.2-1.7,0.4c-1.1,0.4-2.1,0.9-2.9,1.7c-0.4,0.4-0.7,0.8-1,1.3c-0.1,0.2-0.2,0.5-0.3,0.7l-0.1,0.4
			c0,0.1-0.1,0.2-0.1,0.4c-0.2,1-0.1,2.1,0.4,2.8c0.3,0.4,0.6,0.7,1,0.8l0.3,0.1c0.1,0,0.2,0,0.3,0c0.1,0,0.2,0,0.3,0h0.2l0.2,0
			c0.5,0,0.9-0.1,1.3-0.2c0.2-0.1,0.4-0.1,0.6-0.3c0.1,0,0.2-0.1,0.2-0.2l0.1-0.1c0,0,0.1-0.1,0.1-0.1c0.2-0.3,0.3-0.7,0.3-1.1
			c0-0.4-0.1-0.7-0.2-1.1l-0.1-0.2l-0.2-0.2c0-0.1-0.1-0.1-0.2-0.2c-0.1,0-0.2-0.1-0.2-0.1c-0.3-0.1-0.6-0.2-0.9-0.2
			c-0.6,0-1.2,0.2-1.5,0.6c-0.3,0.4-0.2,1,0.1,1.2c0.3,0.2,0.7,0.1,1,0c0.5-0.2,0.7-0.5,0.7-0.5l0,0c0,0,0,0.1-0.1,0.2
			c-0.1,0.1-0.3,0.3-0.6,0.4c-0.3,0.1-0.7,0.2-1.1,0c-0.2-0.1-0.4-0.3-0.4-0.6c0-0.3,0-0.5,0.2-0.8c0.2-0.3,0.4-0.4,0.7-0.5
			c0.3-0.1,0.6-0.2,1-0.2c0.3,0,0.7,0,1.1,0.2c0.1,0.1,0.2,0.1,0.2,0.2c0.1,0,0.1,0.1,0.2,0.2l0.2,0.2l0.2,0.3
			c0.2,0.4,0.3,0.8,0.3,1.2c0,0.2,0,0.4-0.1,0.7l-0.1,0.3c0,0,0,0,0,0.1l0,0.1l-0.1,0.1c0,0-0.1,0.1-0.1,0.1l-0.1,0.1
			c-0.1,0.1-0.2,0.2-0.3,0.2c-0.2,0.1-0.4,0.2-0.6,0.3c-0.4,0.1-0.9,0.2-1.4,0.2l-0.2,0l-0.2,0c-0.1,0-0.2,0-0.4,0
			c-0.1,0-0.3,0-0.4-0.1l-0.4-0.1c-0.5-0.2-0.9-0.5-1.2-1c-0.6-0.9-0.7-2.1-0.5-3.2c0.2-1.1,0.8-2.1,1.7-2.9c0.8-0.8,1.9-1.4,3-1.7
			c0.6-0.2,1.2-0.3,1.7-0.3c0.6,0,1.2,0,1.8-0.1c0.6,0,1.2,0.1,1.8,0.1c0.6,0.1,1.2,0.2,1.8,0.3c2.4,0.5,4.8,1.4,7,2.5
			c0.6,0.3,1.1,0.6,1.7,0.9c0.3,0.1,0.5,0.3,0.8,0.5c0.3,0.2,0.5,0.3,0.8,0.5c1,0.7,2,1.4,3,2.1c1,0.7,2,1.4,3,1.9
			c0.3,0.1,0.5,0.3,0.8,0.4c0.3,0.1,0.5,0.3,0.8,0.3c0.5,0.2,1.1,0.3,1.7,0.4c0.5,0.1,1.1,0.1,1.6-0.2c0.5-0.2,0.7-0.7,0.7-1.2
			c0-0.1,0-0.2,0-0.2c0,0,0-0.1,0-0.1c0-0.1-0.1-0.2-0.1-0.3c-0.2-0.2-0.3-0.3-0.6-0.4c-0.4-0.2-1-0.4-1.5-0.4
			c-2.1-0.3-3.9,0.1-5.6,0.7L52.4,50.7z"/>
	</g>
	<g>
		<path fill="#091117" d="M83.3,44.5c0,0,0,0,0.1,0c0.1,0,0.3,0,0.4,0.2c0.1,0.2,0.1,0.4,0,0.7c-0.1,0.3-0.3,0.6-0.7,0.7
			c-0.1,0-0.2,0-0.3,0c-0.1,0-0.2,0-0.3-0.1c-0.2-0.1-0.4-0.3-0.5-0.5c-0.2-0.4-0.3-0.9-0.1-1.5c0-0.1,0-0.1,0.1-0.2
			c0,0,0-0.1,0.1-0.1l0.1-0.1c0.1-0.1,0.1-0.2,0.2-0.3c0.2-0.2,0.5-0.4,0.8-0.5c0.2,0,0.3,0,0.5,0c0.2,0.1,0.3,0.1,0.4,0.2
			c0.3,0.2,0.5,0.4,0.7,0.7c0.4,0.5,0.6,1.2,0.7,1.9c0,0.2,0,0.4,0,0.5c0,0.1,0,0.2-0.1,0.3l-0.1,0.2c-0.1,0.3-0.4,0.7-0.6,0.9
			c-0.5,0.5-1.2,0.9-2,1.1c-0.7,0.2-1.5,0.3-2.3,0.2c-0.8-0.1-1.6-0.2-2.3-0.6c-0.4-0.2-0.7-0.4-1-0.7c-0.3-0.3-0.4-0.7-0.5-1.1
			c-0.1-0.4,0-0.8,0.1-1.2c0.1-0.2,0.2-0.4,0.3-0.6c0.1-0.2,0.4-0.3,0.6-0.3c0.5,0,0.9,0.3,1.1,0.6c0.3,0.3,0.4,0.8,0.4,1.2
			c0,0.5-0.3,0.9-0.6,1.1c-0.2,0.1-0.4,0.2-0.6,0.3c-0.2,0.1-0.4,0.1-0.6,0.2c-0.8,0.2-1.7,0.1-2.5-0.1c-0.8-0.2-1.6-0.5-2.3-0.8
			c-0.7-0.3-1.4-0.6-2.2-0.8c-1.4-0.5-2.9-0.9-4.2-1.1c-0.7-0.1-1.4-0.1-2-0.2c-0.3,0-0.6,0-1,0c-0.3,0-0.6,0-0.9,0
			c-1.2,0.1-2.3,0.3-3.3,0.6c-1,0.3-1.8,0.6-2.4,0.9c-0.2,0.1-0.3,0.1-0.5,0.2c-0.1,0.1-0.3,0.1-0.4,0.2c-0.2,0.1-0.4,0.3-0.6,0.4
			c-0.3,0.2-0.5,0.3-0.5,0.3l0,0c0,0,0.2-0.1,0.5-0.4c0.2-0.1,0.3-0.3,0.6-0.4c0.1-0.1,0.2-0.2,0.4-0.2c0.1-0.1,0.3-0.2,0.4-0.2
			c0.6-0.4,1.4-0.7,2.4-1c1-0.3,2.1-0.6,3.3-0.7c0.3-0.1,0.6-0.1,0.9-0.1c0.3,0,0.7,0,1,0c0.7,0,1.4,0.1,2.1,0.2
			c1.4,0.2,2.9,0.6,4.3,1.1c0.7,0.3,1.4,0.6,2.2,0.9c0.7,0.3,1.4,0.6,2.2,0.8c0.8,0.2,1.6,0.3,2.3,0.2c0.2,0,0.4-0.1,0.6-0.2
			c0.2-0.1,0.3-0.2,0.5-0.3c0.3-0.2,0.5-0.5,0.6-0.9c0-0.4-0.1-0.8-0.3-1.1c-0.2-0.3-0.6-0.6-0.9-0.6c-0.4,0-0.6,0.4-0.8,0.7
			c-0.1,0.4-0.2,0.8-0.2,1.2c0.1,0.8,0.7,1.4,1.4,1.7c0.7,0.4,1.5,0.5,2.2,0.5c1.5,0,3-0.4,4-1.3c0.2-0.2,0.4-0.5,0.5-0.8l0.1-0.2
			c0-0.1,0-0.1,0-0.2c0-0.1,0-0.3,0-0.5c0-0.6-0.3-1.2-0.6-1.7c-0.2-0.2-0.4-0.5-0.6-0.6c-0.1-0.1-0.2-0.1-0.3-0.2
			c-0.1,0-0.2,0-0.3,0c-0.2,0-0.4,0.2-0.6,0.3c-0.1,0.1-0.2,0.2-0.2,0.3L82.4,44c0,0,0,0,0,0.1c0,0,0,0.1-0.1,0.1
			c-0.1,0.4-0.1,0.9,0,1.3c0.1,0.2,0.2,0.3,0.3,0.4c0.1,0,0.1,0.1,0.2,0.1c0.1,0,0.2,0,0.2,0c0.3-0.1,0.5-0.3,0.6-0.6
			c0.1-0.2,0.1-0.5,0-0.6c-0.1-0.2-0.2-0.2-0.3-0.2C83.3,44.5,83.3,44.6,83.3,44.5L83.3,44.5z"/>
		<path fill="#091117" d="M47.7,50.6c-0.9-0.3-1.8-0.6-2.9-0.8c-1-0.2-2.1-0.2-3.2-0.1c-0.5,0.1-1.1,0.2-1.6,0.5
			c-0.3,0.1-0.5,0.3-0.7,0.6c0,0.1-0.1,0.1-0.1,0.2c0,0.1-0.1,0.1-0.1,0.2c0,0.1,0,0.2-0.1,0.3c0,0.1,0,0.1,0,0.2
			c0,0.3,0.1,0.6,0.3,0.9c0.2,0.3,0.4,0.5,0.8,0.6c0.1,0.1,0.3,0.1,0.5,0.2c0.2,0,0.3,0.1,0.5,0.1c0.3,0,0.6,0,0.9,0
			c0.6-0.1,1.2-0.2,1.8-0.5c0.3-0.1,0.6-0.2,0.8-0.4c0.3-0.1,0.6-0.3,0.8-0.4c1.1-0.6,2.1-1.3,3.1-2c1-0.7,2-1.5,3-2.2
			c0.5-0.3,1.1-0.7,1.6-1c0.6-0.3,1.1-0.6,1.7-0.9c2.2-1.2,4.6-2.1,7-2.5c0.6-0.1,1.2-0.2,1.8-0.3c0.6,0,1.2-0.1,1.8-0.1
			c0.6,0,1.2,0,1.8,0.1c0.6,0.1,1.2,0.2,1.7,0.4c1.1,0.4,2.1,0.9,2.9,1.7c0.4,0.4,0.7,0.8,1,1.3c0.1,0.2,0.2,0.5,0.3,0.7l0.1,0.4
			l0,0.1l0,0c0,0,0,0,0,0l0,0l0,0.2c0.2,1,0.1,2.1-0.4,2.9c-0.3,0.4-0.6,0.7-1.1,0.8L71.6,52c-0.1,0-0.2,0-0.3,0.1
			c-0.2,0-0.5,0-0.7,0c-0.5,0-0.9-0.1-1.3-0.2c-0.2-0.1-0.4-0.1-0.6-0.3c-0.1,0-0.2-0.1-0.2-0.2c-0.1-0.1-0.1-0.1-0.2-0.2
			c-0.3-0.3-0.4-0.7-0.4-1.1c0-0.4,0.1-0.7,0.2-1.1l0.1-0.2l0.2-0.2c0-0.1,0.1-0.1,0.2-0.2c0.1,0,0.2-0.1,0.2-0.1
			c0.3-0.1,0.6-0.2,0.9-0.2c0.6,0,1.3,0.2,1.6,0.6c0.3,0.4,0.2,1-0.2,1.2c-0.4,0.2-0.7,0.1-1,0c-0.6-0.2-0.7-0.5-0.7-0.5l0,0
			c0,0,0,0.1,0.1,0.2c0.1,0.1,0.3,0.3,0.6,0.4c0.3,0.1,0.7,0.2,1.1,0c0.2-0.1,0.4-0.3,0.4-0.6c0-0.3,0-0.5-0.2-0.8
			c-0.4-0.5-1-0.7-1.7-0.7c-0.3,0-0.7,0-1.1,0.2c-0.1,0.1-0.2,0.1-0.2,0.2c-0.1,0-0.2,0.1-0.2,0.2L68,48.7l-0.2,0.3
			c-0.2,0.4-0.3,0.8-0.3,1.2c0,0.4,0.1,0.9,0.4,1.3c0.1,0.1,0.1,0.2,0.2,0.3c0.1,0.1,0.2,0.2,0.3,0.2c0.2,0.1,0.4,0.2,0.6,0.3
			c0.5,0.1,0.9,0.2,1.4,0.2c0.3,0,0.5,0,0.7,0c0.1,0,0.3,0,0.4-0.1c0.1,0,0.3-0.1,0.4-0.1c0.5-0.2,0.9-0.5,1.3-1
			c0.6-0.9,0.7-2.1,0.5-3.2l-0.1-0.2l0-0.1l0,0l0,0l0-0.1l-0.1-0.4c-0.1-0.3-0.2-0.5-0.4-0.8c-0.3-0.5-0.7-0.9-1.1-1.3
			c-0.9-0.8-1.9-1.4-3.1-1.7c-0.6-0.2-1.2-0.3-1.8-0.3c-0.6,0-1.2,0-1.8-0.1c-0.6,0-1.2,0.1-1.8,0.1c-0.6,0.1-1.2,0.2-1.8,0.3
			c-2.4,0.5-4.8,1.4-7.1,2.5c-0.6,0.3-1.1,0.6-1.7,0.9c-0.3,0.1-0.6,0.3-0.8,0.5c-0.3,0.2-0.5,0.3-0.8,0.5c-1.1,0.7-2.1,1.4-3.1,2.1
			c-1,0.7-2,1.4-3.1,1.9c-0.3,0.1-0.5,0.3-0.8,0.4c-0.3,0.1-0.5,0.3-0.8,0.3c-0.5,0.2-1.1,0.3-1.7,0.4c-0.6,0.1-1.1,0.1-1.6-0.1
			c-0.2-0.1-0.4-0.3-0.5-0.5c-0.1-0.2-0.2-0.5-0.2-0.7c0-0.1,0-0.1,0-0.2c0,0,0-0.1,0-0.1c0,0,0-0.1,0.1-0.1l0.1-0.1
			c0.2-0.2,0.3-0.3,0.6-0.4c0.5-0.2,1-0.4,1.5-0.4c2.1-0.3,3.8,0.1,5.6,0.7L47.7,50.6z"/>
	</g>
	<path fill-rule="evenodd" clip-rule="evenodd" fill="#091117" d="M93.4,46.4c-2.4-0.5-4.7,0.8-5.2,2.7c-0.5,1.9,0.5,4,2.8,4.7
		c1.4,0.4,3-0.2,3.7-1.5c0.7-1.3-0.3-3-1.9-3.4c-0.3-0.1-0.5-0.1-0.7,0c0.8,0,1.4,0.6,1.4,1.3c0,0.7-0.6,1.3-1.4,1.3
		c-0.8,0-1.4-0.6-1.4-1.3c0-0.2,0.1-0.4,0.2-0.6c0.3-0.7,1.1-1.2,2-1c1.7,0.4,2.7,1.9,2.2,3.4c-0.5,1.5-2.2,2.3-4,2.1
		c-2.5-0.3-4.3-3.2-3.2-5.6c1.1-2.4,3.3-3.3,5.9-2.7c3.4,0.7,5.2,4,4.4,6.9c-0.7,2.4-2.8,4.1-6.1,4.3c-7.7,0.6-10.4-9.2-19.2-8.5
		c10.5-0.9,12.1,9.3,20.6,8.2c2.1-0.5,3.6-1.7,4.2-3.7C98.5,50,96.6,47.1,93.4,46.4z"/>
	<path fill-rule="evenodd" clip-rule="evenodd" fill="#091117" d="M7.5,46.4c2.4-0.5,4.7,0.8,5.2,2.7c0.5,1.9-0.5,4-2.8,4.7
		c-1.4,0.4-3-0.2-3.7-1.5c-0.7-1.3,0.3-3,1.9-3.4c0.3-0.1,0.5-0.1,0.7,0c-0.8,0-1.4,0.6-1.4,1.3c0,0.7,0.6,1.3,1.4,1.3
		c0.8,0,1.4-0.6,1.4-1.3c0-0.2-0.1-0.4-0.2-0.6c-0.3-0.7-1.1-1.2-2-1c-1.7,0.4-2.7,1.9-2.2,3.4c0.5,1.5,2.2,2.3,4,2.1
		c2.5-0.3,4.3-3.2,3.2-5.6c-1.1-2.4-3.3-3.3-5.9-2.7c-3.4,0.7-5.2,4-4.4,6.9c0.7,2.4,2.8,4.1,6.1,4.3c7.7,0.6,10.4-9.2,19.2-8.5
		C17.6,47.6,16,57.8,7.5,56.7C5.4,56.2,3.9,55,3.3,53C2.4,50,4.2,47.1,7.5,46.4z"/>
</g>
</svg>
