<?xml version="1.0" encoding="utf-8"?>
<!-- Generator: Adobe Illustrator 18.1.0, SVG Export Plug-In . SVG Version: 6.00 Build 0)  -->
<svg version="1.1" id="Layer_1" xmlns="http://www.w3.org/2000/svg" xmlns:xlink="http://www.w3.org/1999/xlink" x="0px" y="0px"
	 viewBox="0 0 100 100" enable-background="new 0 0 100 100" xml:space="preserve">
<g>
	<path fill-rule="evenodd" clip-rule="evenodd" fill="#091117" d="M54.2,60.5c-7.9,11.4-4,16.7-1.1,27.6c2.6,9.7,5.8,13.1,0.9-1
		c-2.1-6-4.9-10.3-3-17.2c2.4-6.5,5.4-7.1,8.1-7.5c-3.5-0.1-6,2.2-7.3,5.2c0.3-0.7,0.6-1.5,1-2.2c3.3-6.2,10.1-11,17.2-10.8
		c1.9,0.1,3.8,0.5,5.7,1.4c5.4,2.6,9,9.3,6.3,15.4c-1.5,3.3-5.1,5.7-8.7,5.2c-3.1-0.4-5.9-3-6.3-6.2c-0.3-2.3,0.9-4.9,2.9-6.1
		c2-1.2,5.3-0.6,5.9,1.8c0.4,1.5-0.6,2.9-1.8,2.8c0.8-0.9-0.1-1.9-1.1-1.8c-1,0.1-1.4,1.3-1,2.2c0.9,1.8,3.6,1.2,4.6-0.2
		c0.8-1.2,0.8-2.4,0.3-3.4c-1.3-2.8-4.9-3.4-7.3-2c-2.4,1.4-3.6,4.2-3.2,6.9c0.5,3.6,3.4,6.6,7.1,7c3.8,0.3,7.6-2.3,9.4-5.8
		c3.3-6.8-0.7-13.8-6.8-16.6c-1.1-0.5-2.3-0.9-3.4-1.1c3.8-0.2,7.4-2.3,9.7-5.6c0.9-1.2,1.5-2.6,1.9-4c1-0.5,2-0.6,3-0.7
		c-1.1-0.1-2.1,0.2-3,0.6c0.2-0.7,0.3-1.4,0.3-2.1l0-1.4c-0.1-2.3-0.8-4.6-2-6.4l-0.9-1.2c-2.3-2.6-5.7-4.2-9.8-3.4
		c-4.3,0.8-7.5,4.6-6.3,8.9c0.6,2.3,2.6,4.3,4.9,4.6c2.2,0.2,4.3-1.2,5-3.3c0.5-1.5,0.2-3.4-1.1-4.5c-1.3-1.1-3.5-1.2-4.6,0.3
		c-0.4,0.6-0.5,1.3-0.2,2.1c0.4,1,1.9,1.6,2.7,0.7c0.4-0.5,0.3-1.2-0.3-1.4c-0.6-0.2-1.2,0.3-0.9,0.9c-0.7,0-1.1-1-0.7-1.9
		c0.6-1.4,2.7-1.4,3.8-0.4c1,1,1.4,2.7,1,4c-0.6,1.8-2.6,3-4.5,2.9c-2.2-0.2-4.1-2-4.6-4.2c-0.9-3.8,2.4-7.6,6.3-8.2
		c8.7-1.4,13.1,7.6,10.8,14.6c-1.5,1.1-2.6,2.8-3.2,4.5L79.3,50c-2.7,2.4-6.1,3.6-9.7,3.6c-3.9,0-7.8,1.3-11,3.4
		c-1.2,0.8-2.3,1.7-3.2,2.8c2.5-4.8,5.6-9.1,9.5-10.8c-2.6,0.7-4.9,3-6.9,5.9c1.1-2.3,2.1-4.8,2.7-7.6c1.3-5.5,1.1-11.4-1.4-16.5
		c-2.5-5-7.7-8.8-6.1-15.2c1.4-5.3,8.4-7.4,12.9-5c2.9,1.5,4.3,4.3,4.2,7.5c-0.1,3.1-1.7,5.8-4.3,7.1c-2.8,1.4-6.9,1.1-8.6-1.8
		c-0.6-1.1-1-2.6,0-3.6c0.8-0.7,2.1-0.9,2.9-0.1c0.6,0.6,0.7,1.7-0.1,2.3c-0.6,0.5-1.7,0.4-2-0.4c-0.1-0.4,0-0.9,0.4-1
		c0.2-0.1,0.5,0,0.5,0.3C59,20.7,58.9,21,59,21.2c0.1,0.2,0.4,0.2,0.5,0.1c0.2-0.2,0.1-0.5,0-0.7c-0.2-0.3-0.7-0.3-1-0.1
		c-0.4,0.3-0.5,0.8-0.3,1.2c0.4,0.9,1.5,1,2.3,0.4c0.9-0.7,0.8-1.9,0-2.6c-0.9-0.8-2.3-0.6-3.1,0.2c-1.1,1-0.7,2.7,0,3.8
		c1.8,3.1,6.2,3.3,9,1.8c2.7-1.4,4.3-4.2,4.4-7.4c0.1-3.1-1.4-6.1-4.2-7.7c-4.9-2.7-12.1-0.5-13.6,5.1c-0.1,0.5-0.2,1.1-0.3,1.6
		c-0.2-2.7-1-5.6-3.8-7.3c-2.1-1.3-5.3-1-6.8,1.2c-1,1.4-1,3.6,0.5,4.7c0.9,0.7,2.4,0.9,3.3,0.1c1.1-1,1.1-3.1-0.5-3.6
		c-0.9-0.3-2.1,0.3-2,1.4c0,0.3,0.2,0.6,0.5,0.8c0.4,0.2,1.1,0.1,1.1-0.5c0-0.3-0.2-0.5-0.5-0.4c-0.3,0.1-0.3,0.4,0,0.6
		c-0.3,0.2-0.7-0.1-0.8-0.5c-0.1-0.7,0.6-1.2,1.2-1.2c1.6,0.1,2,2.2,0.9,3.2c-0.8,0.8-2.2,0.7-3,0c-1.2-1-1.2-3-0.3-4.2
		c1.4-1.9,4.1-2.2,6.1-1.1c3.5,2,3.6,5.7,4.2,9.3l0,0c0.6,4.6,4.4,8.2,6.5,12.4c1.9,4,2.5,9.7,1.4,14.5c1.2-7.9-0.9-16-7.1-20.6
		c-2.8-2.1-5.7-3-8.7-3.4c-4.8-1.1-5.5-3-6.2-4.9c0.4,2.5,2.6,4.2,5,4.8c-1.6-0.1-3.2-0.1-4.9,0c-7.4,0.5-16.8-1.6-16.1-10.7
		c0.3-3.7,3.7-7.1,7.4-6.4C32,5.3,33.8,7,34.1,9c0.2,1.8-0.8,3.8-2.5,4.5c-1.3,0.5-2.9,0.2-3.9-0.7c-1-0.9-1.1-2.9,0.2-3.6
		c0.8-0.4,1.7-0.1,1.8,0.6c-0.7-0.3-1.4,0.1-1.6,0.6c-0.2,0.6,0,1.5,0.5,2c1.3,1.1,3.1,0.4,3.7-0.9c1.2-2.6-2.3-4.9-4.8-2.9
		c-1.4,1.1-1.1,3.3,0,4.4c1.1,1.1,2.9,1.4,4.3,0.8c1.9-0.8,3.2-2.9,2.8-5C34.2,6.7,32.2,5,30,4.5c-4.1-0.8-7.5,2.4-8.1,6.5
		c-1.2,8,5.7,12.4,16.7,11.8c-2.2,0.8-4.6,2.4-6.2,4.1c-3.2,3.6-4.4,8.7-1.5,14c3.6,5.3,10.7,6.2,15.3,1.9c1.6-1.5,2.7-3.4,2.9-5.6
		c0.2-3.3-1.4-5.8-3.7-6.8c-3-2-9.7-0.1-9.3,4.9c0.1,1.1,1.3,3.3,2.3,3.6c1,0.6,2.2,0.6,3.2,0.4c1.4-0.2,2.8-1.7,2.4-3.3
		c-0.4-1.7-2.5-2.9-4-1c-1-1.6-0.2-2.9,1.2-3.6c3.4-1.6,7.1,1.1,7.2,4.8c0.1,2.4-1.1,4.5-2.8,6.1c-4,3.7-11,2.7-14.1-2.1
		c-2.9-4.5-1.8-9.2,1.2-12.7c7.9-9,21.8-3.8,25.8,6.4C62.7,44,59.7,52.5,54.2,60.5L54.2,60.5z M53.2,61.1c3.1-4.5,3.9-12.9-3.3-15.5
		c-2.9-1.1-7.3,0.8-8.4,3.9c-1.5,4.1,2.2,7.4,6.3,6.3c1.4-0.4,2.6,0.3,3,1.7c1-2.8-2-4.1-4-3.1c1.5-1.1,0.8-3.8-0.7-4.1
		c1.9,2.3-1.3,5.4-3.6,3.2c-1.1-1.1-1.2-2.5-0.7-3.9c1.2-2.9,4.9-4.6,8-3.8C55.8,47.4,56.5,55.9,53.2,61.1L53.2,61.1z M47.5,44.8
		c-2.5-0.2-4.3,0.7-6.1,2.4c-1.1,1.1-2.2,2.8-3.9,2.9c-1.6,0.2-2.7-1.3-1.9-2.7c-2.5,2.7,1,5.8,3.7,3.6c-0.8,1.4,0.5,3.5,2.8,3.8
		C38.7,52.1,41.6,45.8,47.5,44.8L47.5,44.8z M77,54.6c3.2-3.9,5.9-1.1,8.4-2.3c-0.4,1-0.9,1.5-1.7,1.5c1.8,1.6,1,4.2-1.9,4.5
		c2.2-1.1,0.6-2.8,0.6-2.8c-0.1,0.5-0.7,1.3-1.6,1.3C82.1,55.7,80.8,52.2,77,54.6L77,54.6z M83.9,56.8c0.5-2.9-3.3-4.7-5.7-3.1
		C80.5,51.8,85,53.8,83.9,56.8L83.9,56.8z M58.6,62.6c2.2-0.3,4.4,0.3,5.4,1.7c-0.5-1.6-2.7-2.2-4.8-2.1c2.2-1.3,6.1-0.5,5.7,4
		C63.1,64.5,61.7,66.4,58.6,62.6L58.6,62.6z M59.2,43.7c1.4-4.8-2.4-5.5-2.9-8.3c-0.6,0.9-0.7,1.6-0.3,2.3c-2.3-0.5-4,1.6-2.6,4.1
		c-0.4-2.4,1.9-2.1,1.9-2.1c-0.4,0.3-0.7,1.3-0.2,2C55.4,40.1,59,39.3,59.2,43.7L59.2,43.7z M53.5,39.3c2.1-2,5.7,0,5.8,2.9
		C59.5,39.3,55.3,36.7,53.5,39.3L53.5,39.3z M32.9,37.6c-0.9-2.3-1.8-4.7,2.3-9.8l-0.6,0.6C32.3,30.8,31.1,34.6,32.9,37.6L32.9,37.6
		z M33.1,37.5c0.7,1.9,2.2,3.4,3.8,3.6c-1.5,0.3-2.9-1.2-3.8-3c-0.1,2.4,2.3,5.1,5.7,2.8C36.8,40.2,37.5,38.3,33.1,37.5L33.1,37.5z
		 M68.7,17.2c-0.3-2.7-3.3-6.4-9.2-5.3C64,10.3,68.8,13.6,68.7,17.2L68.7,17.2z M68.5,16.7c0.3,2-0.2,4-1.5,5
		c1.4-0.5,1.9-2.5,1.8-4.5c1.4,1.7,0.7,5.2-3.5,5.3c-0.1-1.2-0.9-3.3,0.7-4.2C66.7,18,67.7,17.9,68.5,16.7L68.5,16.7z M38.7,17.5
		c-0.6-1.7-0.4-3.4,0.5-4.4c-1.1,0.6-1.3,2.4-0.9,4c-1.4-1.5-1.3-4.7,2.2-5C39.6,13.7,41.2,14.5,38.7,17.5L38.7,17.5z M79.4,50
		c1.1-2.5,2.2-3.9,3.3-4.8c-0.3,0.8-0.7,1.6-1.2,2.4C80.9,48.5,80.1,49.3,79.4,50L79.4,50z M86.5,43.9c2-0.2,4,0.4,4.9,1.8
		C91,44.1,89,43.6,87,43.5c2-1.2,5.6-0.2,5.1,3.9C90.6,45.9,89.2,47.5,86.5,43.9L86.5,43.9z M53.2,13c-3.3-3.7-0.2-6-1-8.7
		c0.9,0.5,1.3,1.1,1.3,1.9c1.9-1.5,4.3-0.4,4.2,2.5c-0.7-2.3-2.6-1-2.6-1c0.5,0.1,1.2,0.9,1,1.7C55,8.1,51.4,8.9,53.2,13L53.2,13z
		 M56.4,6.5c-2.8-0.9-5.1,2.5-4,5.2C50.9,9.1,53.6,5,56.4,6.5L56.4,6.5z M65.3,49.4c2.1-1.8,4.9-2.6,6.9-1.8c-1.6-1.3-4.3-0.5-6.5,1
		c1.4-2.9,6.2-4.6,8.7,0.4C71.5,48.6,71.2,51.4,65.3,49.4L65.3,49.4z M56.2,86.6c-4.6-3.9-7.7-12.4-1-17.2c2.8-2,7.9-1.2,10,1.7
		c2.8,3.9-0.2,8.4-4.8,8.4c-1.6,0-2.6,1.1-2.6,2.6c-1.8-2.6,0.9-4.8,3.3-4.4c-1.9-0.7-1.9-3.7-0.5-4.4c-1.3,2.9,2.9,5.4,4.7,2.3
		c0.9-1.5,0.5-3-0.4-4.3c-2.1-2.7-6.4-3.4-9.4-1.7C49.6,72.9,51.3,82.1,56.2,86.6L56.2,86.6z M34.9,23.9c-2.1-0.3-2.8,3.2-4.8,3.7
		c-1.6,4.1-5.5,7.6-10.8,5.9c-2.8-0.9-4.9-5-3.9-7.9c1.3-4,6-4.2,8.4-0.9c0.8,1.1,2.1,1.3,3.2,0.5c-0.9,2.6-3.9,1.8-4.9-0.1
		c0.4,1.7-1.6,3.3-2.9,2.6c2.7-0.6,2.3-4.8-0.8-4.5c-1.5,0.1-2.4,1.1-2.8,2.5c-0.8,2.9,0.9,6.3,3.6,7.5c4.2,1.9,8.5-1.3,10.5-5.5
		c-0.5,0.1-0.9,0-1.6-0.3c-1-0.5-1.2-1.5-0.7-2.3c0.6-0.8,2-0.5,1.7,0.6c0-0.9-0.9-1.1-1.2-0.3c-0.3,0.9,0.8,1.4,1.5,1.1
		c0.4-0.2,0.9-0.8,1.3-1.7v-0.1c-0.6,0.2-1.1-0.1-1.6-0.6C31,24.4,31.9,22.3,34.9,23.9L34.9,23.9z M16.7,32.2
		c-1.9-1.3-2.8-3.1-3-5.4c-0.2-1.5,0-3.4-1.1-4.5c-1.1-1-2.8-0.6-3,0.8c-0.2-3.5,4.2-3.7,4.9-0.5c0.2-1.5,2.4-2.3,4.3-1.1
		C14.5,21.6,12.9,28,16.7,32.2L16.7,32.2z"/>
</g>
</svg>
