<?xml version="1.0" encoding="utf-8"?>
<!-- Generator: Adobe Illustrator 18.1.0, SVG Export Plug-In . SVG Version: 6.00 Build 0)  -->
<svg version="1.1" id="Layer_1" xmlns="http://www.w3.org/2000/svg" xmlns:xlink="http://www.w3.org/1999/xlink" x="0px" y="0px"
	 viewBox="0 0 100 100" enable-background="new 0 0 100 100" xml:space="preserve">
<g>
	<path fill="#091117" d="M4.3,50.3c0.2,0.7,0.6,1.2,1.3,1.8l0.1,0.1c0.2,0.2,0.4,0.4,0.8,0.5c0.3,0.1,0.6,0.2,0.9,0.2
		c0.1,0,0.2,0,0.3,0c0.3,0,0.5,0.1,0.8,0.1c1.1,0,1.9-0.4,2.4-1.2c0.2-0.4,0.4-1,0.1-1.4c-0.1-0.2-0.4-0.4-0.7-0.4
		c-0.1,0-0.2,0-0.3,0c-0.3,0-0.5,0.1-0.7,0.2c-0.3,0.4-0.2,1.1,0,1.7l0.1,0.2l-0.3,0c-0.1,0-0.2,0-0.3,0c-0.8,0-1.6-0.3-2.2-0.9
		c-0.6-0.6-1-1.4-0.9-2.1c0.1-1,0.9-1.9,2.2-2.4c1.4-0.6,3-0.8,5-0.8c1,0,2.1,0.1,3.4,0.2l0.4,0l-0.2,0.3c-1.1,1.5-1.2,3.3-0.3,4.9
		c1,1.7,3,2.8,5.3,3c0.5,0,0.5,0.4,0.6,0.6c0,0.1,0,0.1,0,0.2c0.1,0.2,0.1,0.4,0.2,0.6c0.2,0.4,0.4,0.7,0.7,1
		c0.5,0.6,1.3,1.2,2.1,1.6c1.3,0.6,2.8,0.9,4.5,0.9c0.6,0,1.3,0,2-0.1l0.3,0l0,0.2c0.2,1.5,0.7,3.5,2.3,5c1.1,1,2.7,1.6,4.5,1.6
		c0.4,0,0.8,0,1.3-0.1c0.1,0,0.2,0,0.3-0.1c0.2,0,0.3-0.1,0.5-0.1c0.2,0,0.3,0,0.4,0.1l0,0l0,0c0.3,0.3,2,2,4.2,3.4l0.1,0.1l0,0.1
		c0,0.5,0,0.9,0.1,1.3c0.6,2.2,2.1,3.4,4.6,3.5c0,0,0,0,0.1,0c0,0,0,0,0.1,0l0,0c2.5-0.1,4-1.2,4.6-3.5c0.1-0.4,0.1-0.8,0.1-1.3
		l0-0.1l0.1-0.1c2.2-1.4,3.9-3.1,4.2-3.4l0,0l0,0c0.1-0.1,0.3-0.1,0.4-0.1c0.2,0,0.3,0,0.5,0.1c0.1,0,0.2,0,0.3,0.1
		c0.4,0.1,0.8,0.1,1.3,0.1c1.8,0,3.3-0.5,4.5-1.6c1.7-1.5,2.2-3.5,2.3-5l0-0.2l0.3,0c0.7,0.1,1.4,0.1,2,0.1c1.7,0,3.2-0.3,4.5-0.9
		c0.9-0.4,1.6-1,2.2-1.6c0.3-0.3,0.5-0.7,0.7-1c0.1-0.2,0.2-0.4,0.2-0.6c0-0.1,0-0.1,0-0.2c0-0.2,0.1-0.6,0.6-0.6
		c2.3-0.1,4.3-1.3,5.3-3c1-1.6,0.8-3.4-0.3-4.9L84,46.1l0.4,0c1.3-0.1,2.4-0.2,3.4-0.2c2,0,3.6,0.3,5,0.8c1.3,0.5,2.1,1.4,2.2,2.4
		c0.1,0.7-0.2,1.5-0.9,2.1c-0.6,0.6-1.4,0.9-2.2,0.9c-0.1,0-0.2,0-0.3,0l-0.3,0l0.1-0.2c0.2-0.5,0.3-1.3,0-1.7
		c-0.1-0.2-0.4-0.2-0.7-0.2c-0.1,0-0.2,0-0.3,0c-0.3,0-0.6,0.2-0.7,0.4c-0.3,0.4-0.1,1,0.1,1.4c0.5,0.8,1.3,1.2,2.4,1.2
		c0.2,0,0.5,0,0.8-0.1c0.1,0,0.2,0,0.3,0c0.3-0.1,0.6-0.1,0.9-0.2c0.4-0.2,0.6-0.3,0.8-0.5l0.1-0.1c0.7-0.6,1.1-1.1,1.3-1.8
		c0.2-0.8,0.1-1.6-0.4-2.3c-0.8-1-2.4-1.8-4.3-2.2c-1.1-0.2-2.2-0.3-3.5-0.3l-0.2,0l0,0c-0.2,0-0.6-0.1-1.5-0.1
		c-0.9,0-2,0.1-3.2,0.3l-0.1,0l-0.1,0c-0.3-0.1-0.5-0.3-0.8-0.5c-0.1-0.1-0.2-0.1-0.3-0.2c-1.9-1.3-4.7-1.5-6.3-1.5
		c-0.2,0-0.4,0-0.7,0c-0.1,0-0.2,0-0.3,0l-0.2,0l0-0.1c-1,0.1-2.4,0.4-4.4,0.8l-0.1,0l-0.1,0c-0.1,0-0.2-0.1-0.3-0.1
		c-0.7-0.2-1.4-0.3-2.2-0.4c-1-0.1-2-0.2-3.1-0.2c-2,0-3.9,0.2-5.7,0.4c-0.1,0-0.3,0-0.5,0.1c-0.3,0.1-0.7,0.1-1.1,0.1
		c-0.3,0-0.6-0.1-0.7-0.2c-0.6-0.3-1.2-0.6-1.7-0.8l-0.3-0.1c-1.1-0.4-2.2-0.9-3.1-1.6l-0.3-0.2l0.3-0.1c1.6-0.6,3.1-1.4,4.6-2.2
		c1.9-1,3.9-2.1,6.2-2.6c1-0.2,1.9-0.4,2.8-0.4c0.7,0,1.4,0.1,2.1,0.3c0.8,0.2,1.4,0.6,1.6,1.1c0.2,0.5,0.1,1.1-0.4,1.6l-0.1,0.2
		l-0.2-0.1c-0.1,0-0.2-0.1-0.4-0.3c-0.3-0.2-0.8-0.6-1.3-0.6c-0.2,0-0.5,0.1-0.7,0.3c0,0.4,0.1,1.4,1.1,1.5c0.1,0,0.2,0,0.3,0
		c0.6,0,1.4-0.3,1.9-0.7c0.7-0.6,0.8-1.5,0.3-2.2c-0.7-1-2.2-1.4-3-1.5c-0.4-0.1-0.9-0.1-1.3-0.1c-2.5,0-4.9,0.9-7.3,1.8
		c-1,0.4-1.9,0.8-2.8,1.2c-1.4,0.7-2.9,1.4-4.5,1.9l-0.1,0l-0.1,0c-1.6-0.5-3.1-1.2-4.5-1.9c-0.9-0.4-1.9-0.9-2.8-1.2
		c-2.3-0.9-4.8-1.8-7.3-1.8c-0.4,0-0.9,0-1.3,0.1c-0.9,0.1-2.4,0.5-3,1.5c-0.5,0.8-0.4,1.6,0.3,2.2c0.5,0.5,1.2,0.7,1.9,0.7
		c0.1,0,0.2,0,0.3,0c1-0.1,1.1-1.1,1.1-1.5c-0.2-0.2-0.4-0.3-0.7-0.3c-0.5,0-1,0.4-1.3,0.6c-0.2,0.1-0.3,0.2-0.4,0.3l-0.2,0.1
		L32.3,39c-0.4-0.6-0.6-1.1-0.4-1.6c0.2-0.5,0.8-0.9,1.6-1.1c0.6-0.2,1.3-0.3,2.1-0.3c0.9,0,1.8,0.1,2.8,0.4
		c2.3,0.6,4.3,1.6,6.2,2.6c1.5,0.8,3,1.6,4.6,2.2l0.3,0.1l-0.3,0.2c-0.9,0.7-2,1.2-3.1,1.6l-0.3,0.1c-0.5,0.2-1.1,0.5-1.7,0.8
		c-0.2,0.1-0.4,0.2-0.7,0.2c-0.4,0-0.7-0.1-1.1-0.1c-0.2,0-0.3-0.1-0.5-0.1c-1.8-0.2-3.8-0.4-5.7-0.4c-1.1,0-2.1,0.1-3.1,0.2
		c-0.8,0.1-1.5,0.2-2.2,0.4c-0.1,0-0.2,0-0.2,0.1l-0.1,0l-0.1,0l-0.1,0c-0.7-0.2-1.4-0.3-2-0.4c-0.9-0.2-1.8-0.3-2.8-0.4
		c-0.2,0-0.4,0-0.7,0c-1.5,0-4.4,0.2-6.3,1.5c-0.1,0.1-0.2,0.1-0.3,0.2c-0.3,0.2-0.6,0.4-1,0.6l-0.1,0l-0.1,0
		c-0.9-0.1-1.7-0.2-2.4-0.2c-0.3,0-0.6,0-0.8,0l0,0l0,0l-0.1,0c-0.1,0-0.1,0-0.2,0c-0.3,0-0.7,0-1,0c-1.3,0-2.5,0.1-3.6,0.3
		C7.1,46.2,5.5,47,4.7,48C4.2,48.7,4.1,49.4,4.3,50.3z M32,57.8l0,0.1l-0.2,0c-0.5,0.1-1.1,0.1-1.6,0.1c-3.7,0-6.3-1.5-6.7-3.7
		l0-0.2l0.3,0c2.9-0.2,6-1.2,9.3-2.8l0.1,0l0.1,0c0.4,0.1,0.8,0.3,1.2,0.4c0.5,0.2,0.9,0.3,1.4,0.4l0.4,0.1l-0.2,0.3
		c-0.4,0.4-0.8,0.9-1.2,1.3C33.6,55,32.4,56.2,32,57.8z M23.5,52.7l0-0.3c0.2-1.4,0.9-2.7,2-3.9l0.1-0.1l0.2,0.1c0,0,0.1,0,0.2,0.1
		c0.8,0.2,1.5,0.5,2.2,0.8c1,0.4,2,0.8,3.1,1l0.7,0.1l-0.7,0.3c-3.6,1.4-6.2,1.8-7.4,1.9L23.5,52.7z M64.2,51.9l-0.1-0.1
		c-0.8-0.5-1.7-1-2.6-1.4C60.7,50,59.8,49.5,59,49l-0.4-0.2l0.4-0.1c0.8-0.3,1.6-0.6,2.6-0.9l0.1,0l0.1,0.1c0.6,0.4,2.2,1.6,4.4,2.8
		l0.4,0.2L66.3,51c-0.7,0.3-1.3,0.6-2,0.9L64.2,51.9z M66.9,57.4l0.2,0.5l-0.6-0.2c-0.6-0.3-1.3-0.5-2-0.8c-1.6-0.6-3.3-1.3-4.8-2
		l-0.3-0.2l0.3-0.2c0.8-0.4,1.6-0.8,2.4-1.1c0.3-0.1,0.7-0.2,1.1-0.3l0.1,0l0.1,0.1C65.1,54.5,66.2,55.9,66.9,57.4z M62.6,52.3
		l0.3,0.2l-0.3,0.1c-0.8,0.4-1.7,0.8-2.8,1.3l0,0l0,0c-0.4,0.2-0.8,0.3-1.2,0.3l-0.1,0l-0.1-0.1c-0.8-0.5-1.9-1-2.8-1.4
		c-0.9-0.4-1.8-0.8-2.6-1.2l-0.3-0.2l0.2-0.2c0.6-0.4,2.1-1.1,4.5-2l0.1,0l0.1,0C59.5,50.2,61.1,51.2,62.6,52.3z M57.7,54.6
		l-0.3,0.2c-0.7,0.5-1.4,1-2.1,1.3c-1.5,0.8-3.1,1.6-4.7,2.4l-0.1,0.1l-0.1-0.1c-2.1-1.1-4.2-2.2-6.2-3.2l0,0l0,0L44,55.3
		c-0.2-0.1-0.4-0.3-0.6-0.4l-0.3-0.2l0.3-0.1c1.2-0.5,2.4-1,3.6-1.5l0.8-0.3c0.7-0.3,1.5-0.7,2.3-1c0.1,0,0.1,0,0.1-0.1l0.2-0.2
		l0.2,0.2c0,0,0.1,0,0.1,0.1c0.8,0.3,1.6,0.7,2.3,1l0.8,0.3c1.2,0.5,2.4,1.1,3.6,1.5L57.7,54.6z M55.3,48.8
		c-2.6,0.9-4.5,1.5-4.8,1.6l-0.1,0l-0.1,0c-0.9-0.3-2.6-0.9-4.9-1.6l-0.5-0.2l0.5-0.2c2.5-1,4.5-1.5,4.9-1.6l0.1,0l0.1,0
		c0.2,0.1,2.3,0.6,4.9,1.6l0.5,0.2L55.3,48.8z M48,51.2l0.3,0.2L48,51.5c-0.8,0.5-1.8,0.9-2.8,1.3c-1,0.4-2,0.8-2.8,1.4l-0.1,0.1
		l-0.1,0c-0.2,0-0.4-0.1-0.5-0.1l0,0l0,0c-1.1-0.5-2.3-1.1-3.3-1.6L38,52.4l0.3-0.2c1.4-1.1,3.1-2.1,5-3l0.1,0l0.1,0
		C45.7,50.1,47.2,50.7,48,51.2z M41.3,54.7l-0.3,0.2c-1.5,0.8-3.2,1.4-4.8,2c-0.6,0.2-1.3,0.5-2,0.8l-0.6,0.2l0.2-0.5
		c0.7-1.5,1.8-2.9,3.3-4.2l0.1-0.1l0.1,0c0.4,0.1,0.8,0.2,1.1,0.3c0.8,0.3,1.6,0.6,2.4,1.1L41.3,54.7z M41.7,49
		c-0.8,0.5-1.7,1-2.5,1.4c-0.8,0.4-1.7,0.9-2.5,1.3l-0.1,0.1l-0.1-0.1c-0.7-0.3-1.3-0.6-2-0.8l-0.4-0.2l0.4-0.2
		c2.3-1.2,3.9-2.4,4.3-2.7l0.1-0.1l0.1,0c0.9,0.3,1.8,0.6,2.6,0.9l0.4,0.1L41.7,49z M42.4,63.9l-0.2,0l-0.1-0.2
		c-0.3-1.2-0.1-3.4,0.9-4.5c0.3-0.4,0.8-0.5,1.2-0.5c0.1,0,0.1,0,0.2,0c0.7,0.1,1.1,0.5,1.1,1.2C45.6,61.4,43.9,63.7,42.4,63.9z
		 M45.7,67.4l-0.1,0.3l-0.3-0.2c-0.8-0.5-1.4-1-1.9-1.6l0,0l0,0c-0.2-0.9,0.4-1.4,1-1.8c0.1-0.1,0.2-0.1,0.2-0.2
		c1.2-0.9,2-2.4,1.8-3.7c-0.1-0.5-0.3-1.2-1.2-1.6c-0.3-0.1-0.7-0.1-1-0.1c-1.3,0-2.2,0.7-2.7,1.4c-1.1,1.3-1.4,3.3-0.7,4.7l0.1,0.2
		l-0.3,0.1c-0.5,0.1-1.1,0.2-1.6,0.2c-2,0-3.6-1-4.6-2.9c-0.3-0.5-0.5-1.1-0.7-1.7c-0.1-0.3-0.1-0.5-0.2-0.8c0,0,0-0.1,0-0.1
		c-0.1-0.3,0-0.4,0.4-0.5c0.2-0.1,0.3-0.1,0.5-0.2c1.7-0.7,3.4-1.5,5-2.3l0.1,0l0.6-0.3l0.9-0.4c0.3-0.1,0.5-0.2,0.8-0.4l0.1-0.1
		l0.1,0.1c0.1,0.1,0.3,0.1,0.4,0.2l0.1,0c0.8,0.4,1.6,0.8,2.3,1.1c1.6,0.9,2.9,1.8,4.1,2.7c0.2,0.2,0.4,0.3,0.5,0.5
		c0.3,0.3,0.2,0.5,0.1,0.7c0,0-0.1,0.1-0.1,0.1c-0.2,0.2-0.3,0.5-0.5,0.7l-0.1,0.2l-0.1,0.1c-0.4,0.6-0.7,1.2-1.1,1.8
		C46.7,64.9,46.1,66.1,45.7,67.4z M50.3,71L50.3,71h0.1l0,0c1,0,1.5-0.1,2.4-0.5l0.4-0.2l0,0.3c0,0.6-0.3,1.3-0.8,1.7
		c-0.6,0.5-2.2,1.4-4.1-0.1c-0.5-0.5-0.8-1.1-0.8-1.7l0-0.3l0.4,0.2C48.8,70.8,49.2,70.9,50.3,71L50.3,71L50.3,71z M53.3,68.5
		c-1.5,0.8-2.8,0.9-2.9,0.9l0,0l0,0c-0.1,0-1.4-0.1-2.9-0.9l-0.1-0.1l0-0.1l0-0.2c0-0.3,0-0.5,0.1-0.8c0.3-1.8,0.9-3.5,1.8-4.9
		c0.2-0.4,0.5-0.7,0.8-1.1c0.1-0.1,0.1-0.2,0.1-0.3l0.2-0.7l0.2,0.7c0,0.1,0.1,0.2,0.1,0.3c0.3,0.4,0.5,0.7,0.8,1.1
		c0.9,1.5,1.6,3.1,1.8,4.9c0,0.3,0.1,0.5,0.1,0.8l0,0.2l0,0.1L53.3,68.5z M58.7,63.8l0,0.2l-0.2,0c-1.5-0.3-3.2-2.6-3.2-4
		c0-0.7,0.4-1.1,1.1-1.2c0.1,0,0.2,0,0.2,0c0.5,0,0.9,0.2,1.2,0.5C58.8,60.4,58.9,62.6,58.7,63.8z M67.2,59.4c0,0,0,0.1,0,0.1
		c-0.1,0.3-0.1,0.5-0.2,0.8c-0.2,0.6-0.4,1.2-0.7,1.7c-1,1.8-2.7,2.9-4.6,2.9c-0.5,0-1.1-0.1-1.6-0.2l-0.3-0.1l0.1-0.2
		c0.7-1.4,0.4-3.3-0.7-4.7c-0.5-0.6-1.4-1.4-2.7-1.4c-0.3,0-0.7,0-1,0.1c-0.8,0.4-1.1,1.1-1.2,1.7c-0.2,1.3,0.6,2.8,1.8,3.7
		c0.1,0.1,0.2,0.1,0.2,0.2c0.6,0.5,1.2,0.9,1,1.8l0,0l0,0c-0.5,0.6-1.1,1.1-1.9,1.6l-0.3,0.2l-0.1-0.3c-0.4-1.2-1-2.5-1.9-3.9
		c-0.4-0.6-0.7-1.2-1.1-1.8L52,61.5l-0.2-0.3c-0.1-0.2-0.3-0.5-0.4-0.7c0-0.1-0.1-0.1-0.1-0.1c-0.1-0.2-0.2-0.4,0.1-0.7
		c0.2-0.2,0.4-0.3,0.5-0.5c1.1-0.9,2.4-1.8,4.1-2.7c0.7-0.4,1.4-0.7,2.3-1.1l0,0c0.1-0.1,0.3-0.1,0.4-0.2l0.1-0.1l0.1,0.1
		c0.3,0.1,0.5,0.2,0.8,0.4l1,0.5l0.5,0.2l0.1,0c1.6,0.8,3.3,1.6,5,2.3l0.1,0c0.2,0.1,0.3,0.1,0.5,0.2C67.2,59,67.3,59.1,67.2,59.4z
		 M77.3,54.3c-0.4,2.3-3,3.7-6.7,3.7c-0.5,0-1.1,0-1.6-0.1l-0.2,0l0-0.1c-0.5-1.6-1.6-2.8-2.8-4c-0.4-0.4-0.8-0.9-1.2-1.3l-0.2-0.3
		l0.4-0.1c0.5-0.1,0.9-0.3,1.4-0.4c0.4-0.1,0.8-0.3,1.2-0.4l0.1,0l0.1,0c3.3,1.6,6.5,2.6,9.3,2.8l0.3,0L77.3,54.3z M68.8,50.6
		l0.7-0.1c1.1-0.2,2-0.6,3.1-1c0.7-0.3,1.4-0.6,2.2-0.8c0.1,0,0.1,0,0.2-0.1l0.2-0.1l0.1,0.1c1.1,1.2,1.7,2.5,2,3.9l0,0.3l-0.3,0
		c-1.2-0.1-3.8-0.5-7.4-1.9L68.8,50.6z M82.4,46.7l0.1,0l0.1,0.1c1,1.1,1.2,2.5,0.5,3.8C82.3,52,80.7,53,79,53l-0.2,0l-0.1-0.2
		c-0.5-1.5-1-3.1-2-4.6L76.6,48l0.3-0.1c0.7-0.1,1.4-0.3,2.1-0.5C80.1,47.1,81.2,46.8,82.4,46.7z M72,44.6c1.2-0.3,2.6-0.4,3.9-0.4
		c2.5,0,4.4,0.6,5.3,1.6l0.2,0.3l-0.4,0.1c-1.6,0.3-3.4,0.8-5.3,1.4l-0.1,0l-0.1-0.1c-1.2-0.8-2.7-1.9-3.6-2.5l-0.4-0.3L72,44.6z
		 M70,45.2L70,45.2l0.2,0c0.7,0.3,2.5,1.1,4.1,2.5l0.3,0.2L74.2,48c-1.9,0.6-3.9,1.4-6,2.2l-0.1,0l-0.1,0c-0.5-0.2-1-0.4-1.4-0.7
		l-0.3-0.2l-0.4-0.2c-0.9-0.5-1.9-1-2.7-1.5l-0.4-0.2l0.4-0.1l0.2,0l0.5-0.2l0,0l0,0c0.3-0.1,0.7-0.2,1.2-0.4
		C67.1,46.1,68.9,45.5,70,45.2z M58.6,44.6c0.6,0,1.2-0.1,1.8-0.1c1.4-0.1,2.9-0.3,4.3-0.3c1.3,0,2.3,0.1,3.2,0.3l0.8,0.2l-0.8,0.2
		c-1.8,0.5-3.9,1.1-6.1,1.8l-0.1,0l-0.1-0.1c-0.2-0.1-0.3-0.2-0.5-0.2c-0.9-0.4-1.8-0.9-2.6-1.5l-0.4-0.3L58.6,44.6z M60.1,46.9
		l0.4,0.2l-0.4,0.1c-0.9,0.3-1.8,0.6-2.6,0.8l-0.1,0l-0.1,0c-0.4-0.1-0.8-0.2-1.2-0.3c-1.3-0.3-2.7-0.6-3.7-1.2L52,46.4l0.4-0.2
		c1-0.5,2.1-0.7,3.2-0.7C57.2,45.5,58.8,46,60.1,46.9z M46.1,44.3c0.2-0.1,0.4-0.2,0.7-0.3c0.8-0.4,1.7-0.8,2.5-1.2
		c0.3-0.1,0.6-0.2,1-0.3l0.1,0l0.1,0c0.3,0.1,0.7,0.2,1,0.3c0.9,0.3,1.7,0.8,2.5,1.2c0.2,0.1,0.4,0.2,0.7,0.3l0.6,0.3l-0.6,0.1
		c-2.1,0.3-3.5,0.6-4.1,0.8l-0.1,0l-0.1,0c-0.8-0.2-2.2-0.4-3.9-0.7l0,0l0,0c0,0,0,0-0.1,0c-0.1,0-0.1,0-0.2-0.1l-0.3-0.2L46.1,44.3
		z M45.1,45.5c1.1,0,2.2,0.2,3.2,0.7l0.4,0.2l-0.4,0.2c-1,0.5-2.4,0.9-3.7,1.2c-0.4,0.1-0.8,0.2-1.2,0.3l-0.1,0l-0.1,0
		c-0.8-0.3-1.7-0.6-2.6-0.8l-0.4-0.1l0.4-0.2C41.9,46,43.5,45.5,45.1,45.5z M32.8,44.5c0.9-0.2,2-0.3,3.2-0.3c1.4,0,2.9,0.1,4.3,0.3
		c0.6,0.1,1.2,0.1,1.8,0.1l0.6,0l-0.4,0.3c-0.8,0.6-1.7,1-2.6,1.5c-0.2,0.1-0.3,0.2-0.5,0.2l-0.1,0.1l-0.1,0
		c-2.3-0.7-4.4-1.3-6.2-1.8L32,44.7L32.8,44.5z M30.6,45.2L30.6,45.2l0.2,0c1.1,0.3,2.7,0.8,4.7,1.4l0,0l0,0
		c0.6,0.3,1.1,0.4,1.6,0.5l0,0l0,0l0.3,0.1l0.1,0l0.4,0.1l-0.4,0.2c-0.9,0.5-1.8,1-2.8,1.5l-0.4,0.2l-0.3,0.1
		c-0.4,0.2-0.8,0.4-1.3,0.6l-0.1,0l-0.1,0c-2.1-0.8-4.1-1.6-6-2.2l-0.4-0.1l0.3-0.2C28.1,46.2,29.9,45.4,30.6,45.2z M19.5,45.8
		c0.9-1,2.8-1.6,5.3-1.6c1.3,0,2.7,0.2,3.9,0.4l0.5,0.1l-0.4,0.3c-0.9,0.6-2.4,1.7-3.6,2.5l-0.1,0.1l-0.1,0c-1.9-0.6-3.7-1-5.4-1.4
		L19.3,46L19.5,45.8z M18.1,46.8L18.1,46.8l0.2-0.1c1.2,0.1,2.3,0.4,3.4,0.7c0.7,0.2,1.4,0.4,2.1,0.5l0.3,0.1L24,48.3
		c-1,1.5-1.5,3.1-2,4.6L21.9,53l-0.2,0c-1.7-0.1-3.3-1-4.1-2.4C16.9,49.3,17.1,47.9,18.1,46.8z"/>
</g>
</svg>
