<?xml version="1.0" encoding="utf-8"?>
<!-- Generator: Adobe Illustrator 18.1.0, SVG Export Plug-In . SVG Version: 6.00 Build 0)  -->
<svg version="1.1" id="Layer_1" xmlns="http://www.w3.org/2000/svg" xmlns:xlink="http://www.w3.org/1999/xlink" x="0px" y="0px"
	 viewBox="0 0 100 100" enable-background="new 0 0 100 100" xml:space="preserve">
<g>
	<path fill="#091117" d="M44.7,20.4c-0.2-1.2-0.8-2.3-1.6-3.1c-0.1-0.1-0.3-0.3-0.4-0.4c-1.1-0.9-2.4-1.2-3.8-1.3
		c-0.2,0-0.4,0-0.6,0c-2.9,0-5.8,1.1-7.6,3.5c-2.1,2.7-2.5,6.3-2.2,9.7c-3.4-0.2-6.9,0.1-9.7,2.3c-2.5,1.9-3.6,5.1-3.4,8.2
		c0.1,1.4,0.4,2.7,1.3,3.8c0.4,0.4,0.8,0.8,1.3,1.1c0.7,0.5,1.4,0.8,2.2,0.9c1.3,0.2,2.7-0.4,3.5-1.5c0.6-0.8,0.6-1.8,0-2.7
		c0,0-0.1-0.1-0.1-0.1c-0.5-0.6-1.3-1.1-2.1-1c-0.8,0.1-1.3,0.6-1.5,1.3c-0.3,0.1-0.6,0.5-0.6,0.9c0,0.5,0.4,1,1,1c0.5,0,1-0.4,1-1
		c0-0.2,0-0.3-0.1-0.5c0.1-0.6,0.6-0.5,1.1-0.1c0.2,0.2,0.3,0.3,0.4,0.5c0.2,0.5,0,1-0.4,1.4c-1,0.9-2.4,0.7-3.5,0
		c-0.1-0.1-0.2-0.1-0.3-0.2c-1.2-0.9-1.8-2-1.9-3.5c-0.2-3.2,0.8-6.4,3.7-8.1c2.6-1.6,5.8-1.7,8.8-1.4c0.2,0,0.4,0,0.5-0.2
		c0.1-0.1,0.2-0.3,0.2-0.5c-0.3-3-0.2-6.2,1.4-8.8c1.7-2.9,4.9-3.9,8.1-3.7c1.2,0.1,2.2,0.6,3,1.4c0.1,0.2,0.3,0.3,0.4,0.5
		c0.5,0.7,0.9,1.6,0.7,2.5c0,0.2-0.1,0.5-0.2,0.7c-0.1,0.2-0.2,0.4-0.4,0.6c-0.3,0.4-0.7,0.6-1.1,0.5c-0.3,0-0.5-0.2-0.7-0.5
		c-0.4-0.5-0.5-1,0.1-1.1c0.1,0.1,0.3,0.1,0.5,0.1c0.5,0,1-0.4,1-1c0-0.1,0-0.1,0-0.2c-0.1-0.4-0.5-0.8-0.9-0.8
		c-0.4,0-0.7,0.2-0.9,0.6c-0.7,0.2-1.2,0.7-1.3,1.5c-0.1,0.8,0.5,1.7,1.2,2.2c0.1,0.1,0.2,0.1,0.3,0.2c0.7,0.4,1.6,0.3,2.3-0.2
		C44.4,23.1,44.9,21.8,44.7,20.4z"/>
	<path fill="#091117" d="M71.4,29.6c0.2,0.1,0.3,0.3,0.5,0.4c0,0,0.1,0,0.1,0c0.1,0,0.2,0,0.3,0c0,0,0,0,0-0.1
		c0.2-2.9,0.1-6-1.4-8.6c-0.5-0.9-1.3-1.7-2.1-2.2c0.4,0.4,0.8,0.9,1.2,1.5c1.5,2.6,1.7,5.7,1.4,8.6C71.4,29.3,71.4,29.4,71.4,29.6z
		"/>
	<path fill="#091117" d="M61,22.2c-0.1,0.1-0.3,0.1-0.5,0.1c-0.1,0-0.1,0-0.2,0c0,0.1-0.1,0.2-0.2,0.3c-0.3,0.5-0.8,0.6-1.2,0.4
		c0.1,0.1,0.1,0.2,0.2,0.3c0.6,0.7,1.4,0.8,1.9,0C61.5,22.8,61.6,22.3,61,22.2z"/>
	<path fill="#091117" d="M80.6,40.5c0.1,0,0.3,0.1,0.4,0.1c-0.2-0.5-0.7-0.8-1.3-0.9c-0.8-0.1-1.7,0.5-2.2,1.2
		c-0.6,0.8-0.6,1.8,0,2.7c0.3,0.4,0.7,0.8,1.2,1c-0.1-0.1-0.2-0.2-0.2-0.2c-0.6-0.8-0.6-1.9,0-2.7C78.9,41,79.7,40.4,80.6,40.5z"/>
	<path fill="#091117" d="M62.3,15.6c-1.4,0.1-2.7,0.4-3.8,1.3c-1,0.9-1.8,2.1-2,3.5c-0.2,1.3,0.4,2.7,1.5,3.5
		c0.1,0.1,0.2,0.1,0.2,0.1c-0.7-0.8-1-1.8-0.8-2.9c0.2-1.4,1-2.6,2-3.5c1.1-0.9,2.4-1.3,3.8-1.3c2.3-0.1,4.6,0.4,6.4,1.8
		c-1.8-1.7-4.2-2.5-6.7-2.5C62.8,15.5,62.5,15.5,62.3,15.6z"/>
	<path fill="#091117" d="M73.7,28.6c0,0.3,0,0.5,0,0.8c3.2-0.2,6.6,0.1,9.3,2.1c-0.2-0.2-0.4-0.4-0.6-0.6
		C79.9,29,76.8,28.6,73.7,28.6z"/>
	<path fill="#091117" d="M60.5,20.2c-0.1-0.3-0.5-0.6-0.9-0.6c-0.1,0-0.2,0-0.3,0.1c-0.4,0.1-0.6,0.5-0.6,0.9c0,0.1,0,0.3,0.1,0.4
		c0.1,0.3,0.5,0.6,0.9,0.6c0-0.1,0-0.1,0-0.2c0-0.5,0.4-1,1-1c0.4,0,0.7,0.2,0.9,0.6c0.1,0,0.1,0,0.2,0.1
		C61.4,20.6,61,20.4,60.5,20.2z"/>
	<path fill="#091117" d="M83.5,43.8c1.2-0.9,1.8-2,1.9-3.5c0.2-3-0.7-6.1-3.3-7.8c1.8,1.8,2.6,4.4,2.3,7.1c-0.1,1.4-0.7,2.6-1.9,3.5
		c0,0,0,0,0,0c-0.3,0.2-0.7,0.4-1,0.5c-0.7,0.2-1.4,0.3-2.1,0c0.1,0.1,0.2,0.3,0.3,0.4C80.9,44.9,82.4,44.6,83.5,43.8z"/>
	<path fill="#091117" d="M46.1,16c-0.3-0.3-0.6-0.5-0.8-0.7c1,1,2.2,2.4,2.1,3.9c0.1,0.4,0.1,0.5,0.1,0.9c0.1,0.1,0.2-0.1,0.4-0.1
		h0.5c0,0,0-0.1,0-0.2C48.4,18.2,47.2,17,46.1,16z"/>
	<path fill="#091117" d="M87.9,33.3c1.1,2.5,1.1,5.5,0.4,8.1c-0.4,1.5-1.2,3-2.3,4.2c-1,1.1-2.4,2.3-4,2.2c-0.4,0-0.7,0.1-1.1,0.1
		C81,47.9,81,48,81,48.2v1.1v3.4v1.1c0,0.2,0.1,0.3,0.2,0.4c0.3,0,0.8,0,0.8,0.1v-0.8V50v-1.1c0-0.2,0-0.3,0-0.4
		c0.4,0,0.7,0,1.1-0.1c1.6,0.1,3-1.1,4-2.2c1.1-1.2,1.8-2.7,2.2-4.2c0.7-2.6,0.7-5.6-0.4-8.1c-0.8-1.9-2.1-3.3-3.6-4.4
		C86.3,30.6,87.3,31.8,87.9,33.3z"/>
	<path fill="#091117" d="M15.7,47.9c-1.1-1.1-2-2.4-2.6-3.7c-1.2-2.8-1.5-6.1-0.7-9c1.4-5.3,6.3-8.6,11.5-9.3
		c0.6-0.1,1.1-0.1,1.7-0.1c0-0.6,0.1-1.2,0.2-1.7c0.7-5.2,4-10.1,9.3-11.5c2.9-0.8,6.2-0.5,9,0.7c0.7,0.3,1.5,0.8,2.2,1.3
		c-1-0.9-2.1-1.6-3.1-2.1c-2.8-1.2-6-1.5-9-0.7c-5.3,1.4-8.6,6.3-9.3,11.5c-0.1,0.6-0.1,1.2-0.1,1.7c-0.6,0-1.2,0.1-1.7,0.1
		c-5.2,0.7-10.1,4-11.5,9.3c-0.8,3-0.5,6.2,0.7,9C12.9,45,14.1,46.7,15.7,47.9z"/>
	<path fill="#091117" d="M56.5,8.5c0.1,0,0.1-0.1,0.2-0.1c0.1-0.4-0.1-0.8-0.6-0.8c0,0,0,0,0,0c-0.2,0-0.3,0-0.5,0.1
		c-0.8,0.2-1.5,0.6-2.1,1.1c0.1,0.4,0.2,0.8,0.4,1.2C54.7,9.3,55.5,8.7,56.5,8.5z"/>
	<path fill="#091117" d="M53.5,19.1c0.4-2.7,3.2-4.9,5.5-6c2.8-1.2,6-1.5,9-0.7c1.6,0.4,3,1.2,4.2,2.1c-1.4-1.4-3.1-2.4-5.1-2.9
		c-2.9-0.8-6.2-0.5-9,0.7c-1.3,0.6-2.7,1.5-3.8,2.7C53.9,16.3,53.6,17.7,53.5,19.1z"/>
	<path fill="#091117" d="M79.1,25.8c2.5,0.3,4.9,1.3,6.9,2.8c-2.1-1.9-4.9-3.1-7.8-3.5c-0.3,0-0.5,0-0.8-0.1c0,0.2,0,0.5,0.1,0.7
		C78,25.7,78.6,25.7,79.1,25.8z"/>
	<path fill="#091117" d="M44.9,8.8c0.5,0.5,0.9,1.1,1.3,1.7c0.1,0.1,0.1,0.2,0.2,0.3c0.5,0.8,0.9,1.7,1.2,2.5c0.4,1,0.7,2.1,0.9,3.2
		c0.7,0.9,1.1,2,1.1,3.1c0.1-1.8-0.5-3.9-1.1-5.6c-0.3-0.8-0.7-1.8-1.2-2.5c-0.1-0.1-0.1-0.2-0.2-0.4c-0.4-0.6-0.8-1.2-1.3-1.7
		c0,0,0,0,0-0.1c-0.5-0.3-0.4-1.2,0.3-1.2c0,0,0,0,0,0c0.2,0,0.3,0,0.5,0.1c1,0.3,1.8,0.9,2.7,1.5c0.5-1.6,1-3.2,1.6-4.8
		c0.1-0.3,0.3-0.4,0.6-0.4c0-0.1-0.1-0.2-0.1-0.3C51.2,4.1,50.9,4,50.7,4c0,0,0,0,0,0c-0.3,0-0.5,0.1-0.7,0.4
		c-0.6,1.6-1.1,3.2-1.6,4.8c-0.8-0.6-1.7-1.2-2.7-1.5c-0.1-0.1-0.3-0.1-0.5-0.1c0,0,0,0,0,0C44.5,7.5,44.4,8.4,44.9,8.8
		C44.9,8.8,44.9,8.8,44.9,8.8z"/>
	<path fill="#091117" d="M51.4,19h-0.6c0,0,0,1,0,1h1.5c-0.1-2,0.4-3.8,1-5.7c0.3-1.1,0.8-2.2,1.4-3.2c0.1-0.1,0.2-0.3,0.3-0.4
		c-0.4,0.3-0.8,0.6-1.2,0.9c-0.2,0.1-0.4,0.1-0.6,0c-0.3,0.6-0.6,1.2-0.8,1.9C51.8,15.3,51.3,17,51.4,19z"/>
	<path fill="#091117" d="M51.9,10.4c0.1,0.3,0.5,0.6,0.8,0.4C52.4,9.6,52,8.3,51.6,7c-0.1,0.4-0.2,0.7-0.3,1.1
		C51.5,8.9,51.7,9.6,51.9,10.4z"/>
	<path fill="#091117" d="M75.3,25.2c-0.2,0.3-0.1,0.8,0.3,0.9c0.2,0.1,0.4,0.1,0.6,0.1c0-0.1,0-0.2,0.1-0.3c-0.1-4-1.7-8-4.9-10.4
		C73.9,18,75.2,21.6,75.3,25.2z"/>
	<path fill="#091117" d="M82.3,69.9c2.5-1.9,3.6-5.1,3.4-8.2c-0.1-1.4-0.4-2.7-1.3-3.8c-0.4-0.4-0.8-0.8-1.3-1.1
		c-0.7-0.5-1.4-0.8-2.2-0.9c-1.3-0.2-2.7,0.4-3.5,1.5c-0.6,0.8-0.6,1.9,0,2.7c0,0,0.1,0.1,0.1,0.1c0.5,0.6,1.3,1.1,2.1,1
		c0.8-0.1,1.3-0.6,1.5-1.3c0.3-0.1,0.6-0.5,0.6-0.9c0-0.5-0.4-1-1-1c-0.5,0-1,0.4-1,1c0,0.2,0,0.3,0.1,0.5c-0.1,0.6-0.6,0.5-1.1,0.1
		c-0.2-0.2-0.3-0.3-0.4-0.5c-0.2-0.5,0-1,0.4-1.4c1.1-0.9,2.4-0.7,3.5,0c0.1,0.1,0.2,0.1,0.3,0.2c1.2,0.9,1.8,2,1.9,3.5
		c0.2,3.2-0.8,6.4-3.7,8.1c-2.6,1.6-5.8,1.7-8.8,1.4c-0.2,0-0.4,0-0.5,0.2c-0.1,0.1-0.2,0.3-0.2,0.5c0.3,3,0.2,6.2-1.4,8.8
		c-1.7,2.8-4.9,3.9-8.1,3.7c-1.2-0.1-2.2-0.6-3-1.4c-0.1-0.2-0.3-0.3-0.4-0.5c-0.5-0.7-0.9-1.6-0.7-2.5c0-0.2,0.1-0.5,0.2-0.7
		c0.1-0.2,0.2-0.4,0.3-0.6c0.3-0.4,0.7-0.6,1.1-0.5c0.3,0,0.5,0.2,0.7,0.5c0.4,0.5,0.5,1-0.1,1.1c-0.1-0.1-0.3-0.1-0.5-0.1
		c-0.5,0-1,0.4-1,1c0,0.1,0,0.1,0,0.2c0.1,0.4,0.5,0.8,0.9,0.8c0.4,0,0.7-0.2,0.9-0.6c0.7-0.2,1.2-0.7,1.3-1.5
		c0.1-0.8-0.5-1.7-1.2-2.2c-0.1-0.1-0.2-0.1-0.3-0.2c-0.7-0.4-1.6-0.3-2.3,0.2c-1.1,0.8-1.7,2.2-1.5,3.5c0.2,1.2,0.8,2.3,1.6,3.1
		c0.1,0.1,0.3,0.3,0.4,0.4c1.1,0.9,2.4,1.3,3.8,1.3c0.2,0,0.4,0,0.6,0c2.9,0,5.8-1.1,7.6-3.5c2.1-2.7,2.5-6.3,2.2-9.7
		C76,72.4,79.5,72,82.3,69.9z"/>
	<path fill="#091117" d="M29.6,71.2c-0.2-0.1-0.3-0.3-0.5-0.4c0,0-0.1,0-0.1,0c-0.1,0-0.2,0-0.3,0c0,0,0,0,0,0.1
		c-0.2,2.9-0.1,6,1.4,8.6c0.5,0.9,1.3,1.7,2.1,2.2c-0.4-0.4-0.8-0.9-1.2-1.5c-1.5-2.6-1.7-5.7-1.4-8.6
		C29.7,71.5,29.7,71.4,29.6,71.2z"/>
	<path fill="#091117" d="M40.1,78.6c0.1-0.1,0.3-0.1,0.5-0.1c0.1,0,0.1,0,0.2,0c0-0.1,0.1-0.2,0.2-0.3c0.3-0.5,0.8-0.6,1.2-0.4
		c-0.1-0.1-0.1-0.2-0.2-0.3c-0.6-0.7-1.4-0.8-1.9,0C39.6,78,39.5,78.5,40.1,78.6z"/>
	<path fill="#091117" d="M20.5,60.4c-0.1,0-0.3-0.1-0.4-0.1c0.2,0.5,0.7,0.8,1.3,0.9c0.8,0.1,1.7-0.5,2.2-1.2c0.6-0.8,0.6-1.8,0-2.7
		c-0.3-0.4-0.7-0.8-1.1-1c0.1,0.1,0.2,0.2,0.2,0.3c0.6,0.8,0.6,1.9,0,2.7C22.2,59.9,21.3,60.5,20.5,60.4z"/>
	<path fill="#091117" d="M38.7,85.3c1.4-0.1,2.7-0.4,3.8-1.3c1-0.9,1.8-2.1,2-3.5c0.2-1.3-0.4-2.7-1.5-3.5c-0.1-0.1-0.2-0.1-0.2-0.1
		c0.7,0.8,1,1.8,0.8,2.9c-0.2,1.4-1,2.6-2,3.5c-1.1,0.9-2.4,1.3-3.8,1.3c-2.3,0.1-4.6-0.4-6.4-1.8c1.8,1.7,4.2,2.5,6.7,2.5
		C38.3,85.3,38.5,85.3,38.7,85.3z"/>
	<path fill="#091117" d="M27.3,72.2c0-0.3,0-0.5,0-0.8c-3.2,0.2-6.6-0.1-9.3-2.1c0.2,0.2,0.4,0.4,0.6,0.6
		C21.2,71.8,24.3,72.3,27.3,72.2z"/>
	<path fill="#091117" d="M40.5,80.6c0.1,0.4,0.5,0.6,0.9,0.6c0.1,0,0.2,0,0.3-0.1c0.4-0.1,0.6-0.5,0.6-0.9c0-0.1,0-0.3-0.1-0.4
		c-0.1-0.3-0.5-0.6-0.9-0.6c0,0.1,0,0.1,0,0.2c0,0.5-0.4,1-1,1c-0.4,0-0.7-0.2-0.9-0.6c-0.1,0-0.1,0-0.2-0.1
		C39.7,80.2,40.1,80.5,40.5,80.6z"/>
	<path fill="#091117" d="M17.6,57.1c-1.2,0.9-1.8,2-1.9,3.5c-0.2,3,0.8,6.1,3.3,7.8c-1.8-1.8-2.6-4.4-2.4-7.1
		c0.1-1.4,0.7-2.6,1.9-3.5c0,0,0,0,0,0c0.3-0.2,0.7-0.4,1-0.5c0.7-0.2,1.4-0.3,2.1,0c-0.1-0.1-0.2-0.3-0.3-0.4
		C20.2,55.9,18.7,56.3,17.6,57.1z"/>
	<path fill="#091117" d="M53.7,81.6c-0.1-0.4-0.1-0.9-0.1-1.3c-0.1-0.1-0.2-0.3-0.4-0.3h-0.5c0,0,0,0.5,0,0.7
		c-0.1,1.6,1.1,3.1,2.2,4.1c0.3,0.3,0.6,0.5,0.8,0.7C54.7,84.5,53.5,83.1,53.7,81.6z"/>
	<path fill="#091117" d="M13.1,67.6c-1.1-2.5-1.1-5.5-0.4-8.1c0.4-1.5,1.2-3,2.3-4.2c1-1.1,2.4-2.3,4-2.2c0.4,0,0.7-0.1,1-0.1
		c0.1-0.1,0-0.2,0-0.4v-1.1v-3.4v-1.1c0-0.2-0.1-0.3-0.2-0.4c-0.3,0,0.2,0-0.8-0.1v0.7v3.4v1.1c0,0.2,0.1,0.3,0,0.4
		c-0.4,0-0.7,0-1.1,0.1c-1.6-0.1-3,1.1-4,2.2c-1.1,1.2-1.8,2.7-2.2,4.2c-0.7,2.6-0.7,5.6,0.4,8.1c0.8,1.9,2.1,3.3,3.6,4.4
		C14.7,70.3,13.8,69,13.1,67.6z"/>
	<path fill="#091117" d="M88.9,57.4c-0.7-1.6-1.9-3.3-3.5-4.4c1.1,1.1,2,2.4,2.6,3.7c1.2,2.8,1.5,6.1,0.7,9
		c-1.4,5.3-6.3,8.6-11.5,9.3c-0.6,0.1-1.1,0.1-1.7,0.1c0,0.6-0.1,1.2-0.2,1.7c-0.7,5.2-4,10.1-9.3,11.5c-2.9,0.8-6.2,0.5-9-0.7
		c-0.7-0.3-1.5-0.8-2.2-1.3c1,0.9,2.1,1.6,3.1,2.1c2.8,1.2,6,1.5,9,0.7c5.3-1.4,8.6-6.3,9.3-11.5c0.1-0.6,0.1-1.2,0.1-1.7
		c0.6,0,1.2-0.1,1.7-0.1c5.2-0.7,10.1-4,11.5-9.3C90.3,63.5,90.1,60.2,88.9,57.4z"/>
	<path fill="#091117" d="M44.6,92.4c-0.1,0-0.1,0.1-0.2,0.1c-0.1,0.4,0.1,0.8,0.6,0.8c0,0,0,0,0,0c0.2,0,0.3,0,0.5-0.1
		c0.8-0.2,1.5-0.6,2.1-1.1c-0.1-0.4-0.2-0.8-0.4-1.2C46.4,91.5,45.6,92.1,44.6,92.4z"/>
	<path fill="#091117" d="M47.5,81.7c-0.4,2.7-3.2,5-5.5,6c-2.8,1.2-6,1.5-9,0.7c-1.6-0.4-3-1.2-4.2-2.1c1.4,1.4,3.1,2.4,5.1,2.9
		c2.9,0.8,6.2,0.5,9-0.7c1.3-0.6,2.7-1.5,3.7-2.7C47.1,84.5,47.5,83.1,47.5,81.7z"/>
	<path fill="#091117" d="M21.9,75c-2.5-0.3-4.9-1.3-6.9-2.8c2.1,1.9,4.9,3.1,7.8,3.5c0.3,0,0.5,0,0.8,0.1c0-0.2,0-0.5-0.1-0.7
		C23.1,75.1,22.5,75.1,21.9,75z"/>
	<path fill="#091117" d="M56.2,92c-0.5-0.5-0.9-1.1-1.3-1.7c-0.1-0.1-0.1-0.2-0.2-0.4c-0.5-0.8-0.9-1.7-1.2-2.5
		c-0.4-1-0.7-2.1-0.9-3.2c-0.7-0.9-1.1-2-1.1-3.1c-0.1,1.8,0.5,3.9,1.1,5.6c0.3,0.8,0.7,1.8,1.2,2.5c0.1,0.1,0.1,0.2,0.2,0.4
		c0.4,0.6,0.8,1.2,1.3,1.7c0,0,0,0,0,0.1c0.5,0.3,0.4,1.2-0.3,1.2c0,0,0,0,0,0c-0.2,0-0.3,0-0.5-0.1c-1-0.3-1.8-0.9-2.7-1.5
		c-0.5,1.6-1,3.2-1.6,4.8c-0.1,0.3-0.3,0.4-0.6,0.4c0,0.1,0.1,0.3,0.1,0.4c0.1,0.3,0.4,0.5,0.6,0.5c0,0,0,0,0,0
		c0.3,0,0.5-0.2,0.7-0.5c0.6-1.6,1.1-3.2,1.6-4.8c0.8,0.6,1.7,1.2,2.7,1.5c0.1,0.1,0.3,0.1,0.5,0.1c0,0,0,0,0,0
		C56.6,93.3,56.7,92.4,56.2,92C56.2,92,56.2,92,56.2,92z"/>
	<path fill="#091117" d="M49.7,82h0.6c0-1,0-1,0-1h-1.5c0.1,2-0.4,3.7-1,5.6c-0.3,1.1-0.8,2.1-1.4,3.1c-0.1,0.1-0.2,0.3-0.3,0.4
		c0.4-0.3,0.8-0.6,1.2-0.9c0.2-0.1,0.4-0.1,0.6,0c0.3-0.6,0.6-1.1,0.8-1.8C49.2,85.6,49.8,84,49.7,82z"/>
	<path fill="#091117" d="M49.1,90.4c-0.1-0.3-0.5-0.6-0.8-0.4c0.4,1.3,0.7,2.6,1.2,3.8c0.1-0.4,0.2-0.7,0.3-1.1
		C49.6,92,49.4,91.2,49.1,90.4z"/>
	<path fill="#091117" d="M25.8,75.6c0.2-0.3,0.1-0.8-0.3-0.9c-0.2-0.1-0.4-0.1-0.6-0.1c0,0.1,0,0.2-0.1,0.3c0.1,4,1.7,8,4.9,10.4
		C27.2,82.8,25.9,79.3,25.8,75.6z"/>
</g>
</svg>
