<?xml version="1.0" encoding="utf-8"?>
<!-- Generator: Adobe Illustrator 18.1.0, SVG Export Plug-In . SVG Version: 6.00 Build 0)  -->
<svg version="1.1" id="Layer_1" xmlns="http://www.w3.org/2000/svg" xmlns:xlink="http://www.w3.org/1999/xlink" x="0px" y="0px"
	 viewBox="0 0 100 100" enable-background="new 0 0 100 100" xml:space="preserve">
<g>
	<path fill="#091117" d="M16.2,55V44.6c0-0.3,0.1-0.6,0.3-0.8c0.2-0.2,0.4-0.4,0.6-0.4c0.1,0,7.6-2.1,7.7-2.1
		c0.3-0.1,0.5-0.3,0.5-0.7c0,0,0,0,0,0c0-0.4-0.3-0.7-0.7-0.7c0,0-20.2,0-21.3,0C3.9,40.7,8,47.4,8,47.4S3.9,54.1,3.3,55H16.2z"/>
	<path fill="#091117" d="M83.3,55V44.6c0-0.3-0.1-0.6-0.3-0.8c-0.2-0.2-0.4-0.4-0.6-0.4c-0.1,0-7.6-2.1-7.7-2.1
		c-0.3-0.1-0.5-0.3-0.5-0.7c0,0,0,0,0,0c0-0.4,0.3-0.7,0.7-0.7c0,0,20.2,0,21.3,0c-0.6,0.9-4.7,7.6-4.7,7.6s4.2,6.7,4.7,7.6H83.3z"
		/>
	<path fill="#091117" d="M82.6,45.7c0,1.9,0,14.6,0,14.6c0,0.4-0.3,0.7-0.7,0.7H17.5c-0.4,0-0.7-0.3-0.7-0.7c0,0,0-12.7,0-14.6
		c0.2,0.1,0.4,0.2,0.7,0.2h64.4C82.2,45.9,82.4,45.9,82.6,45.7z"/>
</g>
</svg>
