<?xml version="1.0" encoding="utf-8"?>
<!-- Generator: Adobe Illustrator 18.1.0, SVG Export Plug-In . SVG Version: 6.00 Build 0)  -->
<svg version="1.1" id="Layer_1" xmlns="http://www.w3.org/2000/svg" xmlns:xlink="http://www.w3.org/1999/xlink" x="0px" y="0px"
	 viewBox="0 0 100 100" enable-background="new 0 0 100 100" xml:space="preserve">
<g>
	<path fill="#091117" d="M17.4,34.5c0,0,0.4-0.2,1.2-0.3C19,34.1,19.5,34,20,34c0.6-0.1,1.3,0,2,0.1c0.7,0.2,1.6,0.5,2.2,1.2
		c0.3,0.3,0.6,0.7,0.8,1.2c0,0.1,0.1,0.3,0,0.4c0,0.2-0.1,0.3-0.2,0.5c-0.2,0.3-0.5,0.3-0.8,0.4c-0.6,0-1.2-0.1-1.7-0.5
		c-0.5-0.4-0.7-1-0.8-1.6c-0.2-1.2,0-2.6,0.9-3.7c0.4-0.6,1-1,1.5-1.4c0.3-0.2,0.6-0.4,0.9-0.5c0.2-0.1,0.3-0.1,0.5-0.2
		c0.2-0.1,0.3-0.1,0.5-0.2c0.7-0.2,1.4-0.3,2.1-0.4c0.7-0.1,1.4-0.2,2.1-0.3c2.9-0.4,5.9-0.7,9-1.2c1.6-0.2,3.1-0.5,4.7-0.9
		c1.5-0.4,3.1-0.9,4.4-1.7c0.2-0.1,0.3-0.2,0.5-0.3c0.1-0.1,0.3-0.2,0.4-0.4l0.2-0.2c0.1-0.1,0.1-0.1,0.2-0.2c0-0.1,0.1-0.1,0.2-0.2
		l0.2-0.3l0.3-0.5l0.3-0.5c0.1-0.2,0.2-0.4,0.3-0.5c0.1-0.2,0.2-0.4,0.2-0.5c0.1-0.2,0.1-0.4,0.2-0.5c0.1-0.2,0.1-0.4,0.1-0.5
		c0.1-0.4,0.1-0.7,0-1c-0.1-0.3-0.2-0.4-0.4-0.5l-0.2,0c-0.1,0-0.1,0-0.2,0l-0.2,0l-0.2,0c0,0-0.1,0-0.1,0c0,0-0.1,0-0.1,0.1
		c0,0-0.1,0.1-0.2,0.1c0,0.1-0.1,0.1-0.1,0.1c0,0.1-0.1,0.1-0.1,0.2c-0.1,0.2-0.2,0.6-0.2,0.9c0,0.7,0.2,1.4,0.6,2.1
		c0.4,0.7,0.8,1.3,1.4,1.9l0.1,0.1c0,0,0,0.1,0,0l0,0l0.1,0.1l0.2,0.2c0.1,0.1,0.3,0.2,0.4,0.3l0.5,0.3l0.5,0.2c1.5,0.6,3,1,4.6,1.3
		c1.6,0.3,3.2,0.5,4.7,0.7c3.1,0.4,6.2,0.7,9.1,1.2c0.7,0.1,1.4,0.2,2.1,0.4c0.7,0.2,1.4,0.3,2.1,0.7l0.3,0.2c0,0,0,0,0.1,0.1l0,0
		l0.1,0.1c0.1,0.1,0.3,0.2,0.4,0.3c0.3,0.2,0.5,0.5,0.8,0.8c0.5,0.5,0.8,1.1,1.1,1.7c0.6,1.2,0.8,2.6,0.5,3.8c0,0.2-0.1,0.3-0.1,0.4
		c0,0.1-0.1,0.3-0.2,0.4l-0.1,0.1l0,0c0,0.1,0,0,0,0l0,0l-0.1,0.2c0,0.1-0.1,0.1-0.2,0.2c-0.1,0.1-0.1,0.1-0.2,0.2
		c-0.3,0.2-0.6,0.3-1,0.2c-0.3-0.1-0.6-0.2-0.8-0.4c-0.4-0.4-0.7-1-0.6-1.5c0-0.6,0.4-1,0.7-1.3c0.1-0.2,0.3-0.3,0.5-0.5
		c0.2-0.1,0.4-0.3,0.6-0.3c0.2-0.1,0.4-0.2,0.6-0.2c0.2-0.1,0.4-0.1,0.6-0.1c0.7-0.2,1.4-0.1,2-0.1c0.6,0,1.1,0.1,1.5,0.2
		c0.8,0.1,1.2,0.2,1.2,0.2s-0.4-0.1-1.2-0.2c-0.4,0-0.9-0.1-1.4-0.1c-0.6,0-1.2,0-1.9,0.2c-0.2,0-0.3,0.1-0.5,0.2
		c-0.2,0.1-0.4,0.1-0.5,0.2c-0.2,0.1-0.3,0.2-0.5,0.3c-0.1,0.1-0.3,0.3-0.4,0.4c-0.3,0.3-0.5,0.7-0.5,1.1c0,0.4,0.2,0.9,0.5,1.1
		c0.2,0.1,0.4,0.2,0.6,0.2c0.2,0,0.4,0,0.6-0.2c0,0,0.1-0.1,0.1-0.1c0,0,0.1-0.1,0.1-0.1l0.1-0.2l0,0c0,0,0,0,0,0l0,0l0-0.1
		c0.1-0.1,0.1-0.2,0.1-0.4c0-0.1,0.1-0.2,0.1-0.4c0.2-1,0-2.2-0.5-3.3c-0.3-0.5-0.6-1-1.1-1.5c-0.2-0.2-0.4-0.4-0.7-0.6
		c-0.1-0.1-0.3-0.2-0.4-0.3l-0.1-0.1l-0.1,0c0,0,0,0,0,0l-0.2-0.1c-0.5-0.3-1.2-0.4-1.9-0.6c-0.7-0.1-1.4-0.3-2.1-0.4
		c-2.9-0.4-5.9-0.6-9.1-1c-1.6-0.2-3.2-0.4-4.8-0.7c-1.6-0.3-3.3-0.6-4.9-1.3l-0.6-0.3L51.3,26c-0.2-0.1-0.4-0.3-0.6-0.4l-0.2-0.2
		l-0.1-0.1l0,0c-0.1-0.1,0,0-0.1-0.1l-0.1-0.1c-0.6-0.6-1.1-1.4-1.6-2.2c-0.4-0.8-0.8-1.7-0.8-2.7c0-0.5,0.1-1,0.4-1.5
		c0.1-0.1,0.2-0.2,0.2-0.3c0.1-0.1,0.2-0.2,0.3-0.3c0.1-0.1,0.2-0.2,0.4-0.3c0.1-0.1,0.3-0.1,0.5-0.2c0.1,0,0.1,0,0.2,0l0.2,0l0,0
		c0.1,0,0.1,0,0.1,0l0.1,0l0.2,0c0.1,0,0.3,0,0.4,0c0.1,0,0.3,0.1,0.4,0.1c0.3,0.1,0.6,0.3,0.8,0.5c0.1,0.1,0.2,0.2,0.3,0.4l0.1,0.2
		c0,0.1,0,0.1,0.1,0.2c0.2,0.6,0.1,1.1,0,1.5c0,0.2-0.1,0.5-0.2,0.7c-0.1,0.2-0.1,0.4-0.2,0.6c-0.1,0.2-0.2,0.4-0.3,0.6
		c-0.1,0.2-0.2,0.4-0.3,0.6l-0.3,0.6l-0.3,0.5l-0.2,0.3c-0.1,0.1-0.1,0.2-0.2,0.3c-0.1,0.1-0.1,0.2-0.2,0.3L50,25.3
		c-0.2,0.2-0.4,0.3-0.5,0.5c-0.2,0.2-0.4,0.3-0.6,0.4c-1.5,0.9-3.2,1.4-4.8,1.8c-1.6,0.4-3.2,0.7-4.8,0.9c-3.2,0.5-6.2,0.7-9.1,1
		c-1.4,0.2-2.8,0.3-4.1,0.6c-0.6,0.2-1.2,0.4-1.8,0.7c-0.5,0.3-1,0.7-1.4,1.1c-0.7,0.9-1,2.1-0.8,3.1c0.1,0.5,0.3,1,0.6,1.3
		c0.3,0.3,0.8,0.5,1.3,0.5c0.2,0,0.4-0.1,0.5-0.2c0.1-0.1,0.1-0.3,0.1-0.5c0-0.2-0.2-0.4-0.3-0.6c-0.1-0.2-0.3-0.3-0.4-0.5
		c-0.6-0.6-1.3-1-2-1.2c-0.7-0.2-1.4-0.2-1.9-0.2c-0.6,0-1.1,0.1-1.4,0.1C17.8,34.4,17.4,34.5,17.4,34.5z"/>
	<path fill="#091117" d="M83,66.6c0,0-0.4,0.2-1.2,0.3c-0.4,0.1-0.9,0.2-1.4,0.2c-0.6,0.1-1.3,0-2-0.1c-0.7-0.2-1.6-0.5-2.2-1.2
		c-0.3-0.3-0.6-0.7-0.8-1.2c0-0.1-0.1-0.3,0-0.4c0-0.2,0.1-0.3,0.2-0.5c0.2-0.3,0.5-0.3,0.8-0.4c0.6,0,1.2,0.1,1.7,0.5
		c0.5,0.4,0.7,1,0.8,1.6c0.2,1.2,0,2.6-0.9,3.7c-0.4,0.6-1,1-1.5,1.4c-0.3,0.2-0.6,0.4-0.9,0.5c-0.2,0.1-0.3,0.1-0.5,0.2
		c-0.2,0.1-0.3,0.1-0.5,0.2c-0.7,0.2-1.4,0.3-2.1,0.4c-0.7,0.1-1.4,0.2-2.1,0.3c-2.9,0.4-5.9,0.7-9,1.2c-1.6,0.2-3.1,0.5-4.7,0.9
		c-1.5,0.4-3.1,0.9-4.4,1.7c-0.2,0.1-0.3,0.2-0.5,0.3c-0.1,0.1-0.3,0.2-0.4,0.4l-0.2,0.2C51,77,51,77.1,51,77.1
		c0,0.1-0.1,0.1-0.2,0.2l-0.2,0.3l-0.3,0.5L50,78.7c-0.1,0.2-0.2,0.4-0.3,0.5c-0.1,0.2-0.2,0.4-0.2,0.5c-0.1,0.2-0.1,0.4-0.2,0.5
		c-0.1,0.2-0.1,0.4-0.1,0.5c-0.1,0.4-0.1,0.7,0,1c0.1,0.3,0.2,0.4,0.4,0.5l0.2,0c0.1,0,0.1,0,0.2,0l0.2,0l0.2,0c0,0,0.1,0,0.1,0
		c0,0,0.1,0,0.1-0.1c0,0,0.1-0.1,0.2-0.1c0-0.1,0.1-0.1,0.1-0.1c0-0.1,0.1-0.1,0.1-0.2c0.1-0.2,0.2-0.6,0.2-0.9
		c0-0.7-0.2-1.4-0.6-2.1c-0.4-0.7-0.8-1.3-1.4-1.9l-0.1-0.1c0,0,0-0.1,0,0l0,0l-0.1-0.1l-0.2-0.2c-0.1-0.1-0.3-0.2-0.4-0.3L48,75.9
		l-0.5-0.2c-1.5-0.6-3-1-4.6-1.3c-1.6-0.3-3.2-0.5-4.7-0.7c-3.1-0.4-6.2-0.7-9.1-1.2c-0.7-0.1-1.4-0.2-2.1-0.4
		c-0.7-0.2-1.4-0.3-2.1-0.7l-0.3-0.2c0,0,0,0-0.1,0l0,0L24.3,71c-0.1-0.1-0.3-0.2-0.4-0.3c-0.3-0.2-0.5-0.5-0.8-0.8
		c-0.5-0.5-0.8-1.1-1.1-1.7c-0.6-1.2-0.8-2.6-0.5-3.8c0-0.2,0.1-0.3,0.1-0.4c0-0.1,0.1-0.3,0.2-0.4l0.1-0.1l0,0c0-0.1,0,0,0,0l0,0
		l0.1-0.2c0-0.1,0.1-0.1,0.2-0.2c0.1-0.1,0.1-0.1,0.2-0.2c0.3-0.2,0.6-0.3,1-0.2c0.3,0.1,0.6,0.2,0.8,0.4c0.4,0.4,0.7,1,0.6,1.5
		c0,0.6-0.4,1-0.7,1.3c-0.1,0.2-0.3,0.3-0.5,0.5c-0.2,0.1-0.4,0.3-0.6,0.3c-0.2,0.1-0.4,0.2-0.6,0.2c-0.2,0.1-0.4,0.1-0.6,0.1
		c-0.7,0.2-1.4,0.1-2,0.1c-0.6,0-1.1-0.1-1.5-0.2c-0.8-0.1-1.2-0.2-1.2-0.2s0.4,0.1,1.2,0.2c0.4,0,0.9,0.1,1.4,0.1
		c0.6,0,1.2,0,1.9-0.2c0.2,0,0.3-0.1,0.5-0.2c0.2-0.1,0.4-0.1,0.5-0.2c0.2-0.1,0.3-0.2,0.5-0.3c0.1-0.1,0.3-0.3,0.4-0.4
		c0.3-0.3,0.5-0.7,0.5-1.1c0-0.4-0.2-0.9-0.5-1.1c-0.2-0.1-0.4-0.2-0.6-0.2c-0.2,0-0.4,0-0.6,0.2c0,0-0.1,0.1-0.1,0.1
		c0,0-0.1,0.1-0.1,0.1l-0.1,0.2l0,0c0,0,0,0,0,0l0,0l0,0.1c-0.1,0.1-0.1,0.2-0.1,0.4c0,0.1-0.1,0.2-0.1,0.4c-0.2,1,0,2.2,0.5,3.3
		c0.3,0.5,0.6,1,1.1,1.5c0.2,0.2,0.4,0.4,0.7,0.6c0.1,0.1,0.3,0.2,0.4,0.3l0.1,0.1l0.1,0c0,0,0,0,0,0l0.2,0.1
		c0.5,0.3,1.2,0.4,1.9,0.6c0.7,0.1,1.4,0.3,2.1,0.4c2.9,0.4,5.9,0.6,9.1,1c1.6,0.2,3.2,0.4,4.8,0.7c1.6,0.3,3.3,0.6,4.9,1.3l0.6,0.3
		l0.6,0.3c0.2,0.1,0.4,0.3,0.6,0.4l0.2,0.2l0.1,0.1l0,0c0.1,0.1,0,0,0.1,0.1l0.1,0.1c0.6,0.6,1.1,1.4,1.6,2.2
		c0.4,0.8,0.8,1.7,0.8,2.7c0,0.5-0.1,1-0.4,1.5c-0.1,0.1-0.2,0.2-0.2,0.3c-0.1,0.1-0.2,0.2-0.3,0.3c-0.1,0.1-0.2,0.2-0.4,0.3
		c-0.1,0.1-0.3,0.1-0.5,0.2c-0.1,0-0.1,0-0.2,0l-0.2,0l0,0c-0.1,0-0.1,0-0.1,0l-0.1,0l-0.2,0c-0.1,0-0.3,0-0.4,0
		c-0.1,0-0.3-0.1-0.4-0.1c-0.3-0.1-0.6-0.3-0.8-0.5c-0.1-0.1-0.2-0.2-0.3-0.4L48,82.3c0-0.1,0-0.1-0.1-0.2c-0.2-0.6-0.1-1.1,0-1.5
		c0-0.2,0.1-0.5,0.2-0.7c0.1-0.2,0.1-0.4,0.2-0.6c0.1-0.2,0.2-0.4,0.3-0.6c0.1-0.2,0.2-0.4,0.3-0.6l0.3-0.6l0.3-0.5l0.2-0.3
		c0.1-0.1,0.1-0.2,0.2-0.3c0.1-0.1,0.1-0.2,0.2-0.3l0.3-0.3c0.2-0.2,0.4-0.3,0.5-0.5c0.2-0.2,0.4-0.3,0.6-0.4
		c1.5-0.9,3.2-1.4,4.8-1.8c1.6-0.4,3.2-0.7,4.8-0.9c3.2-0.5,6.2-0.7,9.1-1c1.4-0.2,2.8-0.3,4.1-0.6c0.6-0.2,1.2-0.4,1.8-0.7
		c0.5-0.3,1-0.7,1.4-1.1c0.7-0.9,1-2.1,0.8-3.1c-0.1-0.5-0.3-1-0.6-1.3c-0.3-0.3-0.8-0.5-1.3-0.5c-0.2,0-0.4,0.1-0.5,0.2
		c-0.1,0.1-0.1,0.3-0.1,0.5c0,0.2,0.2,0.4,0.3,0.6c0.1,0.2,0.3,0.3,0.4,0.5c0.6,0.6,1.3,1,2,1.2c0.7,0.2,1.4,0.2,1.9,0.2
		c0.6,0,1.1-0.1,1.4-0.1C82.6,66.7,83,66.6,83,66.6z"/>
	<path fill="#091117" d="M5.9,47.8c0,0,0,0,0-0.1c0-0.1,0-0.2,0-0.3c0-0.1,0-0.3-0.2-0.4c0-0.1-0.1-0.1-0.2-0.2c0,0-0.1-0.1-0.1-0.1
		c-0.1,0-0.1,0-0.2-0.1c-0.2-0.1-0.5-0.1-0.7,0.1c-0.2,0.1-0.4,0.4-0.6,0.6l0,0c0,0,0,0,0,0l0,0l0,0l0,0.1c0,0,0,0.1,0,0.1
		c0,0.1,0,0.1,0,0.2c0,0.1,0,0.3,0.1,0.4c0.1,0.3,0.4,0.5,0.7,0.6c0.2,0,0.4,0.1,0.6,0.1c0.1,0,0.2,0,0.3,0l0.2,0l0,0l0,0l0,0
		c0,0,0,0,0,0l0.1,0c0.2-0.1,0.5-0.1,0.7-0.2c0.2-0.1,0.4-0.2,0.6-0.3c0.8-0.4,1.5-1.1,2.1-2c0.1-0.2,0.3-0.4,0.4-0.7
		c0.1-0.2,0.2-0.5,0.3-0.7c0.2-0.5,0.4-1.1,0.6-1.7c0.4-1.1,0.9-2.2,1.6-3.3c0.7-1,1.5-2.1,2.6-2.8c0.6-0.3,1.2-0.6,1.9-0.7
		c0.2,0,0.3,0.2,0.5,0.2L17,37h0.1l0-0.2l0.1-0.1l0.2-0.1c0.3,0,0.7,0,1,0.1c0.6,0.2,1.2,0.5,1.6,1.1c0.4,0.5,0.6,1.2,0.6,1.8
		c0,0.6-0.2,1.2-0.5,1.6c-0.3,0.5-0.8,0.8-1.3,1c-0.1,0-0.3,0.1-0.4,0.1c-0.1,0-0.1,0-0.2,0l-0.2,0c-0.2,0-0.5,0-0.7-0.1
		c-0.1,0-0.2-0.1-0.3-0.1c-0.1-0.1-0.2-0.1-0.3-0.2c-0.1-0.1-0.2-0.2-0.2-0.3l-0.1-0.1c0-0.1,0-0.1-0.1-0.2
		c-0.2-0.4-0.1-0.8,0.1-1.2c0.2-0.3,0.4-0.6,0.7-0.7c0.1,0,0.1-0.1,0.2-0.1c0.1,0,0.1,0,0.2,0c0.1,0,0.1,0,0.2,0c0.1,0,0.1,0,0.2,0
		c0.2,0,0.4,0.1,0.5,0.2c0.1,0.1,0.2,0.2,0.2,0.3c0,0.1,0,0.1,0,0.1s0,0-0.1-0.1c0-0.1-0.1-0.1-0.2-0.2c-0.1-0.1-0.3-0.1-0.5-0.1
		c0,0-0.1,0-0.1,0c0,0-0.1,0-0.2,0c-0.1,0-0.1,0-0.2,0.1c0,0-0.1,0.1-0.1,0.1c-0.2,0.1-0.3,0.3-0.4,0.6c-0.1,0.3-0.1,0.6,0,0.8
		c0.1,0.2,0.4,0.4,0.7,0.5c0.2,0,0.3,0,0.5,0l0.2,0c0,0,0.1,0,0.1,0c0.1,0,0.2,0,0.3-0.1c0.7-0.3,1.1-1.1,1-1.9
		c0-0.4-0.2-0.8-0.4-1.1c-0.3-0.3-0.6-0.5-1.1-0.6c-0.2-0.1-0.5-0.1-0.7-0.1l-0.2,0.1L17.1,38h0h0c0,0,0-0.1,0-0.1l0-0.1
		c-0.1,0-0.2,0-0.4,0c-0.5,0.1-0.9,0.2-1.4,0.5c-0.9,0.5-1.6,1.4-2.2,2.4c-0.6,1-1.1,2-1.5,3.1c-0.2,0.5-0.4,1.1-0.6,1.6
		c-0.1,0.3-0.2,0.6-0.4,0.8c-0.1,0.3-0.3,0.5-0.4,0.8c-0.7,1-1.6,1.8-2.6,2.3c-0.3,0.1-0.5,0.2-0.8,0.3c-0.2,0.1-0.5,0.1-0.7,0.1
		L6,49.8c-0.1,0,0,0.2,0,0.2h0l0-0.2l0-0.1l-0.2,0c-0.1,0-0.3,0-0.4,0c-0.3,0-0.5-0.1-0.8-0.2c-0.5-0.2-0.9-0.6-1.1-1.1
		c-0.1-0.2-0.1-0.5-0.1-0.7c0-0.1,0-0.2,0.1-0.4c0-0.1,0.1-0.1,0.1-0.2l0-0.1l0,0l0,0l0,0c0.2-0.3,0.5-0.6,0.9-0.7
		c0.3-0.1,0.7-0.1,1,0c0.1,0,0.1,0.1,0.2,0.1c0.1,0,0.1,0.1,0.2,0.1c0.1,0.1,0.2,0.2,0.2,0.3C6,47,6,47.2,6,47.4
		C6,47.5,6,47.6,5.9,47.8C5.9,47.8,5.9,47.8,5.9,47.8z"/>
	<path fill="#091117" d="M94.6,47.8C94.6,47.8,94.6,47.8,94.6,47.8c-0.1-0.2-0.1-0.3-0.1-0.4c0-0.1,0-0.3,0.1-0.5
		c0-0.1,0.1-0.2,0.2-0.3c0,0,0.1-0.1,0.2-0.1c0,0,0.1-0.1,0.2-0.1c0.3-0.1,0.6-0.2,1,0c0.3,0.1,0.6,0.4,0.9,0.7l0,0l0,0l0,0l0,0.1
		c0,0,0.1,0.1,0.1,0.2c0,0.1,0.1,0.2,0.1,0.4c0,0.2,0,0.5-0.1,0.7c-0.2,0.5-0.6,0.9-1.1,1.1c-0.2,0.1-0.5,0.2-0.8,0.2
		c-0.1,0-0.3,0-0.4,0l-0.2,0l0,0.2l0,0.2h0c0,0,0-0.2,0-0.2l-0.1-0.1c-0.2,0-0.5-0.1-0.7-0.2c-0.3-0.1-0.5-0.2-0.8-0.3
		c-1-0.4-2-1.2-2.6-2.3c-0.1-0.3-0.3-0.5-0.4-0.8c-0.1-0.3-0.3-0.6-0.4-0.8c-0.2-0.5-0.4-1.1-0.6-1.6c-0.4-1.1-0.9-2.1-1.5-3.1
		c-0.6-1-1.3-1.8-2.2-2.4c-0.4-0.3-0.9-0.4-1.4-0.5c-0.1,0-0.2,0-0.4,0l0,0.1c0,0,0,0.1,0,0.1h0h0h-0.1H83c-0.2,0-0.5-0.1-0.7-0.1
		c-0.4,0.1-0.8,0.3-1.1,0.6c-0.3,0.3-0.4,0.7-0.4,1.1c-0.1,0.8,0.4,1.6,1,1.9c0.1,0,0.2,0.1,0.3,0.1c0,0,0.1,0,0.1,0l0.2,0
		c0.2,0,0.4,0,0.5,0c0.3-0.1,0.6-0.2,0.7-0.5c0.1-0.2,0.1-0.6,0-0.8c-0.1-0.3-0.2-0.5-0.4-0.6c0,0-0.1-0.1-0.1-0.1
		c-0.1,0-0.1,0-0.2-0.1c-0.1,0-0.1,0-0.2,0c0,0-0.1,0-0.1,0c-0.2,0-0.3,0-0.5,0.1c-0.1,0.1-0.2,0.2-0.2,0.2c0,0.1-0.1,0.1-0.1,0.1
		s0,0,0-0.1c0-0.1,0.1-0.2,0.2-0.3c0.1-0.1,0.3-0.2,0.5-0.2c0.1,0,0.1,0,0.2,0c0.1,0,0.1,0,0.2,0c0.1,0,0.1,0,0.2,0
		c0.1,0,0.1,0,0.2,0.1c0.3,0.1,0.5,0.4,0.7,0.7c0.2,0.3,0.2,0.7,0.1,1.2c0,0.1,0,0.1-0.1,0.2L84,41.6c-0.1,0.1-0.2,0.2-0.2,0.3
		c-0.1,0.1-0.2,0.1-0.3,0.2c-0.1,0.1-0.2,0.1-0.3,0.1c-0.2,0.1-0.5,0.1-0.7,0.1l-0.2,0c-0.1,0-0.1,0-0.2,0c-0.1,0-0.3,0-0.4-0.1
		c-0.5-0.2-1-0.5-1.3-1c-0.3-0.5-0.5-1-0.5-1.6c0-0.6,0.2-1.2,0.6-1.8c0.4-0.5,1-0.9,1.6-1.1c0.3-0.1,0.6-0.1,1-0.2l0.2,0l0.1,0.2
		l0,0.2h0.1l0.1-0.2c0.2,0,0.3-0.1,0.5-0.1c0.7,0.1,1.3,0.2,1.9,0.6c1.1,0.7,2,1.7,2.6,2.7c0.6,1.1,1.1,2.2,1.6,3.3
		c0.2,0.6,0.4,1.1,0.6,1.6c0.1,0.3,0.2,0.5,0.3,0.7c0.1,0.2,0.2,0.5,0.4,0.7c0.5,0.9,1.2,1.6,2.1,2c0.2,0.1,0.4,0.2,0.6,0.3
		c0.2,0.1,0.5,0.1,0.7,0.2l0.1,0c-0.1,0,0,0,0,0l0,0l0,0l0,0l0.2,0c0.1,0,0.2,0,0.3,0c0.2,0,0.4,0,0.6-0.1c0.3-0.1,0.6-0.3,0.7-0.6
		c0.1-0.1,0.1-0.3,0.1-0.4c0-0.1,0-0.2,0-0.2c0,0,0,0,0-0.1l0-0.1l0,0l0,0c0,0,0,0,0,0l0,0c-0.2-0.3-0.4-0.5-0.6-0.6
		c-0.2-0.1-0.5-0.2-0.7-0.1c-0.1,0-0.1,0-0.2,0.1c-0.1,0-0.1,0-0.1,0.1c-0.1,0.1-0.2,0.1-0.2,0.2c-0.1,0.1-0.2,0.3-0.2,0.4
		c0,0.1,0,0.2,0,0.3C94.6,47.8,94.6,47.8,94.6,47.8z"/>
	<path fill="#091117" d="M94.6,53.9c0,0,0,0,0,0.1c0,0.1,0,0.2,0,0.3c0,0.1,0,0.3,0.2,0.4c0,0.1,0.1,0.1,0.2,0.2
		c0,0,0.1,0.1,0.1,0.1c0.1,0,0.1,0,0.2,0.1c0.2,0.1,0.5,0.1,0.7-0.1c0.2-0.1,0.4-0.4,0.6-0.6l0,0c0,0,0,0,0,0l0,0l0,0l0-0.1
		c0,0,0-0.1,0-0.1c0-0.1,0-0.1,0-0.2c0-0.1,0-0.3-0.1-0.4c-0.1-0.3-0.4-0.5-0.7-0.6c-0.2,0-0.4-0.1-0.6-0.1c-0.1,0-0.2,0-0.3,0
		l-0.2,0l0,0l0,0l0,0c0,0,0,0,0,0l-0.1,0c-0.2,0.1-0.5,0.1-0.7,0.2c-0.2,0.1-0.4,0.2-0.6,0.3c-0.8,0.4-1.5,1.1-2.1,2
		c-0.1,0.2-0.3,0.4-0.4,0.7c-0.1,0.2-0.2,0.5-0.3,0.7c-0.2,0.5-0.4,1.1-0.6,1.7c-0.4,1.1-0.9,2.2-1.6,3.3c-0.7,1-1.5,2.1-2.6,2.8
		c-0.6,0.3-1.2,0.6-1.9,0.7c-0.2,0-0.3-0.1-0.5-0.1L83.4,65h-0.1h0h-0.1L83,65.1c-0.3,0-0.7,0-1-0.1c-0.6-0.2-1.2-0.5-1.6-1.1
		c-0.4-0.5-0.6-1.2-0.6-1.8c0-0.6,0.2-1.2,0.5-1.6c0.3-0.5,0.8-0.8,1.3-1c0.1,0,0.3-0.1,0.4-0.1c0.1,0,0.1,0,0.2,0l0.2,0
		c0.2,0,0.5,0,0.7,0.1c0.1,0,0.2,0.1,0.3,0.1c0.1,0.1,0.2,0.1,0.3,0.2c0.1,0.1,0.2,0.2,0.2,0.3l0.1,0.1c0,0.1,0,0.1,0.1,0.2
		c0.2,0.4,0.1,0.8-0.1,1.2c-0.2,0.3-0.4,0.6-0.7,0.7c-0.1,0-0.1,0.1-0.2,0.1c-0.1,0-0.1,0-0.2,0c-0.1,0-0.1,0-0.2,0
		c-0.1,0-0.1,0-0.2,0c-0.2,0-0.4-0.1-0.5-0.2C82.1,62,82,61.9,82,61.9c0-0.1,0-0.1,0-0.1s0,0,0.1,0.1c0,0.1,0.1,0.1,0.2,0.2
		c0.1,0.1,0.3,0.1,0.5,0.1c0,0,0.1,0,0.1,0c0,0,0.1,0,0.2,0c0.1,0,0.1,0,0.2-0.1c0,0,0.1-0.1,0.1-0.1c0.2-0.1,0.3-0.3,0.4-0.6
		c0.1-0.3,0.1-0.6,0-0.8c-0.1-0.2-0.4-0.4-0.7-0.5c-0.2,0-0.3,0-0.5,0l-0.2,0c0,0-0.1,0-0.1,0c-0.1,0-0.2,0-0.3,0.1
		c-0.7,0.3-1.1,1.1-1,1.9c0,0.4,0.2,0.8,0.4,1.1c0.3,0.3,0.6,0.5,1.1,0.6C82.6,64,82.8,64,83,64l0.2,0l0.1,0h0h0c0,0,0,0,0,0l0,0
		c0.1,0,0.2,0,0.4,0c0.5-0.1,0.9-0.3,1.4-0.5c0.9-0.5,1.6-1.4,2.2-2.4c0.6-1,1.1-2,1.5-3.1c0.2-0.5,0.4-1.1,0.6-1.6
		c0.1-0.3,0.2-0.6,0.4-0.8c0.1-0.3,0.3-0.5,0.4-0.8c0.7-1,1.6-1.8,2.6-2.3c0.3-0.1,0.5-0.2,0.8-0.3c0.2-0.1,0.5-0.1,0.7-0.1l0.1,0
		c0.1,0,0,0,0,0h0l0,0l0,0l0.2,0c0.1,0,0.3,0,0.4,0c0.3,0,0.5,0.1,0.8,0.2c0.5,0.2,0.9,0.6,1.1,1.1c0.1,0.2,0.1,0.5,0.1,0.7
		c0,0.1,0,0.2-0.1,0.4c0,0.1-0.1,0.1-0.1,0.2l0,0.1l0,0l0,0l0,0c-0.2,0.3-0.5,0.6-0.9,0.7c-0.3,0.1-0.7,0.1-1,0
		c-0.1,0-0.1-0.1-0.2-0.1c-0.1,0-0.1-0.1-0.2-0.1c-0.1-0.1-0.2-0.2-0.2-0.3c-0.1-0.2-0.1-0.4-0.1-0.5C94.4,54.2,94.5,54.1,94.6,53.9
		C94.6,53.9,94.6,53.9,94.6,53.9z"/>
	<path fill="#091117" d="M5.9,53.9C5.9,53.9,5.9,53.9,5.9,53.9C6,54.1,6,54.2,6,54.3c0,0.1,0,0.3-0.1,0.5c0,0.1-0.1,0.2-0.2,0.3
		c0,0-0.1,0.1-0.2,0.1c0,0-0.1,0.1-0.2,0.1c-0.3,0.1-0.6,0.2-1,0c-0.3-0.1-0.6-0.4-0.9-0.7l0,0l0,0l0,0l0-0.1c0,0-0.1-0.1-0.1-0.2
		c0-0.1-0.1-0.2-0.1-0.4c0-0.2,0-0.5,0.1-0.7c0.2-0.5,0.6-0.9,1.1-1.1C4.7,52.1,5,52.1,5.3,52c0.1,0,0.3,0,0.4,0l0.2,0l0,0l0,0h0
		c0,0,0,0,0,0l0.1,0c0.2,0,0.5,0.1,0.7,0.1c0.3,0.1,0.5,0.2,0.8,0.3c1,0.4,2,1.2,2.6,2.3c0.1,0.3,0.3,0.5,0.4,0.8
		c0.1,0.3,0.3,0.6,0.4,0.8c0.2,0.5,0.4,1.1,0.6,1.6c0.4,1.1,0.9,2.1,1.5,3.1c0.6,1,1.3,1.8,2.2,2.4c0.4,0.3,0.9,0.4,1.4,0.5
		c0.1,0,0.2,0,0.4,0l0,0c0,0,0,0,0,0h0h0l0.1,0l0.2,0c0.2,0,0.5,0,0.7-0.1c0.4-0.1,0.8-0.3,1.1-0.6c0.3-0.3,0.4-0.7,0.4-1.1
		c0.1-0.8-0.4-1.7-1-1.9c-0.1,0-0.2-0.1-0.3-0.1c0,0-0.1,0-0.1,0l-0.2,0c-0.2,0-0.4,0-0.5,0c-0.3,0.1-0.6,0.2-0.7,0.5
		c-0.1,0.2-0.1,0.6,0,0.8c0.1,0.3,0.2,0.5,0.4,0.6c0,0,0.1,0.1,0.1,0.1c0.1,0,0.1,0,0.2,0.1c0.1,0,0.1,0,0.2,0c0,0,0.1,0,0.1,0
		c0.2,0,0.3,0,0.5-0.1c0.1-0.1,0.2-0.2,0.2-0.2c0-0.1,0.1-0.1,0.1-0.1s0,0,0,0.1c0,0.1-0.1,0.2-0.2,0.3c-0.1,0.1-0.3,0.2-0.5,0.2
		c-0.1,0-0.1,0-0.2,0c-0.1,0-0.1,0-0.2,0c-0.1,0-0.1,0-0.2,0c-0.1,0-0.1,0-0.2-0.1c-0.3-0.1-0.5-0.4-0.7-0.7
		c-0.2-0.3-0.2-0.7-0.1-1.2c0-0.1,0-0.1,0.1-0.2l0.1-0.1c0.1-0.1,0.2-0.2,0.2-0.3c0.1-0.1,0.2-0.1,0.3-0.2c0.1-0.1,0.2-0.1,0.3-0.1
		c0.2-0.1,0.5-0.1,0.7-0.1l0.2,0c0.1,0,0.1,0,0.2,0c0.1,0,0.3,0,0.4,0.1c0.5,0.2,1,0.5,1.3,1c0.3,0.5,0.5,1,0.5,1.6
		c0,0.6-0.2,1.2-0.6,1.8c-0.4,0.5-1,0.9-1.6,1.1c-0.3,0.1-0.6,0.1-1,0.2l-0.2,0l-0.1-0.1l0-0.1H17L17,65.1c-0.2,0-0.3,0-0.5,0
		c-0.7-0.1-1.3-0.3-1.9-0.6c-1.1-0.7-2-1.7-2.6-2.7c-0.6-1.1-1.1-2.2-1.6-3.3c-0.2-0.6-0.4-1.1-0.6-1.6c-0.1-0.3-0.2-0.5-0.3-0.7
		c-0.1-0.2-0.2-0.5-0.4-0.7c-0.5-0.9-1.2-1.6-2.1-2c-0.2-0.1-0.4-0.2-0.6-0.3c-0.2-0.1-0.5-0.1-0.7-0.2l-0.1,0c0.1,0,0,0,0,0l0,0
		l0,0l0,0l-0.2,0c-0.1,0-0.2,0-0.3,0c-0.2,0-0.4,0-0.6,0.1C4.4,53,4.1,53.2,4,53.5c-0.1,0.1-0.1,0.3-0.1,0.4c0,0.1,0,0.2,0,0.2
		c0,0,0,0,0,0.1l0,0.1l0,0l0,0c0,0,0,0,0,0l0,0c0.2,0.3,0.4,0.5,0.6,0.6c0.2,0.1,0.5,0.2,0.7,0.1c0.1,0,0.1,0,0.2-0.1
		c0.1,0,0.1,0,0.1-0.1c0.1-0.1,0.2-0.1,0.2-0.2c0.1-0.1,0.2-0.3,0.2-0.4c0-0.1,0-0.2,0-0.3C5.9,53.9,5.9,53.9,5.9,53.9z"/>
</g>
</svg>
