<?xml version="1.0" encoding="utf-8"?>
<!-- Generator: Adobe Illustrator 18.1.0, SVG Export Plug-In . SVG Version: 6.00 Build 0)  -->
<svg version="1.1" id="Layer_1" xmlns="http://www.w3.org/2000/svg" xmlns:xlink="http://www.w3.org/1999/xlink" x="0px" y="0px"
	 viewBox="0 0 100 100" enable-background="new 0 0 100 100" xml:space="preserve">
<g>
	<path fill="#091117" d="M10.5,61.2c0,0,0.1,0,0.2,0c0.2,0,0.4,0,0.7,0.1c0,0,0,0,0.1,0c0,0,0.1,0,0.1,0c-2.9-3.7-4.6-8.3-4.6-13.4
		c0-12,9.7-21.7,21.7-21.7c5.6-5.7,13.4-9.2,22-9.2c8.6,0,16.4,3.5,22,9.2c0,0,0,0,0,0c12,0,21.7,9.7,21.7,21.7
		c0,5.1-1.7,9.7-4.6,13.4c0,0,0.1,0,0.1,0l0.1,0c0.3-0.1,0.6-0.1,0.8-0.1c0.1,0,0.1,0,0.2,0c2.7-3.7,4.3-8.4,4.3-13.3
		c0-12.4-9.9-22.4-22.3-22.6C67.3,19.5,59.3,16,50.6,16c-8.7,0-16.7,3.5-22.4,9.2C15.9,25.4,5.9,35.5,5.9,47.9c0,5,1.6,9.6,4.4,13.3
		C10.4,61.2,10.4,61.2,10.5,61.2z"/>
	<path fill="#091117" d="M86.5,62.5c0.1,0.1,0.2,0.2,0.3,0.3c0.1-0.1,0.3-0.2,0.4-0.4c3.7-3.7,6-8.9,6-14.6c0-5.7-2.3-10.8-6-14.6
		c-3.7-3.7-8.9-6-14.6-6h0l-0.5,0l-0.3-0.3C66.4,21.4,58.9,18,50.6,18c-8.3,0-15.8,3.4-21.2,8.9L29,27.2h-0.5
		c-11.4,0-20.6,9.2-20.6,20.6v0l0,0c0,5.9,2.5,11.2,6.4,14.9c0.1-0.1,0.2-0.2,0.3-0.3c-3.9-3.7-6.3-8.9-6.3-14.6v0v0
		c0-11.1,9-20.2,20.2-20.2h0.7l0.5-0.5c5.3-5.4,12.7-8.8,20.9-8.8c8.2,0,15.6,3.3,20.9,8.8l0.5,0.5h0.7h0c5.6,0,10.6,2.3,14.3,5.9
		c3.7,3.7,5.9,8.7,5.9,14.3c0,5.6-2.3,10.6-5.9,14.3C86.8,62.3,86.7,62.4,86.5,62.5z"/>
	<path fill="#091117" d="M93,64.6c0-0.1,0-0.1-0.1-0.2c0-0.1-0.1-0.2-0.1-0.3c-0.1-0.2-0.2-0.4-0.4-0.6c-0.1-0.1-0.2-0.3-0.4-0.4
		c-0.1-0.1-0.3-0.2-0.4-0.3c-0.2-0.1-0.3-0.1-0.5-0.2c-0.2,0-0.4-0.1-0.5-0.1c-0.2,0-0.4,0-0.5,0c0,0-0.1,0-0.1,0c0,0,0,0-0.1,0l0,0
		l0,0c-0.1,0-0.2,0-0.2,0.1c-0.3,0.1-0.6,0.3-0.9,0.5c-0.3,0.2-0.5,0.5-0.7,0.7c-0.2,0.3-0.3,0.6-0.4,0.8c-0.1,0.3-0.1,0.6-0.2,0.9
		c0,0.2,0,0.4,0,0.5c-0.2-0.5-0.4-1-0.8-1.4c-0.4-0.5-0.9-1-1.4-1.3c-0.4-0.3-0.8-0.5-1.1-0.6c-0.3-0.1-0.6-0.2-0.9-0.2
		c-0.3,0-0.6,0-0.9,0c-0.3,0-0.6,0.1-0.9,0.2c-0.3,0.1-0.7,0.2-1.1,0.4c-0.2,0.1-0.4,0.2-0.6,0.3c-0.2,0.1-0.5,0.3-0.7,0.5
		c-0.2,0.2-0.5,0.4-0.7,0.7c-0.2,0.3-0.4,0.6-0.6,0.9c-0.1,0.2-0.2,0.4-0.2,0.6c0,0.1-0.1,0.2-0.1,0.3c0,0.1-0.1,0.2-0.1,0.3
		c0,0,0,0.1,0,0.1c0,0,0,0.1,0,0.1c-0.1,0.5-0.1,0.9,0,1.3c0.1,0.4,0.2,0.7,0.4,1c0.2,0.3,0.4,0.5,0.6,0.7c0.2,0.2,0.4,0.3,0.6,0.4
		c0.2,0.1,0.3,0.2,0.5,0.2c0.1,0.1,0.2,0.1,0.3,0.1c0.1,0,0.1,0,0.1,0c0,0,0,0-0.1-0.1c-0.1,0-0.2-0.1-0.3-0.1
		c-0.1-0.1-0.3-0.2-0.4-0.3c-0.2-0.1-0.3-0.3-0.5-0.5c-0.2-0.2-0.3-0.4-0.5-0.7c-0.1-0.3-0.3-0.6-0.3-0.9c-0.1-0.3-0.1-0.7,0-1.1
		c0-0.1,0-0.2,0.1-0.3c0-0.1,0.1-0.2,0.1-0.3c0.1-0.2,0.2-0.4,0.3-0.6c0.2-0.4,0.6-0.8,1-1.1c0.4-0.3,0.9-0.6,1.4-0.7
		c0.5-0.1,1.1-0.2,1.7-0.1c0.1,0,0.3,0.1,0.4,0.1c0.1,0,0.1,0,0.2,0.1c0.1,0,0.1,0.1,0.2,0.1c0.3,0.1,0.6,0.2,0.8,0.4
		c0.5,0.3,1,0.8,1.4,1.3c0.4,0.5,0.7,1.1,0.9,1.8c0.2,0.7,0.2,1.4,0.1,2.1c0,0.2-0.1,0.3-0.1,0.5c0,0.1,0,0.1,0,0.1
		c0,0.1,0,0.1,0,0.1c0,0.1-0.1,0.2-0.1,0.3c-0.1,0.4-0.3,0.7-0.5,1c-0.4,0.6-0.9,1.2-1.4,1.7c-0.6,0.5-1.2,0.9-1.8,1.1
		c-0.7,0.3-1.3,0.4-2,0.5c-0.7,0.1-1.4,0-2-0.1c-0.1,0-0.2,0-0.2-0.1c0,0-0.1,0-0.1,0l-0.1,0c-0.2-0.1-0.3-0.1-0.5-0.2
		c-0.3-0.1-0.6-0.2-0.9-0.4c0,0-0.1,0-0.1-0.1c0.1-0.3,0.1-0.6,0.2-0.9c0.1-0.7,0.1-1.5,0.1-2.3c-0.1-0.8-0.2-1.6-0.5-2.4
		c-0.2-0.8-0.6-1.6-1-2.2c-0.4-0.7-0.8-1.3-1.3-1.8c-0.5-0.6-1-1-1.5-1.4c-0.5-0.4-1-0.7-1.5-1c-0.5-0.3-0.9-0.4-1.3-0.6
		c-0.4-0.1-0.8-0.2-1-0.3c-0.1,0-0.1,0-0.2,0c-0.9-0.3-1.8-0.5-2.7-0.6c-1.1-0.1-2.2-0.1-3.2,0.1c-1,0.1-2,0.4-2.9,0.7
		c-0.9,0.3-1.8,0.7-2.5,1.2c-0.8,0.5-1.5,1-2.1,1.5c-0.4,0.4-0.8,0.8-1.2,1.2c-0.1,0-0.4,0-0.5,0c-0.4,0-0.7,0-1-0.1
		c-0.3-0.1-0.6-0.2-0.8-0.3c-0.2-0.1-0.4-0.3-0.6-0.5c0,0,0,0-0.1-0.1c0,0,0,0-0.1-0.1c0,0-0.1-0.1-0.1-0.1c0.1-0.1,0.2-0.2,0.2-0.3
		c0.1-0.2,0.2-0.3,0.2-0.5c0-0.2,0.1-0.4,0.1-0.6c0-0.2,0-0.4,0-0.6c0-0.2-0.1-0.4-0.1-0.5c-0.1-0.2-0.2-0.4-0.3-0.6
		c0-0.1,0.1-0.1,0.1-0.2c0,0,0.1-0.1,0.1-0.1c0,0,0,0,0,0c0,0,0,0,0,0c0,0,0.1,0,0.1-0.1c0.1-0.1,0.2-0.2,0.3-0.2
		c0.1-0.1,0.2-0.1,0.4-0.2c0.2-0.1,0.4-0.1,0.6-0.1c0.2,0,0.4,0.1,0.5,0.1c0.2,0.1,0.3,0.2,0.4,0.3c0,0,0,0,0,0c0,0,0,0,0,0
		c0,0,0,0.1,0.1,0.1c0,0.1,0.1,0.1,0.1,0.2c0.1,0.1,0.1,0.3,0.1,0.4c0,0.1,0,0.2-0.1,0.3c0,0.1-0.1,0.2-0.2,0.3c0,0-0.1,0.1-0.1,0.1
		c0,0,0,0,0,0l0,0h0l0,0l0,0l0,0l0,0h0l0,0l0,0l0,0c0,0,0,0,0,0c-0.1,0-0.1,0-0.2,0.1c-0.1,0-0.1,0-0.2,0c-0.1,0-0.1,0-0.1,0
		c0,0-0.1,0-0.1,0c0,0-0.1,0-0.1,0c0,0-0.1,0-0.1,0.1c0,0-0.1,0.1-0.1,0.1c-0.1,0.1-0.1,0.1-0.2,0.2c0,0.1-0.1,0.2-0.1,0.2
		c0,0.1,0,0.2,0.1,0.3c0.1,0.1,0.2,0.2,0.3,0.2c0.1,0.1,0.3,0.1,0.5,0.1c0.2,0,0.4,0,0.6-0.1c0.1,0,0.2-0.1,0.3-0.2
		c0.1-0.1,0.2-0.2,0.3-0.2c0,0,0,0,0.1-0.1l0,0l0,0l0,0v0h0l0,0l0,0l0,0c0,0,0,0,0,0c0,0,0-0.1,0-0.1c0.1-0.1,0.1-0.2,0.1-0.3
		c0.1-0.2,0.1-0.5,0.1-0.7c0-0.3-0.1-0.5-0.2-0.7c-0.1-0.1-0.1-0.2-0.2-0.3c-0.1-0.1-0.2-0.2-0.3-0.3c0,0-0.1-0.1-0.2-0.1
		c-0.1,0-0.1-0.1-0.2-0.1c-0.1-0.1-0.2-0.1-0.3-0.1c-0.2-0.1-0.5-0.1-0.7-0.1c-0.2,0-0.5,0.1-0.7,0.1c-0.2,0.1-0.4,0.2-0.6,0.4
		c0,0-0.1,0.1-0.1,0.1c0,0-0.1,0.1-0.1,0.1c-0.1,0.1-0.1,0.1-0.2,0.2c0-0.1-0.1-0.1-0.2-0.2c0,0-0.1-0.1-0.1-0.1
		c-0.1,0-0.1-0.1-0.1-0.1c-0.2-0.2-0.4-0.3-0.6-0.4c-0.2-0.1-0.5-0.1-0.7-0.1c-0.2,0-0.5,0-0.7,0.1c-0.1,0-0.2,0.1-0.3,0.1
		c-0.1,0-0.1,0.1-0.2,0.1c-0.1,0-0.1,0.1-0.2,0.1c-0.1,0.1-0.2,0.2-0.3,0.3c-0.1,0.1-0.1,0.2-0.2,0.3c-0.1,0.2-0.2,0.5-0.2,0.7
		c0,0.2,0,0.5,0.1,0.7c0,0.1,0.1,0.2,0.1,0.3c0,0,0,0.1,0,0.1c0,0,0,0,0,0l0,0c0,0,0,0,0,0l0,0l0,0l0,0l0,0l0,0l0,0c0,0,0,0,0.1,0.1
		c0.1,0.1,0.2,0.2,0.3,0.2c0.1,0.1,0.2,0.1,0.3,0.2c0.2,0.1,0.4,0.1,0.6,0.1c0.2,0,0.3,0,0.5-0.1c0.1-0.1,0.2-0.1,0.3-0.2
		c0.1-0.1,0.1-0.2,0.1-0.3c0-0.1,0-0.2-0.1-0.2c0-0.1-0.1-0.1-0.2-0.2c0,0-0.1-0.1-0.2-0.1c0,0-0.1,0-0.1-0.1c-0.1,0-0.1,0-0.1,0
		c0,0-0.1,0-0.1,0c0,0-0.1,0-0.1,0c-0.1,0-0.1,0-0.2,0c-0.1,0-0.1,0-0.2-0.1c0,0,0,0,0,0l0,0l0,0l0,0l0,0l0,0l0,0l0,0l0,0l0,0h0
		c0,0,0,0,0,0c0,0-0.1-0.1-0.1-0.1c-0.1-0.1-0.1-0.2-0.2-0.3c0-0.1-0.1-0.2-0.1-0.3c0-0.1,0-0.3,0.1-0.4c0-0.1,0.1-0.1,0.1-0.2
		c0,0,0.1-0.1,0.1-0.1c0,0,0,0,0,0c0,0,0,0,0,0c0.1-0.1,0.3-0.2,0.4-0.3c0.2-0.1,0.3-0.1,0.5-0.1c0.2,0,0.4,0,0.6,0.1
		c0.1,0.1,0.3,0.1,0.4,0.2c0.1,0.1,0.2,0.1,0.3,0.2c0,0,0,0,0.1,0.1c0,0,0,0,0,0c0,0,0,0,0,0c0,0,0.1,0.1,0.1,0.1
		c0,0,0.1,0.1,0.1,0.2c-0.1,0.2-0.2,0.4-0.3,0.6c-0.1,0.2-0.1,0.3-0.1,0.5c0,0.2-0.1,0.4,0,0.6c0,0.2,0,0.4,0.1,0.6
		c0,0.2,0.1,0.4,0.2,0.5c0.1,0.1,0.1,0.2,0.2,0.3c0,0-0.1,0.1-0.1,0.1c0,0,0,0-0.1,0.1c0,0,0,0-0.1,0.1c-0.2,0.2-0.4,0.3-0.6,0.5
		c-0.2,0.1-0.5,0.3-0.8,0.3c-0.3,0.1-0.6,0.1-1,0.1c-0.2,0-0.4,0-0.5,0c-0.4-0.4-0.8-0.8-1.2-1.2c-0.6-0.6-1.3-1.1-2.1-1.5
		c-0.8-0.5-1.6-0.9-2.5-1.2c-0.9-0.3-1.9-0.6-2.9-0.7c-1-0.1-2.1-0.2-3.2-0.1c-0.9,0.1-1.8,0.3-2.7,0.6c-0.1,0-0.1,0-0.2,0
		c-0.3,0.1-0.6,0.1-1,0.3c-0.4,0.1-0.8,0.3-1.3,0.6c-0.5,0.2-1,0.6-1.5,1c-0.5,0.4-1,0.8-1.5,1.4c-0.5,0.5-0.9,1.2-1.3,1.8
		c-0.4,0.7-0.7,1.4-1,2.2c-0.2,0.8-0.4,1.6-0.4,2.4c-0.1,0.8,0,1.5,0.1,2.3c0,0.3,0.1,0.6,0.2,0.9c0,0-0.1,0-0.1,0.1
		c-0.3,0.2-0.6,0.3-0.9,0.4c-0.2,0.1-0.3,0.1-0.5,0.2l-0.1,0c0,0-0.1,0-0.1,0c-0.1,0-0.2,0-0.2,0.1c-0.6,0.1-1.3,0.2-2,0.1
		c-0.7,0-1.4-0.2-2-0.5c-0.7-0.3-1.3-0.7-1.8-1.1c-0.6-0.5-1-1.1-1.4-1.7c-0.2-0.3-0.3-0.7-0.5-1c0-0.1-0.1-0.2-0.1-0.3
		c0,0,0-0.1,0-0.1c0,0,0-0.1,0-0.1c0-0.2-0.1-0.3-0.1-0.5c-0.1-0.7-0.1-1.4,0.1-2.1c0.2-0.7,0.5-1.3,0.9-1.8c0.4-0.5,0.9-1,1.4-1.3
		c0.3-0.2,0.6-0.3,0.8-0.4c0.1,0,0.1-0.1,0.2-0.1c0.1,0,0.2-0.1,0.2-0.1c0.1,0,0.3-0.1,0.4-0.1c0.6-0.1,1.1-0.1,1.7,0.1
		c0.5,0.1,1,0.4,1.4,0.7c0.4,0.3,0.7,0.7,1,1.1c0.1,0.2,0.2,0.4,0.3,0.6c0,0.1,0.1,0.2,0.1,0.3c0,0.1,0.1,0.2,0.1,0.3
		c0.1,0.4,0.1,0.8,0,1.1c-0.1,0.4-0.2,0.7-0.3,0.9c-0.1,0.3-0.3,0.5-0.5,0.7c-0.2,0.2-0.4,0.3-0.5,0.5c-0.2,0.1-0.3,0.2-0.4,0.3
		c-0.1,0.1-0.2,0.1-0.3,0.1c-0.1,0-0.1,0.1-0.1,0.1c0,0,0,0,0.1,0c0.1,0,0.2,0,0.3-0.1c0.1,0,0.3-0.1,0.5-0.2
		c0.2-0.1,0.4-0.2,0.6-0.4c0.2-0.2,0.4-0.4,0.6-0.7c0.2-0.3,0.3-0.6,0.4-1c0.1-0.4,0.1-0.8,0-1.3c0,0,0,0,0-0.1c0,0,0-0.1,0-0.1
		c0-0.1,0-0.2-0.1-0.3c0-0.1-0.1-0.2-0.1-0.3c-0.1-0.2-0.1-0.4-0.2-0.6c-0.2-0.4-0.4-0.7-0.6-0.9c-0.2-0.3-0.5-0.5-0.7-0.7
		c-0.2-0.2-0.5-0.3-0.7-0.5c-0.2-0.1-0.4-0.2-0.6-0.3c-0.4-0.2-0.8-0.3-1.1-0.4c-0.3-0.1-0.6-0.1-0.9-0.2c-0.3,0-0.6,0-0.8,0
		c-0.3,0-0.6,0.1-0.9,0.2c-0.3,0.1-0.7,0.3-1.1,0.6c-0.5,0.4-1,0.8-1.4,1.3c-0.3,0.4-0.6,0.9-0.8,1.4c0-0.2,0-0.3,0-0.5
		c0-0.3-0.1-0.6-0.1-0.9c-0.1-0.3-0.2-0.6-0.4-0.8c-0.2-0.3-0.4-0.5-0.7-0.7c-0.3-0.2-0.6-0.4-0.9-0.5c-0.1,0-0.2-0.1-0.2-0.1l0,0
		l0,0c0,0,0,0-0.1,0c0,0-0.1,0-0.1,0c-0.2,0-0.4-0.1-0.5,0c-0.2,0-0.3,0-0.5,0.1c-0.2,0-0.3,0.1-0.5,0.2c-0.2,0.1-0.3,0.2-0.4,0.3
		c-0.1,0.1-0.2,0.2-0.3,0.4c-0.1,0.2-0.3,0.4-0.4,0.6c-0.1,0.1-0.1,0.2-0.1,0.3c0,0.1,0,0.1,0,0.2c0,0.1,0,0.1,0,0.2
		c0,0.2,0,0.4,0,0.7c0,0.2,0.1,0.4,0.2,0.6c0.1,0.2,0.2,0.4,0.4,0.5c0.1,0.1,0.2,0.2,0.3,0.2c0.1,0,0.1,0.1,0.2,0.1
		c0,0,0.1,0.1,0.2,0.1c0.1,0.1,0.2,0.1,0.3,0.1c0.1,0,0.2,0,0.3,0c0.2,0,0.5-0.1,0.7-0.2c0.2-0.1,0.4-0.2,0.5-0.4
		c0.1-0.1,0.1-0.2,0.2-0.3c0,0,0-0.1,0-0.1c0,0,0,0,0,0l0,0l0,0l0,0l0,0l0,0l0,0l0,0c0,0,0,0,0,0c0,0,0-0.1,0-0.1
		c0-0.1,0.1-0.2,0.1-0.3c0-0.1,0-0.2,0-0.3c0-0.2-0.1-0.4-0.2-0.5c-0.1-0.2-0.2-0.3-0.3-0.3c-0.1-0.1-0.2-0.1-0.3-0.1
		c-0.1,0-0.2,0-0.2,0c-0.1,0-0.1,0.1-0.2,0.2c0,0.1-0.1,0.1-0.1,0.2c0,0.1,0,0.1,0,0.2c0,0.1,0,0.1,0,0.1c0,0,0,0.1,0,0.1
		c0,0,0,0.1,0,0.1c0,0,0,0.1,0.1,0.1c0,0,0,0.1,0,0.1c0,0,0,0.1,0,0.2v0v0l0,0l0,0v0l0,0l0,0v0v0h0c0,0,0,0,0,0c0,0,0,0.1,0,0.1
		c0,0.1-0.1,0.2-0.1,0.2c-0.1,0.1-0.2,0.2-0.2,0.2c-0.1,0.1-0.2,0.1-0.4,0.1c-0.1,0-0.1,0-0.2,0c0,0-0.1,0-0.1,0c0,0,0,0-0.1,0
		c0,0,0,0-0.1,0c-0.1,0-0.3-0.1-0.4-0.2c-0.1-0.1-0.3-0.2-0.3-0.4c-0.1-0.1-0.2-0.3-0.2-0.5c0-0.1,0-0.3,0-0.4c0-0.1,0-0.2,0-0.4
		c0,0,0-0.1,0-0.1c0,0,0,0,0,0c0,0,0,0,0,0c0-0.1,0-0.1,0.1-0.2c0-0.1,0.1-0.2,0.1-0.3c0.1-0.1,0.1-0.2,0.2-0.3
		c0.1-0.1,0.1-0.2,0.2-0.3c0.1-0.1,0.2-0.2,0.3-0.3c0.1-0.1,0.2-0.2,0.4-0.2c0.1-0.1,0.3-0.1,0.5-0.2c0.2,0,0.4-0.1,0.6-0.1
		c0.1,0,0.2,0,0.3,0c0.1,0,0.1,0,0.2,0c0,0,0.1,0,0.1,0c0,0,0.1,0,0.1,0c0.2,0.1,0.4,0.2,0.7,0.3c0.2,0.1,0.4,0.3,0.7,0.5
		c0.2,0.2,0.4,0.5,0.6,0.8c0.1,0.3,0.3,0.6,0.3,1c0,0.2,0,0.4,0,0.6c0,0.2,0,0.4-0.1,0.6c-0.2,0.6-0.3,1.3-0.3,1.9
		c0,0.7,0.1,1.3,0.3,2c0.1,0.2,0.1,0.3,0.2,0.5c0.1,0.2,0.1,0.3,0.2,0.5c0.2,0.3,0.3,0.6,0.5,0.9c0.4,0.6,0.9,1.1,1.4,1.6
		c0.5,0.4,1,0.8,1.7,1.2c0.3,0.2,0.6,0.4,1,0.5c0.7,0.3,1.5,0.5,2.2,0.5c0.8,0.1,1.5,0,2.2-0.2c0.2,0,0.3-0.1,0.5-0.2
		c0.2-0.1,0.3-0.1,0.5-0.2c0.3-0.1,0.6-0.3,1-0.4c0,0.2,0.1,0.4,0.2,0.5c0.2,0.6,0.5,1.1,0.8,1.6c0.3,0.5,0.6,0.8,0.9,1.1
		c0.3,0.3,0.6,0.5,0.8,0.7c0,0,0.1,0.1,0.1,0.1c0.3,0.3,0.6,0.5,0.9,0.8c0.9,0.7,2,1.2,3,1.6c1.1,0.3,2.2,0.4,3.2,0.4
		c0.1,0,0.3,0,0.4,0c0.1,0,0.3,0,0.4-0.1c0.3,0,0.5-0.1,0.8-0.2c0.5-0.1,1-0.3,1.4-0.5c0.9-0.5,1.7-1.1,2.3-1.7
		c0.6-0.7,1.1-1.5,1.3-2.3c0.3-0.8,0.4-1.6,0.5-2.3c0-0.3,0-0.6,0-0.9c0-0.1,0-0.1,0.1-0.2c0.1-0.3,0.1-0.6,0-1.1
		c-0.1-0.5-0.2-1-0.5-1.5c-0.3-0.6-0.7-1.1-1.3-1.6c-0.5-0.5-1.2-0.8-1.7-1c-0.6-0.2-1.1-0.3-1.6-0.3c-0.5,0-0.8,0.1-1.1,0.2
		c-0.2,0.1-0.4,0.2-0.4,0.3c0,0.1,0.2,0.2,0.4,0.3c0.2,0.1,0.5,0.2,0.9,0.3c0.4,0.1,0.8,0.3,1.2,0.5c0.4,0.2,0.9,0.5,1.3,0.9
		c0.4,0.4,0.8,0.8,1.1,1.2c0.3,0.4,0.5,0.8,0.7,1.1c0.2,0.3,0.3,0.6,0.4,0.9c0,0,0,0.1,0,0.1c0,0.3,0,0.6,0,1c0,0.7-0.2,1.4-0.5,2.2
		c-0.3,0.7-0.7,1.4-1.3,2.1c-0.6,0.6-1.3,1.2-2.1,1.6c0,0-0.1,0-0.1,0c0.1-0.1,0.3-0.2,0.4-0.3c0.2-0.1,0.4-0.3,0.6-0.5
		c0.2-0.2,0.4-0.4,0.5-0.7c0.2-0.2,0.3-0.5,0.5-0.8c0.1-0.3,0.2-0.6,0.3-1c0.1-0.4,0.1-0.7,0.1-1.1c0-0.2,0-0.4,0-0.6
		c0-0.1,0-0.2,0-0.3c0-0.1,0-0.2-0.1-0.3c-0.1-0.4-0.3-0.8-0.5-1.1c-0.2-0.4-0.5-0.7-0.8-1c-0.1-0.1-0.3-0.2-0.5-0.4
		c-0.3-0.2-0.7-0.4-1-0.5c-0.4-0.1-0.8-0.2-1.1-0.3c-0.2,0-0.4,0-0.6,0c-0.1,0-0.2,0-0.3,0c-0.1,0-0.2,0-0.3,0
		c-0.4,0.1-0.7,0.2-1.1,0.4c-0.3,0.2-0.6,0.4-0.9,0.7c-0.3,0.3-0.5,0.6-0.6,0.9c-0.2,0.3-0.3,0.7-0.3,1c0,0.3,0,0.5,0,0.7
		c0,0.2,0.1,0.4,0.1,0.5c0.1,0.2,0.1,0.3,0.2,0.4c0.1,0.1,0.2,0.3,0.3,0.4c0.1,0.1,0.3,0.3,0.5,0.4c0.1,0.1,0.2,0.1,0.3,0.2
		c0.1,0.1,0.3,0.1,0.4,0.2c0.2,0.1,0.3,0.1,0.5,0.2c0.2,0,0.4,0.1,0.6,0c0.1,0,0.2,0,0.3,0c0.1,0,0.1,0,0.2,0c0.1,0,0.1,0,0.2,0
		c0,0,0.1,0,0.1,0c0,0,0,0,0,0c0.3-0.1,0.5-0.2,0.6-0.3c0.2-0.1,0.3-0.3,0.4-0.5c0.1-0.2,0.2-0.3,0.2-0.5c0-0.2,0.1-0.3,0.1-0.4
		c0-0.1,0-0.2,0-0.3c0-0.1,0-0.1,0-0.2c0,0,0-0.1,0-0.1s0,0,0,0.1c0,0,0,0.1,0,0.2c0,0.1,0,0.2,0,0.3c0,0.1,0,0.2-0.1,0.4
		c-0.1,0.1-0.1,0.3-0.2,0.4c-0.1,0.1-0.2,0.3-0.4,0.4c-0.2,0.1-0.3,0.2-0.6,0.3c-0.1,0-0.1,0-0.2,0c-0.1,0-0.1,0-0.2,0
		c-0.1,0-0.3,0-0.4,0c-0.3,0-0.5-0.1-0.8-0.2c-0.3-0.1-0.5-0.3-0.7-0.5c-0.2-0.2-0.4-0.5-0.5-0.8c0-0.1-0.1-0.2-0.1-0.2
		c0,0,0-0.1,0-0.1c0,0,0-0.1,0-0.1c0-0.2,0-0.3,0-0.5c0-0.3,0.1-0.7,0.3-1c0.2-0.3,0.4-0.6,0.7-0.9c0.3-0.3,0.6-0.5,1-0.6
		c0.1,0,0.2-0.1,0.3-0.1c0,0,0.1,0,0.1,0c0,0,0,0,0.1,0c0,0,0.1,0,0.2,0c0.2,0,0.4,0,0.6,0c0.4,0,0.8,0.1,1.2,0.2
		c0.4,0.2,0.7,0.4,1,0.6c0.3,0.3,0.6,0.6,0.8,0.9c0.2,0.3,0.4,0.7,0.5,1c0,0,0,0.1,0,0.1c0,0,0,0,0,0.1l0,0.1c0,0.1,0,0.2,0,0.3
		c0,0.2,0,0.4,0,0.5c0,0.4,0,0.7-0.1,1c-0.1,0.3-0.2,0.6-0.3,0.9c-0.1,0.3-0.3,0.6-0.4,0.8c-0.2,0.2-0.3,0.5-0.5,0.7
		c-0.2,0.2-0.4,0.4-0.5,0.5c-0.4,0.3-0.7,0.5-1,0.6c-0.3,0.1-0.5,0.2-0.7,0.3c0,0,0,0,0,0c-0.2,0-0.3,0.1-0.5,0.1
		c-0.1,0-0.2,0-0.4,0c-0.1,0-0.2,0-0.4,0c-1,0.1-2-0.1-3-0.4c-1-0.3-1.9-0.8-2.8-1.5c-0.4-0.3-0.7-0.6-1-0.9c-0.3-0.5-0.7-1.1-1-1.9
		c-0.2-0.4-0.3-0.9-0.5-1.4c-0.1-0.3-0.1-0.7-0.2-1c0,0,0.1-0.1,0.2-0.1c0.5-0.4,0.9-0.9,1.3-1.3c0.4-0.5,0.7-0.9,0.9-1.4
		c0.2-0.5,0.4-1,0.6-1.4c0.1-0.5,0.2-0.9,0.3-1.3c0.1-0.8,0.1-1.6,0-2.2c-0.1-0.6-0.2-1-0.2-1.3c0.5-0.5,1-1,1.5-1.4
		c0.7-0.6,1.3-0.9,1.8-1.2c0.9-0.3,1.8-0.6,2.7-0.6c1-0.1,2.1-0.1,3.1,0c1,0.1,1.9,0.3,2.8,0.6c0.9,0.3,1.7,0.7,2.4,1.1
		c0.8,0.4,1.4,0.9,2,1.5c0.6,0.5,1.1,1.1,1.6,1.6c0.4,0.5,0.7,1,1,1.4c-0.3,0.3-0.6,0.7-0.9,1.1c-0.3,0.4-0.6,0.9-0.8,1.4
		c-0.1,0.2-0.2,0.4-0.2,0.6c-0.2,0.1-0.4,0.1-0.6,0.2c-0.3,0.1-0.5,0.2-0.8,0.4c-0.2,0.1-0.4,0.3-0.6,0.4c-0.2,0.2-0.3,0.3-0.4,0.5
		c-0.3,0.3-0.5,0.6-0.6,0.8c-0.2,0.3-0.3,0.5-0.4,0.7c-0.1,0.2-0.2,0.5-0.2,0.7c0,0.2-0.1,0.5-0.1,0.8c0,0.3,0.1,0.7,0.2,1.1
		c0.2,0.5,0.4,1.1,0.8,1.5c0.3,0.5,0.8,0.8,1.2,1.2c0.5,0.3,1,0.6,1.6,0.7c0.6,0.2,1.1,0.2,1.7,0.2c0.2,0,0.3,0,0.4,0
		c0.1,0,0.3,0,0.4-0.1c0.3-0.1,0.6-0.1,0.9-0.2c0.1,0,0.2-0.1,0.4-0.1c0,0,0.1,0.1,0.1,0.1c-0.1,0.1-0.1,0.1-0.2,0.2
		c-0.2,0.3-0.3,0.5-0.4,0.9c0,0.1-0.1,0.1-0.1,0.2l0,0l0,0c0,0,0,0,0,0.1c0,0,0,0.1,0,0.1c0,0,0,0.1,0,0.1c0-0.1-0.1-0.2-0.1-0.3
		c-0.1-0.1-0.2-0.2-0.3-0.3c-0.1-0.1-0.3-0.1-0.5-0.2c-0.1,0-0.2,0-0.3,0c-0.1,0-0.2,0-0.3,0.1c0,0,0,0-0.1,0c0,0,0,0,0,0l0,0l0,0v0
		h0l0,0h0l0,0c0,0,0,0,0,0c0,0-0.1,0-0.1,0c-0.1,0.1-0.2,0.1-0.3,0.2c-0.2,0.1-0.3,0.3-0.4,0.5c-0.1,0.2-0.2,0.4-0.2,0.6
		c0,0.1,0,0.2,0,0.3c0,0.1,0,0.2,0.1,0.3c0,0.1,0,0.1,0.1,0.2c0,0,0.1,0.1,0.1,0.1c0.1,0.1,0.1,0.2,0.2,0.3c0.1,0.2,0.3,0.3,0.5,0.4
		c0.2,0.1,0.4,0.2,0.6,0.2c0.1,0,0.2,0,0.2,0c0,0,0,0,0,0c-0.1,0.1-0.1,0.2-0.1,0.2c0,0.1,0,0.2-0.1,0.3c0,0.1,0,0.2,0,0.3
		c0,0.1,0,0.2,0,0.2c0,0.1,0.1,0.2,0.1,0.2c0,0.1,0.1,0.1,0.1,0.2c0,0,0.1,0.1,0.1,0.1c0,0,0.1,0.1,0.1,0.1l0,0c0,0,0.1,0,0.1,0.1
		c0.1,0.1,0.2,0.1,0.4,0.1c0.1,0,0.2,0,0.4,0l0,0c0,0,0,0,0.1,0c0,0,0.1,0,0.1,0c0.1,0,0.1-0.1,0.2-0.1c0.1-0.1,0.2-0.1,0.2-0.2
		c0.1,0.1,0.1,0.2,0.2,0.2c0,0,0.1,0.1,0.2,0.1c0,0,0.1,0,0.1,0c0,0,0,0,0,0s0,0,0,0c0.1,0,0.3,0,0.4,0c0.1,0,0.2-0.1,0.4-0.1
		c0,0,0.1,0,0.1-0.1c0,0,0,0,0,0c0,0,0.1,0,0.1-0.1c0,0,0.1-0.1,0.1-0.1c0-0.1,0.1-0.1,0.1-0.2c0-0.1,0.1-0.1,0.1-0.2
		c0-0.1,0-0.2,0.1-0.2c0-0.1,0-0.2,0-0.3c0-0.1,0-0.2-0.1-0.3c0-0.1-0.1-0.2-0.1-0.2c0,0,0,0,0,0c0.1,0,0.2,0,0.2,0
		c0.2,0,0.4-0.1,0.6-0.2c0.2-0.1,0.4-0.2,0.5-0.4c0.1-0.1,0.1-0.2,0.2-0.3c0,0,0.1-0.1,0.1-0.1c0-0.1,0-0.1,0.1-0.2
		c0-0.1,0.1-0.2,0.1-0.3c0-0.1,0-0.2,0-0.3c0-0.2-0.1-0.4-0.2-0.6c-0.1-0.2-0.2-0.4-0.4-0.5c-0.1-0.1-0.2-0.1-0.3-0.2c0,0,0,0-0.1,0
		c0,0,0,0,0,0l0,0l0,0l0,0l0,0l0,0l0,0l0,0c0,0,0,0,0,0c0,0-0.1,0-0.1,0c-0.1,0-0.2-0.1-0.3-0.1c-0.1,0-0.2,0-0.3,0
		c-0.2,0-0.4,0.1-0.5,0.2c-0.1,0.1-0.2,0.2-0.3,0.3c-0.1,0.1-0.1,0.2-0.1,0.3c0,0,0-0.1,0-0.1c0,0,0-0.1,0-0.1c0,0,0,0,0,0l0-0.1
		l0,0c0-0.1,0-0.2-0.1-0.2c-0.1-0.3-0.3-0.6-0.5-0.9c-0.1-0.1-0.1-0.1-0.2-0.2c0,0,0.1-0.1,0.1-0.1c0.1,0.1,0.2,0.1,0.4,0.1
		c0.3,0.1,0.6,0.2,0.9,0.2c0.2,0,0.3,0,0.4,0.1c0.1,0,0.3,0,0.4,0c0.6,0,1.2-0.1,1.7-0.2c0.6-0.2,1.1-0.4,1.6-0.7
		c0.5-0.3,0.9-0.7,1.2-1.2c0.3-0.5,0.6-1,0.8-1.5c0.1-0.4,0.2-0.8,0.2-1.1c0-0.3,0-0.6-0.1-0.8c0-0.3-0.1-0.5-0.2-0.7
		c-0.1-0.2-0.2-0.5-0.4-0.7c-0.2-0.3-0.3-0.5-0.6-0.8c-0.1-0.2-0.3-0.3-0.5-0.5c-0.2-0.2-0.4-0.3-0.6-0.4c-0.2-0.1-0.5-0.3-0.8-0.4
		c-0.2-0.1-0.4-0.2-0.6-0.2c-0.1-0.2-0.2-0.4-0.2-0.6c-0.2-0.5-0.5-1-0.8-1.4c-0.3-0.4-0.6-0.7-0.9-1.1c0.3-0.5,0.6-0.9,1-1.4
		c0.5-0.6,1-1.1,1.6-1.6c0.6-0.5,1.3-1,2-1.5c0.7-0.4,1.6-0.8,2.4-1.1c0.9-0.3,1.8-0.5,2.8-0.6c1-0.1,2-0.1,3,0
		c0.9,0.1,1.8,0.3,2.7,0.6c0.5,0.3,1.1,0.7,1.8,1.2c0.5,0.4,1,0.8,1.5,1.4c-0.1,0.3-0.2,0.7-0.2,1.3c-0.1,0.6-0.1,1.3,0,2.2
		c0.1,0.4,0.2,0.9,0.3,1.3c0.1,0.5,0.3,0.9,0.6,1.4c0.2,0.5,0.5,1,0.9,1.4c0.4,0.5,0.8,0.9,1.3,1.3c0.1,0,0.1,0.1,0.2,0.1
		c0,0.4-0.1,0.7-0.2,1c-0.1,0.5-0.3,1-0.5,1.4c-0.3,0.8-0.7,1.4-1,1.9c-0.3,0.3-0.6,0.6-1,0.9c-0.8,0.7-1.8,1.2-2.8,1.5
		c-1,0.3-2,0.4-3,0.4c-0.1,0-0.2,0-0.4,0c-0.1,0-0.2,0-0.4,0c-0.2,0-0.3-0.1-0.5-0.1l0,0c-0.2,0-0.4-0.1-0.7-0.3
		c-0.3-0.1-0.6-0.3-1-0.6c-0.2-0.2-0.4-0.3-0.5-0.5c-0.2-0.2-0.3-0.4-0.5-0.7c-0.2-0.2-0.3-0.5-0.4-0.8s-0.2-0.6-0.3-0.9
		c-0.1-0.3-0.1-0.7-0.1-1c0-0.2,0-0.4,0-0.5c0-0.1,0-0.2,0.1-0.3l0-0.1c0,0,0,0,0-0.1c0,0,0-0.1,0-0.1c0.1-0.4,0.2-0.7,0.5-1
		c0.2-0.3,0.5-0.6,0.8-0.9c0.3-0.3,0.7-0.5,1-0.6c0.4-0.1,0.8-0.2,1.2-0.2c0.2,0,0.4,0,0.6,0c0,0,0.1,0,0.2,0c0,0,0,0,0.1,0
		c0,0,0,0,0.1,0c0.1,0,0.2,0.1,0.3,0.1c0.4,0.1,0.7,0.3,1,0.6c0.3,0.3,0.5,0.6,0.7,0.9c0.2,0.3,0.2,0.7,0.3,1c0,0.2,0,0.4,0,0.5
		c0,0,0,0.1,0,0.1c0,0,0,0.1,0,0.1c0,0.1,0,0.2-0.1,0.2c-0.1,0.3-0.3,0.6-0.5,0.8c-0.2,0.2-0.5,0.4-0.7,0.5
		c-0.2,0.1-0.5,0.2-0.8,0.2c-0.1,0-0.3,0-0.4,0c-0.1,0-0.1,0-0.2,0c-0.1,0-0.1,0-0.2,0c-0.2-0.1-0.4-0.2-0.6-0.3
		c-0.2-0.1-0.3-0.3-0.4-0.4c-0.1-0.1-0.2-0.3-0.2-0.4c0-0.1-0.1-0.3-0.1-0.4c0-0.1,0-0.2,0-0.3c0-0.1,0-0.1,0-0.2c0,0,0-0.1,0-0.1
		s0,0,0,0.1c0,0,0,0.1,0,0.2c0,0.1,0,0.2,0,0.3c0,0.1,0,0.3,0.1,0.4c0,0.1,0.1,0.3,0.2,0.5c0.1,0.2,0.2,0.3,0.4,0.5
		c0.2,0.1,0.4,0.3,0.6,0.3c0,0,0,0,0,0c0,0,0,0,0.1,0c0.1,0,0.1,0,0.2,0c0.1,0,0.1,0,0.2,0c0.1,0,0.2,0,0.3,0c0.2,0,0.4,0,0.6,0
		c0.2,0,0.4-0.1,0.5-0.2c0.2-0.1,0.3-0.1,0.4-0.2c0.1-0.1,0.2-0.2,0.3-0.2c0.2-0.2,0.4-0.3,0.5-0.4c0.1-0.1,0.2-0.3,0.3-0.4
		c0.1-0.1,0.2-0.3,0.2-0.4c0.1-0.1,0.1-0.3,0.1-0.5c0-0.2,0-0.4,0-0.7c0-0.4-0.1-0.7-0.3-1c-0.2-0.3-0.4-0.6-0.6-0.9
		c-0.2-0.3-0.5-0.5-0.9-0.7c-0.3-0.2-0.7-0.3-1.1-0.4c-0.1,0-0.2,0-0.3,0c-0.1,0-0.2,0-0.3,0c-0.2,0-0.4,0-0.6,0
		c-0.4,0-0.8,0.1-1.1,0.3c-0.3,0.1-0.7,0.3-1,0.5c-0.2,0.1-0.3,0.2-0.5,0.4c-0.3,0.3-0.6,0.6-0.8,1c-0.2,0.4-0.4,0.7-0.5,1.1
		c0,0.1,0,0.2-0.1,0.3c0,0.1,0,0.2,0,0.3c0,0.2,0,0.4,0,0.6c0,0.4,0,0.7,0.1,1.1c0.1,0.3,0.2,0.7,0.3,1c0.1,0.3,0.3,0.6,0.5,0.8
		c0.2,0.2,0.4,0.5,0.6,0.7c0.2,0.2,0.4,0.4,0.6,0.5c0.1,0.1,0.3,0.2,0.4,0.3c0,0,0,0-0.1,0c-0.8-0.4-1.5-0.9-2.1-1.6
		c-0.6-0.6-1-1.3-1.3-2.1c-0.3-0.7-0.4-1.5-0.5-2.2c0-0.3,0-0.7,0-1c0,0,0,0,0-0.1c0.1-0.2,0.2-0.5,0.4-0.9c0.2-0.4,0.4-0.8,0.7-1.1
		c0.3-0.4,0.6-0.8,1.1-1.2c0.4-0.4,0.9-0.7,1.3-0.9c0.4-0.2,0.9-0.4,1.2-0.5c0.4-0.1,0.7-0.2,0.9-0.3c0.2-0.1,0.4-0.2,0.4-0.3
		c0-0.1-0.1-0.2-0.4-0.3c-0.2-0.1-0.6-0.2-1.1-0.2c-0.5,0-1,0.1-1.6,0.3c-0.6,0.2-1.2,0.5-1.7,1c-0.5,0.5-1,1-1.3,1.6
		c-0.3,0.5-0.5,1.1-0.5,1.5c-0.1,0.5,0,0.8,0,1.1c0,0.1,0,0.1,0.1,0.2c0,0.3,0,0.6,0,0.9c0,0.8,0.2,1.6,0.5,2.3
		c0.3,0.8,0.7,1.6,1.3,2.3c0.6,0.7,1.4,1.3,2.2,1.7c0.4,0.2,0.9,0.4,1.4,0.5c0.2,0.1,0.5,0.1,0.8,0.2c0.1,0,0.3,0,0.4,0.1
		c0.1,0,0.3,0,0.4,0c1,0.1,2.1-0.1,3.2-0.4c1.1-0.3,2.1-0.8,3-1.6c0.3-0.2,0.6-0.5,0.9-0.8c0,0,0.1-0.1,0.1-0.1
		c0.2-0.2,0.5-0.4,0.8-0.7c0.3-0.3,0.6-0.7,0.9-1.1c0.3-0.5,0.6-1,0.8-1.6c0.1-0.2,0.1-0.3,0.2-0.5l0,0c0.3,0.2,0.6,0.3,1,0.4
		c0.2,0.1,0.3,0.1,0.5,0.2c0.2,0.1,0.3,0.1,0.5,0.2c0.7,0.2,1.4,0.2,2.2,0.2c0.8,0,1.5-0.2,2.2-0.5c0.3-0.1,0.7-0.3,1-0.5
		c0.6-0.3,1.2-0.7,1.7-1.2c0.5-0.5,1-1,1.4-1.6c0.2-0.3,0.4-0.6,0.5-0.9c0.1-0.1,0.2-0.3,0.2-0.5c0.1-0.2,0.1-0.3,0.2-0.5
		c0.2-0.6,0.3-1.3,0.3-2c0-0.6-0.1-1.3-0.3-1.9c0-0.2-0.1-0.4-0.1-0.6c0-0.2,0-0.4,0-0.6c0.1-0.4,0.2-0.7,0.3-1
		c0.2-0.3,0.4-0.6,0.6-0.8c0.2-0.2,0.4-0.4,0.6-0.5c0.2-0.1,0.5-0.2,0.7-0.3c0,0,0.1,0,0.1,0c0,0,0.1,0,0.1,0c0,0,0.1,0,0.2,0
		c0.1,0,0.2,0,0.3,0c0.2,0,0.4,0,0.5,0.1c0.2,0,0.3,0.1,0.5,0.2c0.1,0.1,0.3,0.1,0.4,0.2c0.1,0.1,0.2,0.2,0.3,0.3
		c0.1,0.1,0.2,0.2,0.2,0.3c0.1,0.1,0.1,0.2,0.2,0.3c0.1,0.1,0.1,0.2,0.1,0.3c0,0.1,0,0.1,0,0.2c0,0,0,0,0,0l0,0c0,0,0,0.1,0,0.1
		c0,0.1,0,0.2,0,0.4c0,0.1,0,0.2,0,0.4c0,0.2-0.1,0.3-0.2,0.5c-0.1,0.1-0.2,0.3-0.3,0.4c-0.1,0.1-0.3,0.2-0.4,0.2c0,0,0,0-0.1,0
		c0,0,0,0-0.1,0c0,0-0.1,0-0.1,0c-0.1,0-0.1,0-0.2,0c-0.1,0-0.2-0.1-0.3-0.1c-0.1-0.1-0.2-0.1-0.3-0.2c-0.1-0.1-0.1-0.2-0.1-0.2
		c0,0,0-0.1,0-0.1c0,0,0,0,0,0l0,0v0l0,0l0,0l0,0v0l0,0l0,0v0v0c0-0.1,0-0.1,0-0.2c0-0.1,0-0.1,0.1-0.1c0,0,0-0.1,0-0.1
		c0,0,0-0.1,0-0.1c0,0,0-0.1,0-0.1c0,0,0-0.1,0-0.1c0-0.1,0-0.1,0-0.2c0-0.1,0-0.1-0.1-0.2c0-0.1-0.1-0.1-0.2-0.2
		c-0.1,0-0.2-0.1-0.3,0c-0.1,0-0.2,0.1-0.3,0.1c-0.1,0.1-0.2,0.2-0.3,0.3c-0.1,0.1-0.1,0.3-0.2,0.5c0,0.1,0,0.2,0,0.3
		c0,0.1,0,0.2,0.1,0.3c0,0,0,0.1,0,0.1c0,0,0,0,0,0l0,0l0,0v0h0l0,0l0,0l0,0c0,0,0,0,0,0c0,0,0,0,0,0.1c0.1,0.1,0.1,0.2,0.2,0.3
		c0.1,0.2,0.3,0.3,0.5,0.4c0.2,0.1,0.4,0.2,0.7,0.2c0.1,0,0.2,0,0.3,0c0.1,0,0.2-0.1,0.3-0.1c0,0,0.1,0,0.2-0.1c0,0,0.1-0.1,0.1-0.1
		c0.1-0.1,0.2-0.1,0.3-0.2c0.2-0.2,0.3-0.3,0.4-0.5c0.1-0.2,0.2-0.4,0.2-0.6c0-0.2,0-0.4,0-0.7C93,64.7,93,64.7,93,64.6z M29.4,66.3
		c0,0.6,0,1.3-0.1,2.1c-0.1,0.4-0.2,0.8-0.3,1.3c-0.2,0.4-0.3,0.9-0.6,1.4c-0.2,0.4-0.5,0.9-0.9,1.3c-0.3,0.4-0.7,0.8-1.1,1.1l0,0
		c0-0.6,0-1.3,0.1-1.9c0.1-0.7,0.2-1.3,0.4-2c0.2-0.7,0.5-1.3,0.8-1.9c0.3-0.6,0.7-1.1,1-1.6c0.2-0.3,0.5-0.6,0.7-0.9
		C29.3,65.4,29.4,65.8,29.4,66.3z M50.3,63.8c-0.1-0.2-0.1-0.4-0.1-0.5c0-0.2,0-0.3,0-0.5c0-0.1,0-0.3,0.1-0.4
		c0-0.1,0.1-0.3,0.1-0.4c0.1-0.1,0.1-0.2,0.2-0.3c0.1,0.1,0.1,0.2,0.2,0.3c0.1,0.1,0.1,0.2,0.1,0.4c0,0.1,0.1,0.3,0.1,0.4
		c0,0.1,0,0.3,0,0.5c0,0.2,0,0.3-0.1,0.5c-0.1,0.2-0.1,0.4-0.2,0.5c0,0-0.1,0.1-0.1,0.1c0,0-0.1-0.1-0.1-0.1
		C50.4,64.2,50.3,64,50.3,63.8z M49.3,65.7c0.3-0.1,0.7-0.3,0.9-0.6c0.1-0.1,0.1-0.1,0.2-0.2l0,0l0,0c0,0,0,0,0-0.1
		c0,0,0.1-0.1,0.1-0.1c0,0,0.1,0.1,0.1,0.1c0,0,0,0,0.1,0.1l0,0l0,0c0.1,0.1,0.1,0.1,0.2,0.2c0.3,0.2,0.6,0.4,0.9,0.6
		c0.2,0.1,0.5,0.1,0.7,0.2c-0.1,0-0.1,0-0.2,0c-0.5,0.1-1.1,0.3-1.8,0.6c-0.7-0.3-1.3-0.5-1.8-0.6c-0.1,0-0.2,0-0.2,0
		C48.8,65.9,49.1,65.8,49.3,65.7z M50.6,66.9c0.3,0.2,0.6,0.3,0.9,0.5c0.3,0.2,0.5,0.4,0.8,0.7c-0.6,1.1-1,2.2-1.3,3
		c-0.2,0.9-0.3,1.6-0.4,2.1c0,0.1,0,0.1,0,0.1c0,0,0-0.1,0-0.1c0-0.5-0.2-1.2-0.4-2.1c-0.3-0.9-0.6-1.9-1.3-3
		c0.3-0.2,0.5-0.5,0.8-0.7C50,67.2,50.3,67,50.6,66.9z M47.7,66.3c-0.1-0.1-0.2-0.3-0.3-0.4c0.1,0,0.1,0,0.2,0h0c0,0,0.1,0,0.1,0
		c0.3,0,0.6,0.1,1,0.2c0.4,0.1,0.9,0.3,1.5,0.5c-0.2,0.1-0.5,0.3-0.7,0.4c-0.3,0.2-0.5,0.4-0.8,0.6C48.4,67.3,48.1,66.8,47.7,66.3z
		 M47.1,70.7c0.2-0.5,0.4-0.9,0.7-1.3c0.2-0.4,0.5-0.7,0.8-1c0.6,1,1,2,1.3,2.8c0.2,0.5,0.3,1,0.4,1.4c-0.1-0.2-0.2-0.4-0.4-0.6
		c-0.2-0.2-0.5-0.4-0.8-0.6c-0.3-0.2-0.7-0.3-1.1-0.3c0,0,0,0-0.1,0c0,0-0.1,0-0.1,0c-0.1,0-0.2,0-0.3,0c-0.1,0-0.2,0-0.3,0
		c-0.1,0-0.2,0-0.3,0C47,70.9,47.1,70.8,47.1,70.7z M49.2,79.4c-0.1,0-0.2,0-0.2,0c0,0-0.1,0-0.1,0c0,0-0.1,0-0.1,0
		c-0.2,0-0.3,0-0.5,0c-0.6-0.1-1.2-0.3-1.7-0.6c-0.5-0.3-1-0.7-1.3-1.2c-0.3-0.5-0.6-1-0.7-1.5c-0.1-0.3-0.1-0.5-0.1-0.8
		c0-0.1,0-0.1,0-0.2c0-0.1,0-0.1,0-0.2c0-0.1,0-0.2,0-0.4c0.1-0.5,0.2-1,0.5-1.4c0.3-0.4,0.6-0.7,0.9-1c0.2-0.1,0.4-0.2,0.5-0.3
		c0,0.1-0.1,0.3-0.1,0.4c-0.1,0.3-0.1,0.6-0.1,0.9c0,0.1,0,0.3,0,0.5c0,0.2,0,0.3,0,0.5c0,0.6,0.2,1.3,0.4,1.9
		c0.2,0.6,0.6,1.2,1,1.7c0.2,0.2,0.4,0.5,0.7,0.7c0.4,0.4,0.9,0.8,1.3,1.1C49.4,79.4,49.3,79.4,49.2,79.4z M48.7,84.2
		c-0.2,0-0.3-0.1-0.4-0.2c-0.1-0.1-0.2-0.2-0.3-0.3c-0.1-0.1-0.2-0.3-0.2-0.4c0,0,0,0,0,0c0,0,0,0,0-0.1c0,0,0-0.1,0-0.1
		c0-0.1,0-0.1,0-0.2c0-0.1,0.1-0.2,0.1-0.3c0.1-0.1,0.1-0.2,0.2-0.2c0.1-0.1,0.2-0.1,0.2-0.1c0,0,0.1,0,0.1,0c0,0,0,0,0,0h0l0,0l0,0
		l0,0v0c0,0,0,0,0,0v0h0v0l0,0h0c0.1,0,0.1,0,0.2,0c0,0,0.1,0,0.1,0c0,0,0.1,0,0.1,0.1c0,0,0.1,0,0.1,0c0,0,0.1,0,0.1,0
		c0,0,0.1,0,0.1,0c0,0,0.1,0,0.2,0c0.1,0,0.1,0,0.2-0.1c0.1,0,0.1-0.1,0.2-0.2c0,0,0,0,0-0.1c0,0.1,0,0.1,0,0.2c0,0.2,0,0.3,0.1,0.5
		c0,0.2,0.1,0.3,0.2,0.5c0.1,0.2,0.2,0.3,0.3,0.4c0,0,0.1,0.1,0.1,0.1c0,0-0.1,0.1-0.1,0.1c-0.1,0-0.2,0-0.2,0c-0.1,0-0.2,0-0.4,0.1
		c-0.1,0-0.2,0.1-0.3,0.1c0,0,0,0,0,0c0,0-0.1,0-0.1,0c0,0-0.1,0.1-0.1,0.1c0,0-0.1,0.1-0.1,0.1c0,0,0,0,0,0
		C48.9,84.2,48.8,84.2,48.7,84.2z M50.3,83.9C50.2,83.9,50.1,84,50,84c-0.1,0-0.2,0.1-0.3,0.1c-0.1,0-0.1,0-0.2,0c0,0,0,0,0,0
		c0,0,0,0,0,0c0,0-0.1,0-0.1,0c0,0,0,0-0.1,0c0.1-0.1,0.1-0.1,0.2-0.2c0.1-0.1,0.2-0.1,0.3-0.1c0.1,0,0.2-0.1,0.3-0.1
		C50.2,83.9,50.2,83.9,50.3,83.9z M50.6,85.7c0-0.1,0-0.1-0.1-0.2c0-0.1,0-0.2,0-0.3c0,0,0-0.1,0-0.1c0,0,0,0,0,0c0,0,0,0,0-0.1
		c0,0,0,0,0,0.1v0c0,0,0,0.1,0,0.1c0,0.1,0,0.2,0,0.3C50.7,85.6,50.6,85.6,50.6,85.7z M52.3,85.4c0,0.1,0,0.1-0.1,0.2
		c0,0.1,0,0.1-0.1,0.2c-0.1,0.1-0.1,0.1-0.2,0.2c0,0-0.1,0.1-0.1,0.1c-0.1,0.1-0.2,0.1-0.3,0.1c-0.1,0-0.2,0-0.3,0c0,0,0,0,0,0
		c0,0,0,0,0,0c0,0,0,0-0.1,0c-0.1,0-0.1,0-0.1-0.1c-0.1-0.1-0.2-0.1-0.2-0.2l0,0c0-0.1,0.1-0.1,0.1-0.2c0-0.1,0-0.2,0-0.3
		c0,0,0-0.1,0-0.1c0,0,0,0,0,0c0,0,0-0.1,0-0.1c0,0,0,0,0,0c0,0,0,0,0-0.1c0,0,0.1-0.1,0.1-0.1c0.1,0,0.1-0.1,0.2-0.1
		c0.1,0,0.1,0,0.2,0c0,0,0.1,0,0.1,0c0,0,0,0,0,0c0,0,0,0,0,0c0,0-0.1,0-0.1,0c0,0-0.1,0-0.2,0c-0.1,0-0.1,0-0.2,0.1
		c-0.1,0-0.1,0.1-0.2,0.2l0,0v0c0-0.1-0.1-0.1-0.2-0.2c-0.1,0-0.1-0.1-0.2-0.1c-0.1,0-0.1,0-0.2,0c0,0-0.1,0-0.1,0c0,0,0,0,0,0
		c0,0,0,0,0,0c0,0,0.1,0,0.1,0c0,0,0.1,0,0.2,0c0,0,0.1,0,0.2,0.1c0.1,0,0.1,0.1,0.1,0.1c0,0,0,0,0,0l0,0c0,0.1,0,0.1,0,0.1l0,0
		c0,0,0,0.1,0,0.1c0,0.1,0,0.2,0,0.3c0,0.1,0,0.2,0.1,0.2l0,0c-0.1,0.1-0.1,0.2-0.2,0.2c0,0-0.1,0.1-0.1,0.1c0,0-0.1,0-0.1,0
		c0,0,0,0,0,0c0,0,0,0,0,0c-0.1,0-0.2,0-0.3,0c-0.1,0-0.2-0.1-0.3-0.1c0,0-0.1-0.1-0.1-0.1c0,0-0.1-0.1-0.1-0.2c0,0-0.1-0.1-0.1-0.2
		c0-0.1,0-0.1-0.1-0.2c0-0.1,0-0.1,0-0.2c0-0.1,0-0.2,0-0.2c0-0.1,0-0.2,0.1-0.2c0-0.1,0-0.1,0.1-0.2c0,0,0.1-0.1,0.1-0.1
		c0.1,0,0.1,0,0.2,0c0.1,0,0.1,0,0.2,0c0.1,0,0.1,0,0.2,0c0.1,0,0.2-0.1,0.3-0.1c0.1,0,0.2-0.1,0.3-0.2c0.1,0,0.2-0.1,0.2-0.1
		c0,0,0.1,0,0.1,0c0,0,0.1,0,0.1,0c0.1,0,0.2,0.1,0.2,0.1c0.1,0.1,0.2,0.1,0.3,0.2c0.1,0,0.2,0.1,0.3,0.1c0.1,0,0.1,0,0.2,0
		c0,0,0.1,0,0.2,0c0.1,0,0.1,0,0.2,0c0,0,0.1,0.1,0.1,0.1c0,0.1,0.1,0.1,0.1,0.2c0,0.1,0,0.2,0.1,0.2c0,0.1,0,0.2,0,0.2
		C52.3,85.3,52.3,85.4,52.3,85.4z M50.6,83.9L50.6,83.9C50.6,83.9,50.6,83.9,50.6,83.9L50.6,83.9C50.6,83.9,50.6,83.9,50.6,83.9z
		 M51,83.9c0,0,0.1,0,0.2,0c0.1,0,0.2,0,0.3,0.1c0.1,0,0.2,0.1,0.3,0.1c0,0,0.1,0.1,0.2,0.2c0,0,0,0,0,0c0,0-0.1,0-0.1,0
		c0,0,0,0,0,0l0,0c-0.1,0-0.1,0-0.2,0c-0.1,0-0.2-0.1-0.3-0.1C51.1,84,51,83.9,51,83.9z M51.4,82.7c0-0.1,0.1-0.3,0.1-0.5
		c0-0.1,0-0.1,0-0.2c0,0,0,0,0,0.1c0,0.1,0.1,0.1,0.2,0.2c0.1,0,0.1,0.1,0.2,0.1c0.1,0,0.1,0,0.2,0c0,0,0.1,0,0.1,0c0,0,0.1,0,0.1,0
		c0,0,0.1,0,0.1,0c0,0,0.1,0,0.1-0.1c0,0,0.1,0,0.1,0c0,0,0.1,0,0.2,0h0l0,0l0,0l0,0l0,0v0l0,0l0,0h0h0c0,0,0,0,0,0c0,0,0.1,0,0.1,0
		c0.1,0,0.2,0.1,0.2,0.1c0.1,0.1,0.1,0.1,0.2,0.2c0.1,0.1,0.1,0.2,0.1,0.3c0,0.1,0,0.1,0,0.2c0,0,0,0.1,0,0.1c0,0,0,0,0,0.1
		c0,0,0,0,0,0c0,0.2-0.1,0.3-0.2,0.4c-0.1,0.1-0.2,0.2-0.3,0.3c-0.1,0.1-0.3,0.2-0.4,0.2c-0.1,0-0.3,0-0.4,0.1c0,0,0,0-0.1,0
		c0-0.1-0.1-0.1-0.1-0.1c-0.1,0-0.1-0.1-0.1-0.1c0,0-0.1,0-0.1,0c0,0,0,0,0,0c-0.1,0-0.2-0.1-0.3-0.1c-0.1,0-0.2,0-0.4-0.1
		c-0.1,0-0.2,0-0.3,0c0,0-0.1-0.1-0.1-0.1c0,0,0.1-0.1,0.1-0.1c0.1-0.1,0.2-0.3,0.3-0.4C51.3,83,51.3,82.9,51.4,82.7z M51,80.8
		c0.1,0.2,0.2,0.4,0.2,0.7c0,0,0,0,0,0.1c0,0,0,0.1,0,0.1c0,0.1,0,0.1,0,0.2c0,0.1,0,0.2,0,0.3c0,0.2,0,0.4-0.1,0.5
		c0,0.2-0.1,0.3-0.2,0.4c-0.1,0.1-0.1,0.2-0.2,0.3c-0.1,0.1-0.1,0.2-0.2,0.2c-0.1-0.1-0.2-0.2-0.2-0.2c-0.1-0.1-0.2-0.2-0.2-0.3
		c-0.1-0.1-0.1-0.3-0.2-0.4c0-0.2-0.1-0.3-0.1-0.5c0-0.1,0-0.2,0-0.3c0,0,0-0.1,0-0.2c0,0,0-0.1,0-0.1c0,0,0-0.1,0-0.1
		c0.1-0.2,0.1-0.4,0.2-0.7c0.1-0.2,0.2-0.4,0.4-0.5C50.8,80.5,50.9,80.6,51,80.8z M50.6,80C50.6,80,50.6,80,50.6,80
		C50.6,80,50.6,80,50.6,80C50.6,80,50.6,80,50.6,80C50.6,80,50.6,80,50.6,80z M54.8,75.9c0.2-0.6,0.3-1.2,0.4-1.9c0-0.2,0-0.3,0-0.5
		c0-0.2,0-0.3,0-0.5c0-0.3-0.1-0.6-0.1-0.9c0-0.1-0.1-0.3-0.1-0.4c0.2,0.1,0.4,0.2,0.6,0.3c0.4,0.3,0.7,0.6,0.9,1
		c0.2,0.4,0.4,0.9,0.5,1.4c0,0.1,0,0.3,0,0.4c0,0.1,0,0.1,0,0.2c0,0.1,0,0.1,0,0.2c0,0.3-0.1,0.6-0.1,0.8c-0.1,0.5-0.4,1.1-0.7,1.5
		s-0.8,0.9-1.3,1.2c-0.5,0.3-1.1,0.5-1.7,0.6c-0.1,0-0.3,0-0.5,0c0,0-0.1,0-0.1,0c0,0-0.1,0-0.1,0c-0.1,0-0.2,0-0.2,0
		c-0.1,0-0.2,0-0.3,0c0.5-0.3,0.9-0.7,1.3-1.1c0.2-0.2,0.5-0.5,0.7-0.7C54.2,77.1,54.5,76.5,54.8,75.9z M54.4,71.6
		c0.1,0.2,0.1,0.5,0.2,0.7c0.1,0.3,0.1,0.6,0.1,0.9c0,0.1,0,0.3,0,0.4v0.1c0,0,0,0.1,0,0.1c0,0.1,0,0.1,0,0.2c0,0.6-0.2,1.2-0.4,1.7
		c-0.2,0.6-0.5,1.1-0.9,1.6c-0.4,0.5-0.9,0.9-1.4,1.3c-0.4,0.3-0.9,0.5-1.3,0.6c-0.5-0.1-0.9-0.4-1.3-0.6c-0.5-0.3-1-0.8-1.4-1.3
		c-0.4-0.5-0.7-1-0.9-1.6c-0.2-0.6-0.3-1.1-0.4-1.7c0-0.1,0-0.2,0-0.2c0,0,0-0.1,0-0.1v-0.1c0-0.1,0-0.3,0-0.4
		c0-0.3,0.1-0.6,0.1-0.9c0-0.2,0.1-0.5,0.2-0.7c0,0,0,0,0,0c0.2-0.1,0.4-0.1,0.6-0.1c0.1,0,0.2,0,0.3,0c0.1,0,0.2,0,0.3,0
		c0.4,0,0.7,0.1,1,0.3c0.3,0.1,0.5,0.3,0.7,0.5c0.2,0.2,0.3,0.4,0.5,0.6c0.1,0.2,0.2,0.4,0.3,0.5c0.1,0.2,0.1,0.3,0.1,0.4
		c0,0.1,0,0.2,0.1,0.3c0,0.1,0,0.1,0,0.1c0,0,0,0,0-0.1c0-0.1,0-0.2,0-0.3c0-0.1,0.1-0.3,0.1-0.4c0.1-0.2,0.1-0.3,0.2-0.5
		c0.1-0.2,0.3-0.4,0.5-0.6c0.2-0.2,0.4-0.4,0.7-0.5c0.3-0.1,0.6-0.2,1-0.3c0.1,0,0.2,0,0.3,0c0.1,0,0.2,0,0.3,0
		C53.9,71.5,54.1,71.5,54.4,71.6C54.3,71.6,54.4,71.6,54.4,71.6z M53.4,69.4c0.3,0.4,0.5,0.9,0.7,1.3c0,0.1,0.1,0.2,0.1,0.4
		c-0.1,0-0.2,0-0.3,0c-0.1,0-0.2,0-0.3,0c-0.1,0-0.2,0-0.3,0c0,0-0.1,0-0.1,0c0,0,0,0-0.1,0c-0.4,0.1-0.7,0.2-1.1,0.3
		c-0.3,0.2-0.6,0.4-0.8,0.6c-0.2,0.2-0.3,0.4-0.4,0.6c0.1-0.4,0.2-0.9,0.4-1.4c0.3-0.8,0.7-1.8,1.3-2.8C52.9,68.7,53.1,69,53.4,69.4
		z M53.5,66.3c-0.4,0.5-0.7,1-1,1.4c-0.3-0.2-0.5-0.4-0.8-0.6c-0.2-0.2-0.5-0.3-0.7-0.4c0.5-0.3,1-0.4,1.5-0.5
		c0.4-0.1,0.8-0.2,1-0.2c0,0,0.1,0,0.1,0c0,0,0,0,0,0c0.1,0,0.2,0,0.2,0C53.7,66.1,53.6,66.2,53.5,66.3z M74.9,73.5L74.9,73.5
		c-0.4-0.3-0.8-0.7-1.1-1.1c-0.3-0.4-0.6-0.9-0.9-1.3c-0.2-0.5-0.4-0.9-0.6-1.4c-0.2-0.4-0.3-0.9-0.3-1.3c-0.2-0.8-0.2-1.5-0.1-2.1
		c0-0.5,0.1-0.9,0.1-1.2c0.2,0.3,0.5,0.5,0.7,0.9c0.4,0.5,0.7,1,1,1.6c0.3,0.6,0.6,1.2,0.8,1.9c0.2,0.7,0.3,1.4,0.4,2
		C75,72.2,75,72.8,74.9,73.5z"/>
	<polygon fill="#091117" points="53.2,62.6 53.2,62.6 53.2,62.6 	"/>
</g>
</svg>
