<?xml version="1.0" encoding="utf-8"?>
<!-- Generator: Adobe Illustrator 18.1.0, SVG Export Plug-In . SVG Version: 6.00 Build 0)  -->
<svg version="1.1" id="Layer_1" xmlns="http://www.w3.org/2000/svg" xmlns:xlink="http://www.w3.org/1999/xlink" x="0px" y="0px"
	 viewBox="0 0 100 100" enable-background="new 0 0 100 100" xml:space="preserve">
<g>
	<path fill="#091117" d="M41.9,17.4c2.9-2.3,6.5,2.1,9-1c-1.5-1.4-3.6-2.2-6-1.4c2.5-1.1,4.5-0.5,6.2,0.6
		C50.9,10.9,43.4,11.5,41.9,17.4L41.9,17.4z"/>
	<path fill="#091117" d="M81.2,31.3c-0.1-1.2-1.9-1.1-1.7-2.4c0.7,0.1,1.3,0.4,1.6,1.1c-0.3-0.9-0.9-1.2-1.5-1.4
		C80.7,27.7,82.2,29.6,81.2,31.3L81.2,31.3z"/>
	<path fill="#091117" d="M31.4,22.8c-1.5,0.3-2-2-3.6-1.3c0.3,0.8,0.9,1.5,2,1.7c-1.2-0.1-1.8-0.7-2.2-1.4
		C26.8,23.5,29.7,24.7,31.4,22.8L31.4,22.8z"/>
	<path fill="#091117" d="M79.2,41.3c0.6-0.9-0.8-1.9,0-2.7c0.5,0.4,0.8,1,0.6,1.7c0.3-0.8,0-1.3-0.4-1.8
		C80.8,38.4,80.9,40.7,79.2,41.3L79.2,41.3z"/>
	<path fill="#091117" d="M81.6,47.8c0.5,1.5,2.8,0.8,3,2.5c-0.9,0.1-1.8-0.1-2.5-0.9c0.6,1,1.5,1.2,2.4,1.2
		C83.3,52.2,80.8,50.3,81.6,47.8L81.6,47.8z"/>
	<path fill="#091117" d="M88.8,45.9c-0.9,2-3.9,0.7-4.4,3c1.2,0.3,2.5,0.1,3.5-0.9c-1,1.3-2.2,1.5-3.4,1.4
		C85.9,51.7,89.6,49.4,88.8,45.9L88.8,45.9z"/>
	<path fill="#091117" d="M81.3,52.7c2.3,0.7,3.4-2.7,5.6-1.4c-0.6,1.2-1.7,2.1-3.3,2.2c1.8,0.1,2.8-0.7,3.6-1.8
		C88.1,54.6,83.5,55.9,81.3,52.7L81.3,52.7z"/>
	<path fill="#091117" d="M91.1,57.3c-0.5-1.7-3.1-1-3.2-2.9c1-0.1,2,0.2,2.7,1.1c-0.7-1.1-1.6-1.4-2.6-1.5
		C89.5,52.3,92.2,54.6,91.1,57.3L91.1,57.3z"/>
	<path fill="#091117" d="M89.1,48.9c1.4-1-0.1-3.3,1.7-4c0.4,0.9,0.5,2-0.2,2.9c0.9-1,0.9-2,0.6-2.9C93.3,45.6,92,49,89.1,48.9
		L89.1,48.9z"/>
	<path fill="#091117" d="M87.3,54.4c-1.9,2.4-5.7-0.4-7.1,2.7c1.5,0.8,3.4,1.1,5.1-0.1c-1.8,1.4-3.5,1.3-5.2,0.7
		C81.2,61.4,87.2,59.5,87.3,54.4L87.3,54.4z"/>
	<path fill="#091117" d="M14.3,46.2c-0.8,0.9,0.6,2.1-0.5,2.9c-0.4-0.5-0.7-1.2-0.4-2c-0.4,0.8-0.2,1.4,0.1,2
		C12.1,49,12.4,46.6,14.3,46.2L14.3,46.2z"/>
	<path fill="#091117" d="M66.2,19.7c-0.5-1.3-2.4-0.6-2.6-2c0.7-0.1,1.5,0,2.1,0.7c-0.6-0.8-1.3-1-2.1-1
		C64.6,16,66.9,17.6,66.2,19.7L66.2,19.7z"/>
	<path fill="#091117" d="M81.4,78c-0.1-1.8,2.7-2,2.2-3.9c-1,0.2-1.9,0.8-2.3,2c0.3-1.4,1.1-1.9,2.1-2.3
		C81.4,72.5,79.5,75.6,81.4,78L81.4,78z"/>
	<path fill="#091117" d="M79.2,70c-0.2-1.1,1.4-1.3,1-2.4c-0.6,0.2-1.1,0.6-1.2,1.3c0.1-0.8,0.5-1.2,1-1.5
		C78.9,66.9,78,68.8,79.2,70L79.2,70z"/>
	<path fill="#091117" d="M73.2,74.1c0-2.1,3.1-2.2,2.6-4.4c-1.1,0.2-2.2,0.9-2.6,2.2c0.4-1.5,1.3-2.2,2.4-2.6
		C73.4,67.9,71,71.4,73.2,74.1L73.2,74.1z"/>
	<path fill="#091117" d="M78.2,80.5c1-1.5-1.3-3.1,0.1-4.4c0.7,0.7,1.2,1.7,0.9,2.8c0.4-1.3,0.1-2.2-0.6-3
		C80.9,75.8,81,79.5,78.2,80.5L78.2,80.5z"/>
	<path fill="#091117" d="M71.1,76.2c0.4-1.4-1.8-2.1-1-3.6c0.8,0.4,1.4,1,1.4,2c0-1.1-0.5-1.8-1.2-2.3
		C72.2,71.8,73.1,74.7,71.1,76.2L71.1,76.2z"/>
	<path fill="#091117" d="M66.3,80.2c0.5-2.3,4.1-1.6,4.1-4.2c-1.3-0.1-2.7,0.4-3.5,1.7c0.8-1.6,2-2.1,3.4-2.2
		C68.2,73.3,64.7,76.6,66.3,80.2L66.3,80.2z"/>
	<path fill="#091117" d="M67.4,84.8c0.7,0.9-0.7,2.1,0.3,2.9c0.5-0.5,0.7-1.1,0.5-1.9c0.4,0.8,0.1,1.4-0.2,2
		C69.4,87.7,69.2,85.3,67.4,84.8L67.4,84.8z"/>
	<path fill="#091117" d="M68.7,84.8c1.3,0.6,2.3-1.4,3.6-0.4c-0.5,0.7-1.2,1.2-2.2,1.1c1.1,0.2,1.8-0.2,2.4-0.8
		C72.8,86.5,69.8,86.9,68.7,84.8L68.7,84.8z"/>
	<path fill="#091117" d="M71.8,83.6c2.6-1.4,0.5-5.4,3.7-6.3c0.5,1.6,0.4,3.3-0.9,4.8c1.6-1.5,1.8-3.1,1.5-4.7
		C79.4,79.1,76.6,84.4,71.8,83.6L71.8,83.6z"/>
	<path fill="#091117" d="M73.5,77.8c1.3-2.9,5.7-1,6.4-4.4c-1.7-0.4-3.6-0.2-5,1.3c1.5-1.9,3.2-2.2,4.9-2
		C77.7,69.3,72.3,72.7,73.5,77.8L73.5,77.8z"/>
	<path fill="#091117" d="M72,76.5c-0.8,3.4-6,2.3-5.9,6.1c2,0.1,3.9-0.6,5.1-2.5c-1.2,2.3-2.9,3-4.9,3.2
		C69.3,86.6,74.4,81.7,72,76.5L72,76.5z"/>
	<path fill="#091117" d="M56.5,84.1c0.3-1.7-2.3-2.2-1.6-4c0.9,0.3,1.7,1,1.9,2.2c-0.1-1.3-0.8-2-1.6-2.4
		C57.2,78.9,58.6,82.1,56.5,84.1L56.5,84.1z"/>
	<path fill="#091117" d="M50.9,82.3c0.7-1.2,2.6-0.3,3-1.7c-0.7-0.3-1.6-0.2-2.3,0.4c0.7-0.8,1.5-0.8,2.3-0.7
		C53.1,78.7,50.6,80,50.9,82.3L50.9,82.3z"/>
	<path fill="#091117" d="M65.3,79.9c-0.4,1.9-3.3,1.4-3.2,3.5c1.1,0,2.2-0.4,2.8-1.5c-0.6,1.3-1.6,1.7-2.7,1.9
		C63.9,85.5,66.7,82.8,65.3,79.9L65.3,79.9z"/>
	<path fill="#091117" d="M58.2,79.6c0.5,1.5,3,0.8,3.2,2.6c-0.9,0.2-1.9,0-2.6-0.9c0.7,1,1.6,1.3,2.5,1.2
		C60.1,84.2,57.4,82.2,58.2,79.6L58.2,79.6z"/>
	<path fill="#091117" d="M62.4,88.6c2-0.8,0.8-3.9,3.1-4.4c0.3,1.2,0.1,2.5-1,3.5c1.3-1,1.5-2.2,1.4-3.4
		C68.3,85.8,65.9,89.5,62.4,88.6L62.4,88.6z"/>
	<path fill="#091117" d="M55.7,8.5c1,1.1,2.7-0.4,3.5,1.1c-0.7,0.4-1.6,0.6-2.5,0.1c0.9,0.6,1.7,0.5,2.5,0.2
		C58.8,11.8,55.9,11,55.7,8.5L55.7,8.5z"/>
	<path fill="#091117" d="M13.9,38.9c-1.2-0.2-0.9-2.1-2.3-2c0,0.7,0.3,1.4,1,1.8c-0.9-0.4-1.1-1-1.2-1.7
		C10.2,38.1,12.1,39.8,13.9,38.9L13.9,38.9z"/>
	<path fill="#091117" d="M45.8,90.7c-1.1-1.2-2.9,0.5-3.8-1.1c0.8-0.5,1.7-0.7,2.6-0.2c-1-0.7-1.9-0.5-2.7-0.2
		C42.3,87.3,45.5,88.1,45.8,90.7L45.8,90.7z"/>
	<path fill="#091117" d="M44,81c2.5-0.4,3.1,3.4,5.7,2.4c-0.4-1.3-1.4-2.5-3-2.8c1.9,0.2,2.8,1.2,3.5,2.5C51.5,80.2,46.9,78,44,81
		L44,81z"/>
	<path fill="#091117" d="M44.7,81.8c-1.5,1.3-3.6-0.9-4.8,0.9c0.9,0.7,2,1,3.2,0.5c-1.3,0.7-2.4,0.4-3.4-0.1
		C40.1,85.7,44.1,85.1,44.7,81.8L44.7,81.8z"/>
	<path fill="#091117" d="M44.1,79.1c-1.5,0.6-2.4-1.7-3.9-0.7c0.5,0.8,1.2,1.4,2.3,1.3c-1.2,0.1-1.9-0.4-2.5-1.1
		C39.5,80.7,42.7,81.4,44.1,79.1L44.1,79.1z"/>
	<path fill="#091117" d="M34.7,77.7c1.5,0.8,2.8-1.5,4.3-0.3c-0.6,0.8-1.5,1.3-2.6,1.1c1.3,0.3,2.1-0.1,2.8-0.8
		C39.5,79.9,36,80.3,34.7,77.7L34.7,77.7z"/>
	<path fill="#091117" d="M27,68.5c0.2,1.9,3.1,1.6,2.9,3.6c-1.1-0.1-2.1-0.5-2.7-1.6c0.5,1.3,1.4,1.8,2.5,2
		C28,74.1,25.5,71.2,27,68.5L27,68.5z"/>
	<path fill="#091117" d="M19.9,65.3c-1.5-0.7-0.4-3.1-2.2-3.5c-0.3,0.9-0.2,1.9,0.6,2.7c-1-0.8-1.1-1.7-1-2.7
		C15.4,62.9,17.2,65.9,19.9,65.3L19.9,65.3z"/>
	<path fill="#091117" d="M22.4,58.6c-0.9,2.5,2.9,3.9,1.3,6.4c-1.3-0.7-2.3-2-2.3-3.7c-0.2,2,0.7,3.1,1.8,4.1
		C20,66.2,18.7,61,22.4,58.6L22.4,58.6z"/>
	<path fill="#091117" d="M19,48.9c0.9-1.6-1.5-3-0.2-4.5c0.8,0.6,1.4,1.6,1.1,2.8c0.4-1.3-0.1-2.2-0.8-3C21.4,44,21.8,47.7,19,48.9
		L19,48.9z"/>
	<path fill="#091117" d="M21.6,41.6c-0.7,1-2.2,0-2.7,1.2c0.6,0.3,1.3,0.3,2-0.1c-0.7,0.6-1.3,0.6-2,0.4
		C19.4,44.5,21.7,43.6,21.6,41.6L21.6,41.6z"/>
	<path fill="#091117" d="M23.8,34.6c1-1.1-0.8-2.6,0.5-3.6c0.5,0.6,0.8,1.5,0.5,2.4c0.5-1,0.3-1.8-0.2-2.5
		C26.5,31.1,26.2,34.1,23.8,34.6L23.8,34.6z"/>
	<path fill="#091117" d="M71.7,24.8c-0.7,0.9,0.6,2-0.4,2.8c-0.4-0.5-0.6-1.1-0.4-1.9c-0.4,0.8-0.2,1.4,0.1,1.9
		C69.6,27.5,69.9,25.2,71.7,24.8L71.7,24.8z"/>
	<path fill="#091117" d="M72.2,26.7c0.6,1.7,3.1,0.8,3.3,2.8c-1,0.2-2-0.1-2.7-1c0.7,1.1,1.6,1.4,2.6,1.4
		C74.2,31.6,71.3,29.5,72.2,26.7L72.2,26.7z"/>
	<path fill="#091117" d="M70.1,25.3c-2.1-0.8-0.9-4-3.3-4.4c-0.3,1.2,0,2.5,1.1,3.5c-1.4-1-1.6-2.2-1.6-3.4
		C64,22.6,66.5,26.3,70.1,25.3L70.1,25.3z"/>
	<path fill="#091117" d="M15.3,29.6c1.3-0.6,0.4-2.7,2-3.1c0.2,0.8,0.1,1.7-0.6,2.4c0.9-0.7,1-1.5,0.9-2.4
		C19.3,27.5,17.7,30.1,15.3,29.6L15.3,29.6z"/>
	<path fill="#091117" d="M50.2,20c-1.1-0.9-2.5,0.8-3.5-0.4c0.6-0.5,1.4-0.8,2.3-0.5c-1-0.4-1.7-0.2-2.4,0.3
		C46.7,17.5,49.6,17.7,50.2,20L50.2,20z"/>
	<path fill="#091117" d="M36.8,18.5c-1.2-0.9-2.5,0.9-3.6-0.3c0.6-0.6,1.4-0.9,2.3-0.6c-1-0.4-1.8-0.1-2.5,0.3
		C33.1,16,36.1,16.2,36.8,18.5L36.8,18.5z"/>
	<path fill="#091117" d="M78.2,38.6c0.9-3.4-4.3-4.8-2.5-8.2c1.8,0.8,3.3,2.3,3.5,4.6c0-2.6-1.3-4-2.9-5.1
		C80.3,28.4,82.7,35,78.2,38.6L78.2,38.6z"/>
	<path fill="#091117" d="M50,18c1.7,0.8,3-1.9,4.7-0.6c-0.6,0.9-1.5,1.6-2.8,1.5c1.4,0.2,2.3-0.3,3-1.1C55.3,20.2,51.5,20.8,50,18
		L50,18z"/>
	<path fill="#091117" d="M58.3,14.7c0.1,2.2-3.3,2.4-2.7,4.7c1.2-0.3,2.3-1,2.8-2.4c-0.3,1.6-1.3,2.3-2.5,2.8
		C58.2,21.3,60.6,17.5,58.3,14.7L58.3,14.7z"/>
	<path fill="#091117" d="M59.9,19.6c1.7,1.2,3.6-1.5,5.1,0.2c-0.8,0.8-2,1.4-3.3,1c1.5,0.5,2.5,0.1,3.5-0.6
		C65.3,22.9,61,22.9,59.9,19.6L59.9,19.6z"/>
	<path fill="#091117" d="M46.1,20.1c-2-0.9-3.5,2.1-5.3,0.6c0.7-1,1.8-1.7,3.3-1.6c-1.6-0.3-2.6,0.3-3.5,1.2
		C40.1,17.5,44.4,16.9,46.1,20.1L46.1,20.1z"/>
	<path fill="#091117" d="M34.7,24.6c-2.1-0.1-2.3,3.1-4.5,2.5c0.3-1.1,1-2.2,2.3-2.6c-1.5,0.3-2.2,1.2-2.7,2.3
		C28.4,24.5,32,22.3,34.7,24.6L34.7,24.6z"/>
	<path fill="#091117" d="M26.6,31.6c1-2.8-3.3-4.4-1.6-7.1c1.5,0.8,2.6,2.2,2.6,4.1c0.2-2.2-0.8-3.5-2.1-4.5
		C29.1,23.1,30.7,28.9,26.6,31.6L26.6,31.6z"/>
	<path fill="#091117" d="M70.2,24.2c0.3-2.9-4.1-3.5-3.1-6.5c1.6,0.5,3,1.5,3.4,3.4c-0.3-2.2-1.5-3.2-3-3.9
		C70.8,15.4,73.5,20.7,70.2,24.2L70.2,24.2z"/>
	<path fill="#091117" d="M30.8,85.1c1.9-0.2,2.4,2.7,4.4,2c-0.3-1-1-2-2.3-2.2c1.5,0.2,2.2,1,2.6,2C36.6,84.6,33.1,82.9,30.8,85.1
		L30.8,85.1z"/>
	<path fill="#091117" d="M10.8,60.3c2.2,1.2,0.4,4.7,3.1,5.4c0.5-1.3,0.4-2.9-0.7-4.1c1.4,1.3,1.5,2.7,1.2,4.1
		C17.3,64.3,14.9,59.7,10.8,60.3L10.8,60.3z"/>
	<path fill="#091117" d="M27,21.5c0-1.9-2.8-2-2.3-4c1,0.2,2,0.8,2.4,2c-0.3-1.4-1.2-2-2.1-2.3C26.9,15.9,28.9,19.1,27,21.5L27,21.5
		z"/>
	<path fill="#091117" d="M42.6,14.1c-2.4,0.6-1.6,4.3-4.3,4.3c-0.1-1.4,0.3-2.8,1.7-3.7c-1.6,0.9-2.1,2.1-2.2,3.5
		C35.5,16.2,38.8,12.5,42.6,14.1L42.6,14.1z"/>
	<path fill="#091117" d="M84.6,63.1c-0.8-1.3-2.8-0.1-3.4-1.7c0.8-0.3,1.7-0.3,2.5,0.3c-0.8-0.8-1.7-0.8-2.5-0.6
		C82,59.4,84.8,60.6,84.6,63.1L84.6,63.1z"/>
	<path fill="#091117" d="M76.4,70.9c0.8-1.7-1.8-3-0.5-4.6c0.9,0.6,1.5,1.6,1.4,2.8c0.3-1.4-0.3-2.3-1-3
		C78.6,65.6,79.1,69.5,76.4,70.9L76.4,70.9z"/>
	<path fill="#091117" d="M88,68.3c-0.5-2,2.5-2.9,1.4-4.9c-1,0.5-1.9,1.4-2,2.8c0-1.5,0.7-2.4,1.7-3.1C86.6,62.2,85.3,66.2,88,68.3
		L88,68.3z"/>
	<path fill="#091117" d="M11.7,48.9c-0.1-3.7,5.6-4,4.6-7.9c-2,0.4-3.9,1.6-4.7,4c0.6-2.7,2.3-3.9,4.2-4.6
		C11.9,37.7,7.9,44.1,11.7,48.9L11.7,48.9z"/>
	<path fill="#091117" d="M17.6,43.7c-1.2,2,1.9,4,0,5.9c-1-0.9-1.7-2.2-1.4-3.7c-0.5,1.7,0,2.9,0.9,3.9C14.2,50,13.9,45.1,17.6,43.7
		L17.6,43.7z"/>
	<path fill="#091117" d="M23.1,36c-1.3,2.5-5.1,0.6-5.9,3.6c1.5,0.5,3.2,0.4,4.5-0.9c-1.4,1.6-2.9,1.8-4.5,1.5
		C19,43.3,24,40.5,23.1,36L23.1,36z"/>
	<path fill="#091117" d="M18.5,37.2c2.1-1.9-0.8-5.2,1.9-6.7c0.9,1.3,1.2,3,0.3,4.7c1.2-1.8,0.9-3.3,0.3-4.8
		C24.6,31.1,23.2,36.7,18.5,37.2L18.5,37.2z"/>
	<path fill="#091117" d="M25.4,30.2c-3.1-1.5-0.9-6.3-4.6-7.2c-0.5,1.9-0.4,3.9,1.3,5.6c-2-1.7-2.3-3.6-2-5.5
		C16.3,25.2,19.8,31.3,25.4,30.2L25.4,30.2z"/>
	<path fill="#091117" d="M27,23c-1.9-1.4-4.1,1.5-5.8-0.5c1-0.9,2.3-1.5,3.7-1c-1.6-0.7-2.8-0.2-3.9,0.5C21.1,19,25.9,19.2,27,23
		L27,23z"/>
	<path fill="#091117" d="M19.6,29.8c-3.2,2.3,0.3,7.2-3.7,9c-1-2-1.2-4.3,0.3-6.5c-1.9,2.3-1.8,4.4-1.1,6.5
		C10.4,37.2,13.1,29.6,19.6,29.8L19.6,29.8z"/>
	<path fill="#091117" d="M38.1,11.3c2.4-0.6,3.3,3.1,5.8,1.9c-0.5-1.3-1.6-2.4-3.2-2.5c1.9,0,2.9,1,3.6,2.2
		C45.5,10,40.7,8.2,38.1,11.3L38.1,11.3z"/>
	<path fill="#091117" d="M39.7,12.8c-2.8-0.2-3.1,4.1-6.1,3.3c0.4-1.5,1.3-2.9,3.1-3.4c-2.1,0.4-3,1.6-3.6,3.1
		C31.3,12.7,36.2,9.8,39.7,12.8L39.7,12.8z"/>
	<path fill="#091117" d="M50.6,12c-1.7-1.5-4,1.2-5.5-0.8c1-0.8,2.3-1.3,3.7-0.7c-1.5-0.7-2.7-0.4-3.8,0.3
		C45.2,7.9,49.7,8.3,50.6,12L50.6,12z"/>
	<path fill="#091117" d="M64.4,11.6c-2.5-0.3-3.1,3.5-5.7,2.6c0.4-1.4,1.4-2.6,3-2.9c-1.9,0.2-2.8,1.3-3.4,2.6
		C56.8,10.9,61.4,8.6,64.4,11.6L64.4,11.6z"/>
	<path fill="#091117" d="M62.2,13.6c-1,1.9,1.8,3.5,0.3,5.3c-0.9-0.7-1.6-1.9-1.4-3.3c-0.4,1.6,0.1,2.6,1,3.5
		C59.3,19.4,58.9,15.1,62.2,13.6L62.2,13.6z"/>
	<path fill="#091117" d="M49.4,8.7c3.5,1.7,1.1,7.2,5.3,8.1c0.6-2.1,0.4-4.5-1.5-6.3c2.3,1.9,2.6,4,2.4,6.2
		C59.9,14.2,55.8,7.4,49.4,8.7L49.4,8.7z"/>
	<path fill="#091117" d="M71.4,14.9c2,1.3,0,4.5,2.5,5.4c0.5-1.3,0.6-2.7-0.4-4c1.2,1.3,1.2,2.7,0.9,4
		C77.3,19.2,75.4,14.6,71.4,14.9L71.4,14.9z"/>
	<path fill="#091117" d="M71,16.5c-2.4-2.1-5.8,1.5-7.9-1.4c1.4-1.1,3.3-1.7,5.3-0.9c-2.2-1.1-3.9-0.7-5.5,0.2
		C63.3,10.4,69.9,11.2,71,16.5L71,16.5z"/>
	<path fill="#091117" d="M17.5,72.4c2.4,0.8,1.3,4.5,4.1,4.7c0.2-1.4-0.1-2.9-1.5-3.9c1.6,1,2,2.3,2,3.8
		C24.7,75.1,21.5,71,17.5,72.4L17.5,72.4z"/>
	<path fill="#091117" d="M21.8,72c-1.9-2.8-6.3,0.1-7.7-3.4c1.8-0.8,3.8-0.9,5.7,0.4c-1.9-1.7-3.8-1.7-5.7-1.2
		C15.6,63.8,22.1,66.3,21.8,72L21.8,72z"/>
	<path fill="#091117" d="M35.5,77.3c-1.3-1.5-3.6,0.4-4.6-1.5c1-0.6,2.1-0.7,3.3-0.1c-1.2-0.9-2.3-0.8-3.3-0.4
		C31.4,72.9,35.3,74,35.5,77.3L35.5,77.3z"/>
	<path fill="#091117" d="M22.9,72.9c1.3-2.4-2.4-4.6-0.3-6.9c1.2,1,2.1,2.4,1.8,4.3c0.5-2-0.2-3.4-1.2-4.6
		C26.7,65.4,27.2,71,22.9,72.9L22.9,72.9z"/>
	<path fill="#091117" d="M21.3,55.2c-1.6-1.6,0.8-4-1.3-5.3c-0.7,1-1,2.3-0.4,3.6c-0.9-1.4-0.6-2.6-0.1-3.7
		C16.7,50.3,17.6,54.7,21.3,55.2L21.3,55.2z"/>
	<path fill="#091117" d="M17.1,54.5c1.8,1.6-0.7,4.4,1.7,5.8c0.7-1.2,1-2.6,0.3-4c1,1.5,0.8,2.8,0.3,4.1
		C22.2,59.6,21.1,54.8,17.1,54.5L17.1,54.5z"/>
	<path fill="#091117" d="M30.8,73.2c-2.1,1.8-5-1.4-6.8,1.1c1.2,1,2.8,1.5,4.5,0.8c-1.9,1-3.3,0.5-4.7-0.3
		C24.2,78.4,29.8,77.7,30.8,73.2L30.8,73.2z"/>
	<path fill="#091117" d="M43.8,84.7c-2.1,2-5.2-1.1-7,1.6c1.3,1,3,1.4,4.8,0.6c-1.9,1.1-3.5,0.8-4.9,0C37.2,90.5,43,89.4,43.8,84.7
		L43.8,84.7z"/>
	<path fill="#091117" d="M51.1,90.2c-2.9-1.3-1-5.9-4.4-6.6c-0.5,1.8-0.2,3.7,1.3,5.2c-1.9-1.5-2.2-3.3-2-5.1
		C42.4,85.8,45.8,91.4,51.1,90.2L51.1,90.2z"/>
	<path fill="#091117" d="M60.5,89.1c-3.2-1.5-5.6,3.3-8.6,0.8c1.2-1.6,2.9-2.8,5.3-2.5c-2.6-0.6-4.3,0.4-5.7,1.8
		C50.8,84.9,57.9,83.9,60.5,89.1L60.5,89.1z"/>
	<path fill="#091117" d="M56.8,84.8c2.5-0.2,2.8,3.6,5.4,2.8c-0.3-1.4-1.2-2.6-2.8-3c1.8,0.3,2.7,1.4,3.2,2.7
		C64.2,84.6,59.8,82.1,56.8,84.8L56.8,84.8z"/>
	<path fill="#091117" d="M58.6,78.5c2.2,1,3.9-2.4,6-0.8c-0.8,1.2-2,2-3.6,1.9c1.8,0.3,3-0.4,3.9-1.4C65.5,81.2,60.5,82,58.6,78.5
		L58.6,78.5z"/>
	<path fill="#091117" d="M23,77.8c3.7,2.6,7.8-2.9,11.1,0.8c-1.8,1.8-4.3,2.9-7.2,2c3.2,1.3,5.5,0.4,7.6-1.1
		C34.5,85.2,25.2,85,23,77.8L23,77.8z"/>
	<path fill="#091117" d="M81.8,34.5c0.5,1.7-2.2,2.5-1.3,4.2c0.9-0.4,1.7-1.2,1.7-2.4c0,1.3-0.6,2.1-1.5,2.6
		C83,39.7,84.2,36.3,81.8,34.5L81.8,34.5z"/>
	<path fill="#091117" d="M85.8,39.4c2-1.1,0.3-4.1,2.7-4.8c0.4,1.2,0.4,2.6-0.6,3.7c1.2-1.2,1.3-2.4,1.1-3.6
		C91.6,35.8,89.5,39.9,85.8,39.4L85.8,39.4z"/>
	<path fill="#091117" d="M86.2,29.6c-1.3-1.5-3.6,0.5-4.7-1.4c1-0.6,2.1-0.8,3.3-0.2c-1.2-0.8-2.3-0.7-3.4-0.3
		C82.1,25.3,86,26.3,86.2,29.6L86.2,29.6z"/>
	<path fill="#091117" d="M41.3,81.6c-2.6-0.4-3.3,3.6-6,2.5c0.5-1.4,1.5-2.6,3.3-3c-2,0.2-3,1.3-3.7,2.6
		C33.3,80.7,38.2,78.4,41.3,81.6L41.3,81.6z"/>
	<path fill="#091117" d="M77.1,64.6c2.6,1,4.2-2.9,6.7-1.2c-0.8,1.3-2.1,2.4-4,2.3c2.1,0.3,3.3-0.6,4.3-1.8
		C84.9,67.3,79.5,68.5,77.1,64.6L77.1,64.6z"/>
	<path fill="#091117" d="M79.4,58.8c0.5,1.8-2.2,2.7-1.2,4.4c0.9-0.5,1.7-1.3,1.7-2.5c0.1,1.4-0.6,2.2-1.4,2.8
		C80.8,64.2,81.9,60.6,79.4,58.8L79.4,58.8z"/>
	<path fill="#091117" d="M91.7,54.5c-0.3-2.1-3.5-1.7-3.3-4c1.2,0,2.4,0.5,3,1.8c-0.6-1.5-1.6-2-2.8-2.2
		C90.5,48.2,93.4,51.4,91.7,54.5L91.7,54.5z"/>
	<path fill="#091117" d="M86.2,46c2.3-1.6-0.1-5.2,2.8-6.4c0.7,1.4,0.8,3.1-0.3,4.7c1.4-1.6,1.4-3.2,0.9-4.7
		C92.9,40.8,90.8,46.2,86.2,46L86.2,46z"/>
	<path fill="#091117" d="M85.9,43.1c-0.8,2-3.9,0.8-4.3,3.2c1.2,0.3,2.5,0.1,3.4-1c-1,1.3-2.1,1.6-3.3,1.5
		C83.2,49,86.8,46.6,85.9,43.1L85.9,43.1z"/>
	<path fill="#091117" d="M39.8,18.7c-2.2,2.3-5.8-1.1-7.6,1.9c1.5,1,3.3,1.5,5.2,0.5c-2,1.3-3.7,0.9-5.4,0.2
		C32.8,25.3,39.1,23.9,39.8,18.7L39.8,18.7z"/>
	<path fill="#091117" d="M85.7,64.2c0.7-3.1,5.5-2.1,5.5-5.5c-1.8-0.1-3.6,0.5-4.7,2.3c1.1-2.1,2.7-2.7,4.5-2.9
		C88.3,55.1,83.5,59.4,85.7,64.2L85.7,64.2z"/>
	<path fill="#091117" d="M85.6,65c-0.8,3.4-6,2.3-5.9,6.1c1.9,0.1,3.9-0.6,5.1-2.5c-1.2,2.3-2.9,3-4.9,3.2C82.9,75,88,70.2,85.6,65
		L85.6,65z"/>
	<path fill="#091117" d="M76.4,18.8c2.5,2.9-1.9,6.8,1.5,9.3c1.4-1.7,2.1-3.8,1.2-6.2c1.3,2.6,0.7,4.6-0.4,6.4
		C83.4,27.9,82.5,20.2,76.4,18.8L76.4,18.8z"/>
	<path fill="#091117" d="M77.9,42.1c3,0.7,4.1-4,7.3-2.5c-0.7,1.6-1.9,3-4,3.2c2.3-0.1,3.6-1.3,4.5-2.8C87.1,43.6,81.2,46,77.9,42.1
		L77.9,42.1z"/>
	<path fill="#091117" d="M76.5,28.2c-2-2.1,1.2-5.3-1.5-7c-1,1.3-1.4,3-0.6,4.8c-1.1-1.9-0.7-3.5,0-4.9
		C70.7,21.6,71.7,27.5,76.5,28.2L76.5,28.2z"/>
	<path fill="#091117" d="M31.3,22.4c-1.4-2.7,2.7-4.9,0.6-7.5c-1.4,1-2.3,2.6-2.1,4.6c-0.5-2.2,0.3-3.7,1.5-4.9
		C27.5,14,26.8,20.2,31.3,22.4L31.3,22.4z"/>
	<path fill="#091117" d="M84.8,38.4c0.6-3.3-4.4-4.3-2.9-7.6c1.8,0.6,3.3,2,3.6,4.2c-0.2-2.5-1.5-3.8-3.1-4.7
		C86.2,28.5,88.9,34.7,84.8,38.4L84.8,38.4z"/>
	<path fill="#091117" d="M17.8,61.1c-3.5-3.2,1.4-8.6-3.1-11.3c-1.5,2.2-2.1,5-0.6,7.8c-1.9-3-1.5-5.6-0.4-8
		C7.8,50.9,10,60.3,17.8,61.1L17.8,61.1z"/>
	<path fill="#091117" d="M50.4,86.5c1-2.1,4.3-0.5,4.9-3.1c-1.3-0.4-2.7-0.3-3.8,0.8c1.1-1.3,2.4-1.5,3.7-1.3
		C53.9,80.3,49.7,82.7,50.4,86.5L50.4,86.5z"/>
</g>
</svg>
