<?xml version="1.0" encoding="utf-8"?>
<!-- Generator: Adobe Illustrator 18.1.0, SVG Export Plug-In . SVG Version: 6.00 Build 0)  -->
<svg version="1.1" id="Layer_1" xmlns="http://www.w3.org/2000/svg" xmlns:xlink="http://www.w3.org/1999/xlink" x="0px" y="0px"
	 viewBox="0 0 100 100" enable-background="new 0 0 100 100" xml:space="preserve">
<g>
	<g>
		<path fill="#091117" d="M10,50c0,0-3.1,1.2-3.1-2.7C6.9,47.2,9.7,46.9,10,50z"/>
		<path fill="#091117" d="M13.9,47.9c0,0-2.9-1.4-3.3,2.2C10.5,50.1,13.3,50.8,13.9,47.9z"/>
		<path fill="#091117" d="M10.2,51c0.1-1.6,0.1-3.2,0.3-4.7"/>
	</g>
	<g>
		<path fill="#091117" d="M10.4,45.2c0,0-3.2,0.8-2.8-3.1C7.6,42.1,10.4,42.1,10.4,45.2z"/>
		<path fill="#091117" d="M14.4,43.6c0,0-2.8-1.7-3.5,1.8C10.9,45.4,13.6,46.4,14.4,43.6z"/>
		<path fill="#091117" d="M10.5,46.2c0.3-1.6,0.4-3.2,0.9-4.7"/>
	</g>
	<g>
		<path fill="#091117" d="M11.3,40.5c0,0-3.3,0.4-2.3-3.4C9.1,37.2,11.7,37.4,11.3,40.5z"/>
		<path fill="#091117" d="M15.6,39.5c0.1,0.1-2.6-2.1-3.7,1.3C11.9,40.8,14.3,42,15.6,39.5z"/>
		<path fill="#091117" d="M11.4,41.6c0.4-1.5,0.8-3.1,1.4-4.5"/>
	</g>
	<g>
		<path fill="#091117" d="M12.8,36c0.1,0-3.4,0-1.9-3.6C11,32.4,13.6,33,12.8,36z"/>
		<path fill="#091117" d="M17.2,35.4c0,0-2.3-2.3-3.9,0.9C13.4,36.4,15.6,37.8,17.2,35.4z"/>
		<path fill="#091117" d="M12.8,37c0.5-1.5,1.2-2.9,1.9-4.4"/>
	</g>
	<g>
		<path fill="#091117" d="M14.8,31.7c0,0-3.3-0.4-1.4-3.8C13.4,27.8,16.1,28.8,14.8,31.7z"/>
		<path fill="#091117" d="M19.3,31.6c0,0-1.9-2.6-4,0.4C15.3,32,17.4,33.8,19.3,31.6z"/>
		<path fill="#091117" d="M14.7,32.7c0.7-1.4,1.6-2.7,2.4-4.1"/>
	</g>
	<g>
		<path fill="#091117" d="M17.4,27.6c0,0-3.2-0.7-1-4C16.4,23.6,18.9,24.9,17.4,27.6z"/>
		<path fill="#091117" d="M21.8,28.1c0,0-1.7-2.8-4-0.1C17.8,28,19.7,30.1,21.8,28.1z"/>
		<path fill="#091117" d="M17.1,28.6c1-1.3,1.8-2.6,2.9-3.8"/>
	</g>
	<g>
		<path fill="#091117" d="M20.4,23.9c0,0-3.1-1.1-0.5-4.1C19.9,19.8,22.2,21.3,20.4,23.9z"/>
		<path fill="#091117" d="M24.7,24.9c0,0.1-1.4-3-3.9-0.5C20.7,24.4,22.4,26.6,24.7,24.9z"/>
		<path fill="#091117" d="M20,24.8c1.1-1.2,2.1-2.4,3.3-3.4"/>
	</g>
	<g>
		<path fill="#091117" d="M23.8,20.5c0.1,0-3-1.5,0-4.1C23.8,16.5,25.9,18.2,23.8,20.5z"/>
		<path fill="#091117" d="M27.9,22c0,0.1-1-3.1-3.8-1C24.1,21.1,25.4,23.4,27.9,22z"/>
		<path fill="#091117" d="M23.3,21.4c1.1-1.1,2.4-2.1,3.7-3"/>
	</g>
	<g>
		<path fill="#091117" d="M27.6,17.6c0.1,0-2.8-1.8,0.5-4C28.1,13.5,30,15.6,27.6,17.6z"/>
		<path fill="#091117" d="M31.5,19.6c0,0-0.6-3.2-3.7-1.5C27.8,18.2,28.9,20.7,31.5,19.6z"/>
		<path fill="#091117" d="M27,18.4c1.2-1,2.7-1.7,4-2.6"/>
	</g>
	<g>
		<path fill="#091117" d="M31.7,15.1c0,0-2.5-2.1,0.9-4C32.6,11.1,34.3,13.4,31.7,15.1z"/>
		<path fill="#091117" d="M35.4,17.6c0,0-0.2-3.2-3.5-1.9C31.8,15.7,32.6,18.4,35.4,17.6z"/>
		<path fill="#091117" d="M31,15.8c1.4-0.7,2.8-1.4,4.3-2"/>
	</g>
	<g>
		<path fill="#091117" d="M36.1,13.2c0,0-2.2-2.4,1.4-3.9C37.5,9.3,38.9,11.7,36.1,13.2z"/>
		<path fill="#091117" d="M39.4,16c0,0,0.2-3.2-3.2-2.2C36.1,13.8,36.6,16.6,39.4,16z"/>
		<path fill="#091117" d="M35.3,13.8c1.5-0.5,3-1.2,4.5-1.5"/>
	</g>
	<g>
		<path fill="#091117" d="M40.6,11.8c0,0-1.9-2.7,1.8-3.7C42.5,8.2,43.6,10.6,40.6,11.8z"/>
		<path fill="#091117" d="M43.6,15c0,0.1,0.5-3.3-3-2.6C40.7,12.4,40.8,15.1,43.6,15z"/>
		<path fill="#091117" d="M39.8,12.3c1.5-0.4,3.1-0.8,4.6-1"/>
	</g>
	<g>
		<path fill="#091117" d="M45.3,10.9c0,0.1-1.6-2.9,2.3-3.4C47.6,7.5,48.4,10.1,45.3,10.9z"/>
		<path fill="#091117" d="M47.9,14.5c0,0,0.9-3.1-2.6-3C45.3,11.5,45.1,14.2,47.9,14.5z"/>
		<path fill="#091117" d="M44.4,11.3c1.6-0.3,3.1-0.3,4.7-0.4"/>
	</g>
	<g>
		<path fill="#091117" d="M50.1,10.6c0,0.1-1.3-3.1,2.6-3.1C52.8,7.5,53.2,10.2,50.1,10.6z"/>
		<path fill="#091117" d="M52.3,14.4c0,0,1.3-3-2.3-3.3C50,11.2,49.5,13.8,52.3,14.4z"/>
		<path fill="#091117" d="M49.2,10.9c1.6-0.2,3.2,0.1,4.7,0.1"/>
	</g>
	<g>
		<path fill="#091117" d="M54.9,10.8c0,0-0.9-3.2,3-2.8C57.9,8,58,10.9,54.9,10.8z"/>
		<path fill="#091117" d="M56.6,14.9c0,0,1.6-2.8-1.9-3.5C54.7,11.4,53.8,14,56.6,14.9z"/>
		<path fill="#091117" d="M53.9,11c1.6,0.1,3.1,0.4,4.7,0.7"/>
	</g>
	<g>
		<path fill="#091117" d="M59.6,11.7c0,0-0.5-3.2,3.3-2.4C62.9,9.2,62.7,12,59.6,11.7z"/>
		<path fill="#091117" d="M60.8,15.9c0,0,2-2.6-1.4-3.7C59.3,12.2,58.2,14.8,60.8,15.9z"/>
		<path fill="#091117" d="M58.6,11.7c1.5,0.4,3.1,0.7,4.6,1.3"/>
	</g>
	<g>
		<path fill="#091117" d="M64.2,13c0,0-0.1-3.3,3.6-2C67.8,11,67.3,13.7,64.2,13z"/>
		<path fill="#091117" d="M64.9,17.3c-0.1,0,2.3-2.4-1-3.8C63.9,13.5,62.4,15.9,64.9,17.3z"/>
		<path fill="#091117" d="M63.2,13c1.5,0.5,3,1.1,4.4,1.8"/>
	</g>
	<g>
		<path fill="#091117" d="M68.6,14.9c0,0.1,0.3-3.3,3.8-1.6C72.4,13.4,71.6,16,68.6,14.9z"/>
		<path fill="#091117" d="M68.8,19.3c-0.1,0,2.5-2.1-0.5-3.9C68.2,15.4,66.5,17.5,68.8,19.3z"/>
		<path fill="#091117" d="M67.6,14.8c1.5,0.6,2.8,1.4,4.2,2.3"/>
	</g>
	<g>
		<path fill="#091117" d="M72.7,17.3c0,0.1,0.7-3.3,3.9-1.1C76.7,16.3,75.5,18.8,72.7,17.3z"/>
		<path fill="#091117" d="M72.4,21.7c0,0,2.7-1.7,0-4C72.3,17.8,70.3,19.7,72.4,21.7z"/>
		<path fill="#091117" d="M71.7,17.1c1.4,0.8,2.6,1.8,3.9,2.8"/>
	</g>
	<g>
		<path fill="#091117" d="M76.5,20.2c0,0,1-3.1,4-0.6C80.6,19.6,79.1,22,76.5,20.2z"/>
		<path fill="#091117" d="M75.7,24.5c0,0,2.9-1.4,0.4-3.9C76.1,20.6,73.9,22.3,75.7,24.5z"/>
		<path fill="#091117" d="M75.6,19.8c1.2,1,2.4,2.1,3.5,3.2"/>
	</g>
	<g>
		<path fill="#091117" d="M80,23.5c0,0,1.4-3,4.1-0.2C84.1,23.4,82.4,25.6,80,23.5z"/>
		<path fill="#091117" d="M78.6,27.7c0,0,3.1-1.1,0.8-3.8C79.5,23.8,77.1,25.3,78.6,27.7z"/>
		<path fill="#091117" d="M79.1,23c1.1,1.2,2.2,2.3,3.1,3.6"/>
	</g>
	<g>
		<path fill="#091117" d="M83,27.2c0,0.1,1.8-2.8,4.1,0.3C87.1,27.6,85.2,29.5,83,27.2z"/>
		<path fill="#091117" d="M81.2,31.2c-0.1,0,3.2-0.7,1.3-3.7C82.4,27.5,80,28.6,81.2,31.2z"/>
		<path fill="#091117" d="M82.2,26.6c1,1.2,1.9,2.6,2.7,3.9"/>
	</g>
	<g>
		<path fill="#091117" d="M85.6,31.3c-0.1,0.1,2.1-2.6,4,0.8C89.6,32.1,87.4,33.8,85.6,31.3z"/>
		<path fill="#091117" d="M83.3,35c0,0,3.2-0.3,1.8-3.6C85,31.5,82.5,32.3,83.3,35z"/>
		<path fill="#091117" d="M84.9,30.6c0.9,1.3,1.5,2.8,2.2,4.2"/>
	</g>
	<g>
		<path fill="#091117" d="M87.7,35.6c0,0,2.3-2.3,3.9,1.3C91.6,36.9,89.2,38.3,87.7,35.6z"/>
		<path fill="#091117" d="M84.9,39c0,0,3.2,0.1,2.2-3.3C87.1,35.7,84.4,36.2,84.9,39z"/>
		<path fill="#091117" d="M87,34.8c0.6,1.4,1.1,3,1.7,4.4"/>
	</g>
	<g>
		<path fill="#091117" d="M89.2,40.1c0,0,2.6-2,3.7,1.7C93,41.9,90.4,43,89.2,40.1z"/>
		<path fill="#091117" d="M86.1,43.2c0,0,3.2,0.5,2.5-3C88.6,40.1,85.8,40.3,86.1,43.2z"/>
		<path fill="#091117" d="M88.7,39.3c0.4,1.5,0.9,3.1,1.1,4.6"/>
	</g>
	<g>
		<path fill="#091117" d="M90.2,44.8c0,0,2.8-1.7,3.5,2.2C93.7,47,91.1,47.8,90.2,44.8z"/>
		<path fill="#091117" d="M86.8,47.5c-0.1,0,3.2,0.8,2.8-2.7C89.6,44.7,86.8,44.6,86.8,47.5z"/>
		<path fill="#091117" d="M89.8,43.9c0.2,1.6,0.5,3.1,0.5,4.7"/>
	</g>
	<g>
		<path fill="#091117" d="M90.7,49.5c0,0,3-1.3,3.2,2.5C93.8,52.1,91.2,52.7,90.7,49.5z"/>
		<path fill="#091117" d="M86.9,51.8c-0.1,0,3.1,1.2,3.2-2.4C90.1,49.4,87.4,49,86.9,51.8z"/>
		<path fill="#091117" d="M90.3,48.6c0.1,1.6,0.1,3.2,0,4.7"/>
	</g>
	<g>
		<path fill="#091117" d="M90.6,54.3c-0.1,0,3.2-1,2.9,2.9C93.4,57.3,90.7,57.5,90.6,54.3z"/>
		<path fill="#091117" d="M86.6,56.1c0,0,2.9,1.5,3.4-2C90,54.1,87.4,53.4,86.6,56.1z"/>
		<path fill="#091117" d="M90.3,53.3c0,1.6-0.3,3.1-0.5,4.7"/>
	</g>
	<g>
		<path fill="#091117" d="M89.9,59.1c0,0,3.2-0.6,2.5,3.2C92.4,62.3,89.6,62.2,89.9,59.1z"/>
		<path fill="#091117" d="M85.7,60.4c0,0,2.6,1.9,3.7-1.5C89.4,58.8,86.8,57.7,85.7,60.4z"/>
		<path fill="#091117" d="M89.8,58.1c-0.2,1.6-0.7,3.1-1.1,4.6"/>
	</g>
	<g>
		<path fill="#091117" d="M88.7,63.7c0,0,3.3-0.2,2.1,3.5C90.8,67.2,88,66.8,88.7,63.7z"/>
		<path fill="#091117" d="M84.4,64.5c0,0,2.4,2.2,3.8-1.1C88.2,63.4,85.7,62,84.4,64.5z"/>
		<path fill="#091117" d="M88.7,62.7c-0.5,1.5-1,3-1.7,4.5"/>
	</g>
	<g>
		<path fill="#091117" d="M86.9,68.1c0,0,3.3,0.2,1.7,3.8C88.6,71.9,85.9,71.1,86.9,68.1z"/>
		<path fill="#091117" d="M82.5,68.5c0,0,2.1,2.5,3.9-0.7C86.4,67.8,84.2,66.1,82.5,68.5z"/>
		<path fill="#091117" d="M87,67.1c-0.7,1.4-1.3,2.9-2.2,4.2"/>
	</g>
	<g>
		<path fill="#091117" d="M84.6,72.3c-0.1,0,3.3,0.6,1.2,3.9C85.8,76.2,83.3,75.2,84.6,72.3z"/>
		<path fill="#091117" d="M80.2,72.1c0-0.1,1.9,2.7,3.9-0.2C84.2,71.9,82.2,70,80.2,72.1z"/>
		<path fill="#091117" d="M84.9,71.4c-0.8,1.4-1.7,2.7-2.7,3.9"/>
	</g>
	<g>
		<path fill="#091117" d="M81.9,76.2c-0.1,0,3.2,1,0.7,4C82.6,80.3,80.2,78.9,81.9,76.2z"/>
		<path fill="#091117" d="M77.5,75.5c0,0,1.5,2.9,4,0.3C81.4,75.7,79.7,73.7,77.5,75.5z"/>
		<path fill="#091117" d="M82.2,75.3c-0.9,1.3-2,2.4-3.1,3.6"/>
	</g>
	<g>
		<path fill="#091117" d="M78.6,79.8c0,0,3,1.3,0.3,4.1C78.9,83.9,76.6,82.2,78.6,79.8z"/>
		<path fill="#091117" d="M74.4,78.5c0,0,1.1,3,3.9,0.8C78.3,79.3,76.8,77,74.4,78.5z"/>
		<path fill="#091117" d="M79.1,78.9c-1.1,1.1-2.3,2.2-3.5,3.2"/>
	</g>
	<g>
		<path fill="#091117" d="M75,82.9c0,0,2.8,1.6-0.2,4.1C74.8,87.1,72.8,85.1,75,82.9z"/>
		<path fill="#091117" d="M71,81.2c0,0,0.8,3.1,3.8,1.2C74.8,82.4,73.5,79.9,71,81.2z"/>
		<path fill="#091117" d="M75.6,82.1c-1.3,0.9-2.5,2-3.9,2.8"/>
	</g>
	<g>
		<path fill="#091117" d="M71.1,85.6c0,0,2.6,2-0.7,4.1C70.3,89.6,68.6,87.6,71.1,85.6z"/>
		<path fill="#091117" d="M67.3,83.4c0-0.1,0.4,3.3,3.6,1.6C70.9,85,70,82.4,67.3,83.4z"/>
		<path fill="#091117" d="M71.7,84.9c-1.3,0.8-2.7,1.7-4.2,2.3"/>
	</g>
	<g>
		<path fill="#091117" d="M66.8,87.8c-0.1-0.1,2.4,2.3-1.2,3.9C65.6,91.7,64.1,89.5,66.8,87.8z"/>
		<path fill="#091117" d="M63.3,85.2c0-0.1,0,3.3,3.4,2.1C66.7,87.2,66.1,84.6,63.3,85.2z"/>
		<path fill="#091117" d="M67.6,87.2c-1.4,0.7-2.9,1.3-4.4,1.8"/>
	</g>
	<g>
		<path fill="#091117" d="M62.4,89.6c0,0,2.1,2.6-1.6,3.7C60.7,93.3,59.5,90.8,62.4,89.6z"/>
		<path fill="#091117" d="M59.2,86.5c0,0-0.4,3.2,3.1,2.5C62.3,89,62,86.2,59.2,86.5z"/>
		<path fill="#091117" d="M63.2,89c-1.5,0.6-3.1,0.8-4.6,1.3"/>
	</g>
	<g>
		<path fill="#091117" d="M57.7,90.7c0,0,1.8,2.8-2.1,3.5C55.6,94.2,54.7,91.6,57.7,90.7z"/>
		<path fill="#091117" d="M54.9,87.3c0,0-0.8,3.1,2.8,2.8C57.7,90.1,57.8,87.3,54.9,87.3z"/>
		<path fill="#091117" d="M58.6,90.2c-1.6,0.3-3.1,0.5-4.7,0.7"/>
	</g>
	<g>
		<path fill="#091117" d="M53,91.2c0,0,1.4,2.9-2.5,3.3C50.5,94.6,49.9,91.8,53,91.2z"/>
		<path fill="#091117" d="M50.6,87.6c0,0-1.1,3,2.5,3.1C53.1,90.7,53.4,87.9,50.6,87.6z"/>
		<path fill="#091117" d="M53.9,90.9c-1.6,0-3.2,0.3-4.7,0.1"/>
	</g>
	<g>
		<path fill="#091117" d="M48.2,91.3c0,0,1.1,3.1-2.8,3C45.3,94.2,45,91.6,48.2,91.3z"/>
		<path fill="#091117" d="M46.2,87.4c0-0.1-1.5,3,2.1,3.3C48.3,90.7,49,88,46.2,87.4z"/>
		<path fill="#091117" d="M49.2,91c-1.6-0.1-3.2-0.1-4.7-0.4"/>
	</g>
	<g>
		<path fill="#091117" d="M43.4,90.7c0-0.1,0.7,3.3-3.2,2.6C40.3,93.3,40.3,90.6,43.4,90.7z"/>
		<path fill="#091117" d="M42,86.6c0-0.1-1.8,2.8,1.7,3.6C43.7,90.2,44.6,87.7,42,86.6z"/>
		<path fill="#091117" d="M44.4,90.6c-1.6-0.2-3.1-0.5-4.6-1"/>
	</g>
	<g>
		<path fill="#091117" d="M38.8,89.7c0-0.1,0.3,3.3-3.4,2.2C35.3,91.8,35.7,89.1,38.8,89.7z"/>
		<path fill="#091117" d="M37.8,85.4c0,0-2.1,2.5,1.2,3.8C39.1,89.1,40.3,86.8,37.8,85.4z"/>
		<path fill="#091117" d="M39.8,89.6c-1.6-0.3-3-1-4.5-1.5"/>
	</g>
	<g>
		<path fill="#091117" d="M34.3,88c0,0-0.1,3.3-3.7,1.8C30.6,89.8,31.3,87.1,34.3,88z"/>
		<path fill="#091117" d="M33.8,83.6c0,0-2.4,2.2,0.8,3.9C34.6,87.6,36.2,85.3,33.8,83.6z"/>
		<path fill="#091117" d="M35.3,88.1c-1.5-0.6-2.9-1.3-4.3-2"/>
	</g>
	<g>
		<path fill="#091117" d="M30,85.9c0,0-0.4,3.2-3.9,1.4C26.1,87.2,27.1,84.6,30,85.9z"/>
		<path fill="#091117" d="M30.1,81.5c0,0-2.6,1.9,0.3,3.9C30.4,85.4,32.3,83.3,30.1,81.5z"/>
		<path fill="#091117" d="M31,86.1c-1.3-0.9-2.8-1.6-4-2.6"/>
	</g>
	<g>
		<path fill="#091117" d="M26,83.2c0,0-0.9,3.2-4,0.9C22,84,23.2,81.7,26,83.2z"/>
		<path fill="#091117" d="M26.6,78.9c0.1,0-2.9,1.6-0.2,3.9C26.5,82.8,28.5,81,26.6,78.9z"/>
		<path fill="#091117" d="M27,83.5c-1.3-0.9-2.5-1.9-3.7-3"/>
	</g>
	<g>
		<path fill="#091117" d="M22.4,80.1c0-0.1-1.3,3.1-4.1,0.4C18.3,80.5,19.9,78.2,22.4,80.1z"/>
		<path fill="#091117" d="M23.5,75.8c0,0-3,1.3-0.6,3.9C22.9,79.7,25.1,78.2,23.5,75.8z"/>
		<path fill="#091117" d="M23.3,80.5c-1.2-1-2.3-2.2-3.3-3.4"/>
	</g>
	<g>
		<path fill="#091117" d="M19.1,76.6c0,0-1.6,2.9-4.1-0.1C15,76.5,16.9,74.4,19.1,76.6z"/>
		<path fill="#091117" d="M20.7,72.5c0,0-3.1,0.9-1.1,3.8C19.6,76.3,22.1,75,20.7,72.5z"/>
		<path fill="#091117" d="M20,77.1c-1.1-1.2-1.9-2.5-2.9-3.8"/>
	</g>
	<g>
		<path fill="#091117" d="M16.3,72.7c0,0-1.9,2.7-4.1-0.6C12.2,72.1,14.3,70.3,16.3,72.7z"/>
		<path fill="#091117" d="M18.4,68.9c0,0-3.2,0.5-1.5,3.6C16.9,72.5,19.5,71.5,18.4,68.9z"/>
		<path fill="#091117" d="M17.1,73.4c-0.8-1.4-1.7-2.7-2.4-4.1"/>
	</g>
	<g>
		<path fill="#091117" d="M14,68.5c0,0-2.2,2.4-4-1C10,67.5,12.2,65.9,14,68.5z"/>
		<path fill="#091117" d="M16.5,65c0.1,0-3.3,0.1-1.9,3.4C14.6,68.4,17.3,67.7,16.5,65z"/>
		<path fill="#091117" d="M14.7,69.3c-0.7-1.4-1.4-2.8-1.9-4.4"/>
	</g>
	<g>
		<path fill="#091117" d="M12.2,64.1c0,0-2.5,2.2-3.8-1.5C8.4,62.6,10.7,61.3,12.2,64.1z"/>
		<path fill="#091117" d="M15.1,60.8c0.1,0-3.3-0.3-2.4,3.2C12.8,64,15.5,63.7,15.1,60.8z"/>
		<path fill="#091117" d="M12.8,64.9c-0.6-1.5-1-3-1.4-4.5"/>
	</g>
	<g>
		<path fill="#091117" d="M10.9,59.5c0.1,0-2.8,1.9-3.6-2C7.3,57.5,9.9,56.5,10.9,59.5z"/>
		<path fill="#091117" d="M14.2,56.6c0,0-3.2-0.7-2.7,2.9C11.5,59.5,14.2,59.5,14.2,56.6z"/>
		<path fill="#091117" d="M11.4,60.4c-0.5-1.5-0.6-3.1-0.9-4.7"/>
	</g>
	<g>
		<path fill="#091117" d="M10.1,54.8c0,0-2.9,1.5-3.3-2.4C6.8,52.4,9.5,51.7,10.1,54.8z"/>
		<path fill="#091117" d="M13.8,52.3c0,0-3-1-3.1,2.5C10.7,54.9,13.5,55.1,13.8,52.3z"/>
		<path fill="#091117" d="M10.5,55.7c-0.2-1.6-0.2-3.2-0.3-4.7"/>
	</g>
</g>
</svg>
