<?xml version="1.0" encoding="utf-8"?>
<!-- Generator: Adobe Illustrator 18.1.0, SVG Export Plug-In . SVG Version: 6.00 Build 0)  -->
<svg version="1.1" id="Layer_1" xmlns="http://www.w3.org/2000/svg" xmlns:xlink="http://www.w3.org/1999/xlink" x="0px" y="0px"
	 viewBox="0 0 100 100" enable-background="new 0 0 100 100" xml:space="preserve">
<g>
	<path fill="#091117" d="M14.9,54.5v-7.4c0-0.2,0.1-0.4,0.2-0.6c0.1-0.1,0.3-0.3,0.5-0.3c0.1,0,5.5-1.5,5.5-1.5
		c0.2-0.1,0.4-0.2,0.4-0.5c0,0,0,0,0,0c0-0.3-0.2-0.5-0.5-0.5c0,0-14.5,0-15.3,0C6,44.3,9,49.1,9,49.1s-3,4.8-3.4,5.4H14.9z"/>
	<path fill="#091117" d="M85.9,54.5v-7.4c0-0.2-0.1-0.4-0.2-0.6c-0.1-0.1-0.3-0.3-0.5-0.3c-0.1,0-5.5-1.5-5.5-1.5
		c-0.2-0.1-0.4-0.2-0.4-0.5c0,0,0,0,0,0c0-0.3,0.2-0.5,0.5-0.5c0,0,14.5,0,15.3,0c-0.4,0.6-3.4,5.4-3.4,5.4s3,4.8,3.4,5.4H85.9z"/>
	<path fill="#091117" d="M85.4,47.9c0,1.4,0,10.5,0,10.5c0,0.3-0.2,0.5-0.5,0.5H15.8c-0.3,0-0.5-0.2-0.5-0.5c0,0,0-9.1,0-10.5
		c0.1,0.1,0.3,0.1,0.5,0.1h69.1C85.1,48,85.3,48,85.4,47.9z"/>
</g>
</svg>
